<?xml version="1.0" encoding="UTF-8" standalone="no"?>
<!DOCTYPE svg PUBLIC "-//W3C//DTD SVG 1.1//EN" "http://www.w3.org/Graphics/SVG/1.1/DTD/svg11.dtd">
<svg width="100%" height="100%" viewBox="0 0 1324 1239" version="1.1" xmlns="http://www.w3.org/2000/svg" xmlns:xlink="http://www.w3.org/1999/xlink" xml:space="preserve" xmlns:serif="http://www.serif.com/" style="fill-rule:evenodd;clip-rule:evenodd;stroke-linejoin:round;stroke-miterlimit:2;">
    <g id="Artboard1" transform="matrix(0.953099,0,0,1,0,0)">
        <rect x="0" y="0" width="1389" height="1239" style="fill:none;"/>
        <g transform="matrix(1.04921,0,0,1,33.3868,0)">
            <path d="M633.04,2.872C633.03,2.872 633.02,2.872 633.01,2.872C618.885,2.861 604.662,3.307 590.506,4.251C448.497,13.715 311.598,74.067 208.687,171.314C115.063,259.786 50.224,377.802 26.261,503.793C1.865,632.064 19.374,768.775 76.256,886.751C125.012,987.873 201.812,1075.08 295.855,1136.39C395.524,1201.38 514.077,1236.32 633.025,1236.13C792.078,1235.88 946.96,1172.34 1060.05,1063.21C1136.39,989.555 1193.33,896.148 1223.39,794.612C1259.62,672.264 1256.62,538.642 1215.01,418.237C1170.95,290.748 1084.03,179.354 972.082,105.155C872.451,39.122 752.963,3.157 633.04,2.872ZM708.833,739.908C762.473,740.129 815.272,757.519 857.958,788.839C922.027,835.847 960.542,912.268 961.495,990.033C961.633,1007.33 961.584,1024.82 961.544,1042.29C956.274,1046.4 950.929,1050.42 945.51,1054.34C841.782,1129.32 711.755,1164.65 584.8,1153.56C484.544,1144.81 386.323,1106.58 306.26,1045.19C304.425,1043.78 302.6,1042.36 300.787,1040.93C300.787,1040.93 300.787,992.588 300.787,992.588C300.842,979.232 301.902,966.025 303.948,952.871C310.166,914.581 325.778,876.278 349.263,844.083C396.529,779.284 474.134,740.247 553.431,739.908C553.466,739.908 708.833,739.908 708.833,739.908L708.833,739.908ZM1040.94,966.056C1034.64,888.769 1000.91,815.09 947.086,759.981C884.575,695.981 797.612,659.751 710.027,659.4C710.027,659.4 710.027,659.4 710.027,659.4C657.798,659.192 605.568,659.396 553.338,659.396C553.314,659.396 553.289,659.396 553.265,659.396C548.981,659.413 544.708,659.49 540.437,659.662C470.4,662.474 401.538,687.959 346.369,731.832C273.337,789.911 229.541,875.422 221.59,964.307C211.197,951.942 201.362,939.095 192.069,925.769C128.642,834.813 94.858,724.48 95.936,614.31C96.823,523.696 121.139,433.052 166.153,354.181C205.955,284.444 261.081,224.534 326.439,179.067C414.432,117.853 523.088,83.597 631.152,83.384C632.028,83.383 632.904,83.384 633.78,83.386C688.118,83.6 742.641,91.968 794.514,108.476C879.675,135.577 957.346,184.2 1019.49,249.139C1112.18,345.993 1165.32,476.658 1168.03,608.236C1169.66,687.368 1153.59,766.863 1121.45,838.523C1100.88,884.386 1075.18,924.935 1044.11,962.292L1040.94,966.056ZM631.862,131.002L629.755,131.006C574.163,131.446 520.332,154.246 481.589,192.989C442.618,231.96 419.865,286.581 419.602,341.838C419.602,341.857 419.602,341.877 419.602,341.896C419.557,370.299 419.557,398.702 419.602,427.104C419.602,427.124 419.602,427.143 419.602,427.163C420.056,522.57 485.805,604.229 571.387,629.422C635.449,648.28 706.821,634.732 759.226,594.792C811.007,555.327 842.388,492.081 842.697,427.163C842.697,427.143 842.697,427.124 842.697,427.104C842.742,398.702 842.742,370.299 842.697,341.896C842.697,341.877 842.697,341.857 842.697,341.838C842.428,285.136 818.949,230.306 778.906,191.206C739.965,153.181 686.034,131.26 631.862,131.002ZM630.714,211.514C631.269,211.513 631.825,211.515 632.381,211.519C632.847,211.524 633.278,211.529 633.71,211.537C657.572,211.99 681.483,219.159 701.671,232.118C737.76,255.285 762.053,298.556 762.185,342.113C762.27,370.371 762.27,398.63 762.185,426.887C762.154,437.218 760.92,447.538 758.451,457.661C749.091,496.036 722.616,527.723 688.248,544.414C635.909,569.834 574.43,556.336 536.861,517.394C513.654,493.339 500.336,460.373 500.114,426.908C500.113,426.881 500.113,342.121 500.113,342.121C500.184,331.09 501.535,320.112 504.326,309.447C519.695,250.71 574.032,211.784 630.714,211.514L630.714,211.514Z"/>
        </g>
    </g>
</svg>
