<?xml version="1.0" encoding="UTF-8" standalone="no"?>
<!DOCTYPE svg PUBLIC "-//W3C//DTD SVG 1.1//EN" "http://www.w3.org/Graphics/SVG/1.1/DTD/svg11.dtd">
<svg width="100%" height="100%" viewBox="0 0 1516 1252" version="1.1" xmlns="http://www.w3.org/2000/svg" xmlns:xlink="http://www.w3.org/1999/xlink" xml:space="preserve" xmlns:serif="http://www.serif.com/" style="fill-rule:evenodd;clip-rule:evenodd;stroke-linejoin:round;stroke-miterlimit:2;">
    <g id="Artboard1" transform="matrix(1.01834,0,0,1.00522,0,0)">
        <rect x="0" y="0" width="1487.77" height="1245.07" style="fill:none;"/>
        <g transform="matrix(0.981992,0,0,0.994809,26.5369,21.9618)">
            <path d="M1141.92,906.768L1146.15,907.244C1148.84,908.185 1151.56,909.152 1153.77,910.913C1157.12,913.589 1159.5,917.413 1160.44,921.54C1160.76,922.923 1160.76,924.359 1160.92,925.768L1160.92,1029.27C1186.48,1035.11 1209.54,1052.23 1221.64,1075.85C1235.29,1102.51 1234.48,1135.97 1219.02,1162.11C1205.57,1184.86 1181.65,1201.11 1155.53,1205.1C1127.15,1209.44 1096.95,1199.17 1077.12,1178.36C1063.41,1163.97 1054.68,1144.96 1052.8,1125.16C1052.8,1125.16 1052.52,1122.02 1052.44,1119.47C1052.32,1115.66 1052.44,1111.84 1052.8,1108.05C1052.8,1108.05 1053.35,1102.81 1054.21,1098.58C1060.45,1068.17 1083.55,1041.84 1113.21,1031.79C1116.4,1030.71 1119.64,1029.82 1122.92,1029.12L1122.92,944.768L947.7,944.768L943.472,944.292C942.133,943.823 940.734,943.502 939.456,942.886C934.293,940.4 930.433,935.505 929.176,929.996C928.86,928.613 928.858,927.177 928.7,925.768L928.7,669.763C906.638,664.803 886.396,651.606 873.483,632.501C860.789,613.718 855.679,590.031 859.383,567.722L859.881,564.972C864.424,542.757 877.49,522.531 895.866,509.453C910.74,498.866 928.901,493.092 947.134,492.915C947.511,492.914 947.889,492.914 948.266,492.915C983.064,493.252 1016.82,515.006 1030.59,548.582C1039.84,571.143 1039.3,597.559 1029.08,619.781C1017.56,644.823 993.917,663.863 966.7,669.909L966.7,906.768L1141.92,906.768ZM394.688,934.316L394.688,997.099C419.692,1002.77 442.305,1019.17 454.657,1042.27C466.548,1064.5 468.54,1091.75 459.583,1115.74C446.94,1149.61 412.476,1174.2 375.122,1173.98C339.611,1173.77 305.04,1150.54 291.987,1116.26C289.884,1110.74 288.338,1105 287.37,1099.17C287.37,1099.17 286.478,1093.59 286.249,1088.48C285.231,1065.72 293.027,1042.97 308.349,1025.48C320.863,1011.18 338.026,1001.18 356.688,997.046L356.688,915.316L357.164,911.088C358.105,908.4 359.072,905.678 360.833,903.47C363.509,900.114 367.333,897.734 371.46,896.792C372.843,896.477 374.279,896.475 375.688,896.316L494.051,896.316L494.051,719.799C467.793,714.878 443.885,697.942 431.062,673.929C425.539,663.588 422.029,652.052 420.913,640.309L420.767,638.628C420.403,633.487 420.426,628.318 420.913,623.19C420.913,623.19 421.46,617.959 422.327,613.729C428.467,583.765 450.904,557.661 480.285,547.295C490.002,543.867 500.382,542.185 510.6,542.224C537.318,542.431 563.472,555.189 580.1,576.035C588.881,587.044 594.934,600.04 597.739,613.729L597.852,614.277L598.062,615.375C599.966,626.018 600.059,636.958 598.161,647.572L597.627,650.317C590.647,682.32 564.963,709.699 532.051,718.395L532.051,915.316C531.57,919.584 530.53,923.872 527.906,927.162C526.126,929.394 523.867,931.196 521.295,932.434C517.852,934.092 516.778,933.896 513.051,934.316L394.688,934.316ZM1141.59,1065.08C1122.23,1065.27 1103.55,1077 1095.19,1094.86C1086.14,1114.23 1090.8,1139.03 1106.38,1153.9C1120.66,1167.51 1143.07,1171.93 1161.67,1164.21C1177.47,1157.64 1189.59,1142.81 1192.64,1125.74C1196.56,1103.82 1184.7,1079.57 1163.38,1069.75C1156.78,1066.71 1149.52,1065.15 1142.25,1065.08L1141.59,1065.08ZM375.361,1032.93C351.83,1033.16 329.555,1050.53 325.024,1075C320.866,1097.46 332.711,1122.56 356.234,1132.18C382.816,1143.05 417.9,1128.71 425.752,1096.7C432.68,1068.46 413.016,1034.55 378.012,1032.98C377.129,1032.94 376.245,1032.92 375.361,1032.93ZM812.793,708.553L817.021,709.03C819.709,709.97 822.431,710.937 824.64,712.698C827.995,715.375 830.375,719.198 831.317,723.325C831.633,724.708 831.635,726.144 831.793,727.553L831.793,943.627C865.203,951.392 893.948,978.712 900.718,1014L901.203,1016.76C905.696,1046.08 895.331,1077.12 872.584,1097.55C850.514,1117.36 818.462,1125.22 789.374,1117.35C759.161,1109.18 733.929,1084.43 725.957,1052.76C717.898,1020.75 728.444,985.058 755.012,962.557C766.107,953.161 779.592,946.641 793.793,943.513L793.793,746.553L699.477,746.553L695.249,746.077C693.91,745.608 692.511,745.287 691.233,744.672C686.07,742.185 682.211,737.29 680.953,731.781C680.638,730.398 680.636,728.963 680.477,727.553L680.477,528.768C673.542,527.332 666.72,525.038 660.17,521.832C623.781,504.016 601.848,460.472 612.91,418.505C612.91,418.505 613.919,414.692 615.21,411.11C627.248,377.713 660.718,353.026 696.612,351.904C697.755,351.868 698.899,351.859 700.042,351.861C730.306,352.153 759.605,368.285 775.747,394.504C794.466,424.91 793.003,466.487 770.562,495.797C757.755,512.524 738.935,523.892 718.477,528.414L718.477,708.553L812.793,708.553ZM812.449,979.4C786.662,979.65 762.558,1001.09 761.319,1028.6C761.176,1031.79 761.324,1034.99 761.767,1038.14C765.164,1062.3 787.396,1082.45 812.795,1082.45C839.508,1082.45 864.709,1058.96 864.317,1030.27C864.053,1010.98 851.937,992.212 834.253,984.071C827.441,980.935 819.876,979.386 812.449,979.4ZM382.899,835.127C343.662,835.113 304.425,835.105 265.187,835.105C202.485,834.93 140.281,811.946 92.865,771.116C43.732,728.807 10.488,666.09 2.815,602.699C-6.485,525.86 19.314,445.764 73.887,388.42C74.436,387.842 74.522,387.755 75.053,387.206C117.139,343.662 174.26,315.239 234.148,308.204C259.801,305.191 285.848,305.949 311.333,310.402C311.333,310.402 311.693,306.11 312.106,302.191C320.078,226.411 354.416,153.937 409.018,99.376C468.408,40.029 550.266,4.074 634.286,0.886C638.933,0.71 643.584,0.636 648.238,0.641C730.111,1.029 811.173,32.15 871.877,86.465C905.696,116.725 933.3,153.967 952.5,194.695L953.146,194.276C1014.45,154.919 1095.78,150.744 1161.04,184.945C1213.25,212.305 1252.83,262.472 1266.55,320.527C1272.07,343.902 1273.61,368.399 1270.65,393.322L1270.6,393.665C1308.78,399.039 1345.07,414.73 1375.35,438.336L1375.86,438.735C1400.71,458.315 1421.46,483.337 1435.89,511.103C1436.08,511.479 1436.28,511.857 1436.47,512.234C1458.19,554.96 1466.11,605.318 1457.07,653.891C1448.98,697.349 1427.38,738.02 1396.3,769.6C1355.39,810.508 1298.78,834.796 1239.67,835.104C1197.96,835.176 1156.25,835.23 1114.54,835.269L1114.54,787.11C1134.15,787.107 1153.76,787.105 1173.37,787.105C1195.41,787.105 1217.46,787.139 1239.51,787.104C1287.33,786.876 1334.57,766.039 1366.9,730.893C1405.87,688.533 1421.91,626.49 1407.32,569.834C1394.42,519.777 1357.94,476.261 1310.46,454.781C1278.15,440.164 1241.14,435.903 1206.3,442.48L1205.8,442.577C1227.73,400.899 1230.07,349.003 1211.06,305.207C1190,256.692 1143.7,220.061 1090.79,211.453C1052.09,205.159 1011.05,213.725 978.13,235.285C959.351,247.584 943.267,263.869 931.081,282.815C914.959,199.639 860.965,125.8 787.478,84.915C745.315,61.457 697.369,48.984 648.92,48.645C648.059,48.641 647.198,48.64 646.337,48.642C579.932,48.957 513.418,72.937 462.14,115.78C405.485,163.116 367.935,232.325 359.939,306.304C357.459,329.258 357.722,352.433 360.708,375.441L360.867,376.637C306.116,349.711 239.154,347.23 182.286,370.89C113.497,399.51 61.507,465.477 50.995,540.505C43.178,596.296 57.995,654.837 91.901,700.162C130.897,752.292 193.464,785.565 260.369,787.05C261.764,787.081 263.159,787.097 264.555,787.104C304.003,787.166 343.451,787.212 382.899,787.245L382.899,835.127ZM509.688,580.224C491.333,580.366 473.487,591.082 464.717,607.217C453.601,627.667 458.063,655.238 476.814,671.121C499.601,690.424 540.204,687.201 556.359,654.328C564.709,637.337 562.742,615.854 550.941,600.436C541.368,587.927 526.106,580.346 510.379,580.224C510.033,580.222 510.033,580.222 509.688,580.224ZM947.355,530.915C922.069,531.16 897.687,551.325 896.239,579.779C895.497,594.369 901.228,609.319 912.155,619.726C932.074,638.698 967.428,639.439 987.465,615.193C1003.22,596.132 1003.21,565.363 984.334,546.226C974.724,536.485 960.913,530.888 947.355,530.915ZM699.131,389.86C680.858,390.037 663.106,400.397 654.162,416.854C642.932,437.515 647.545,465.719 667.196,481.534C687.642,497.989 720.718,496.297 739.042,474.378C751.696,459.242 754.573,436.451 745.656,418.511C737.27,401.641 719.131,390.159 700.149,389.864C699.81,389.86 699.47,389.86 699.131,389.86Z" style="stroke:black;stroke-width:33px;"/>
        </g>
    </g>
</svg>
