<svg xmlns="http://www.w3.org/2000/svg" width="22" height="14" viewBox="0 0 22 14">
	<g>
		<g clip-path="url(#clip-A7AC1D81-7C61-1311-E788-240DE8D71D6E)">
			<path d="M17.539.88c.268.086.53.197.774.336l.07.05c.019.021.04.04.056.064.144.207.022.547-.259.59a.39.39 0 0 1-.17-.012c-.077-.024-.142-.07-.212-.105a3.52 3.52 0 0 0-.493-.2s-.051-.019-.084-.038c-.218-.13-.25-.488-.013-.642a.388.388 0 0 1 .16-.06.52.52 0 0 1 .17.016zm1.768 2.758a.374.374 0 0 1-.152-.15c-.035-.063-.048-.133-.07-.2a2.738 2.738 0 0 0-.218-.492l-.002-.005c-.03-.069-.044-.086-.05-.162a.388.388 0 0 1 .194-.356c.068-.038.09-.036.164-.05l.086.005c.028.007.057.012.084.022a.385.385 0 0 1 .14.097c.057.061.09.136.126.208.106.206.19.423.253.645l.015.084c-.002.029 0 .057-.006.085a.365.365 0 0 1-.137.222 1.15 1.15 0 0 1 1.069 1.14 1.15 1.15 0 0 1-1.157 1.144 1.15 1.15 0 0 1-1.157-1.144c0-.514.344-.95.818-1.093zM3.28 1.483a1.156 1.156 0 0 1-1.104.798 1.15 1.15 0 0 1-1.157-1.14C1.02.51 1.54 0 2.177 0c.391 0 .737.191.946.484A10.792 10.792 0 0 1 4.407.402C5.18.405 5.975.516 6.65.895c.556.312.99.815 1.26 1.399l.002-.006a3.258 3.258 0 0 1 1.7-1.546c.612-.243 1.283-.322 1.934-.324h.046c.358.002.715.026 1.07.067A1.16 1.16 0 0 1 13.608 0c.589 0 1.075.435 1.148.996a.351.351 0 0 1 .029-.164.388.388 0 0 1 .253-.215c.058-.016.118-.014.18-.016a10.278 10.278 0 0 1 .699.005s.055.004.093.014c.27.074.386.485.122.673-.12.085-.282.068-.434.065a9.075 9.075 0 0 0-.537.004s-.056.001-.094-.006a.395.395 0 0 1-.307-.323 1.15 1.15 0 0 1-1.152 1.25c-.52-.001-.96-.34-1.105-.804-.686-.082-1.378-.094-2.064.064-.47.109-.924.325-1.25.676-.513.553-.693 1.348-.774 2.105.32.203.532.557.532.959 0 .63-.519 1.14-1.157 1.14a1.15 1.15 0 0 1-1.157-1.14c0-.464.28-.863.684-1.041a5.182 5.182 0 0 0-.198-1.147c-.159-.523-.453-1.013-.94-1.3-.469-.277-1.027-.358-1.559-.377a8.742 8.742 0 0 0-1.339.065zm15.413 5.641a.562.562 0 0 0-.551.54c-.003 1.661-.017 3.323 0 4.985a.56.56 0 0 0 .543.536c.647.006 1.295.006 1.942 0a.562.562 0 0 0 .543-.536c.018-1.662.006-3.324 0-4.985a.559.559 0 0 0-.546-.54c-.644-.002-1.287 0-1.93 0zm-9.893-.407c.532 0 .964.426.964.95v4.975c0 .524-.432.95-.964.95H6.874a.957.957 0 0 1-.964-.95V7.667c0-.524.432-.95.964-.95zm5.91-4.078c.532 0 .964.426.964.95v9.053c0 .524-.432.95-.964.95h-1.927a.957.957 0 0 1-.964-.95V3.589c0-.524.432-.95.964-.95zm-11.82 0c.532 0 .964.426.964.95v9.053c0 .524-.432.95-.964.95H.964a.957.957 0 0 1-.964-.95V3.589c0-.524.432-.95.964-.95zM20.63 6.31c.562.006 1.094.371 1.287.9.052.143.079.296.08.45.006 1.66 0 3.322 0 4.983a1.393 1.393 0 0 1-.919 1.28c-.144.05-.296.076-.448.077-.646.002-1.292 0-1.937 0a1.41 1.41 0 0 1-1.298-.906 1.356 1.356 0 0 1-.078-.443c-.003-1.664-.003-3.328 0-4.991a1.39 1.39 0 0 1 .935-1.278c.14-.046.286-.07.433-.071a287.95 287.95 0 0 1 1.945 0z"></path>
		</g>
	</g>
</svg>