<?xml version="1.0" encoding="UTF-8" standalone="no"?><!DOCTYPE svg PUBLIC "-//W3C//DTD SVG 1.1//EN" "http://www.w3.org/Graphics/SVG/1.1/DTD/svg11.dtd"><svg width="100%" height="100%" viewBox="0 0 800 1280" version="1.1" xmlns="http://www.w3.org/2000/svg" xmlns:xlink="http://www.w3.org/1999/xlink" xml:space="preserve" xmlns:serif="http://www.serif.com/" style="fill-rule:evenodd;clip-rule:evenodd;stroke-linejoin:round;stroke-miterlimit:2;"><path d="M13.891,5.879c-0.785,-0.599 -1.292,-1.543 -1.292,-2.605c0,-1.807 1.467,-3.274 3.274,-3.274c1.807,0 3.274,1.467 3.274,3.274c0,1.806 -1.467,3.273 -3.274,3.273c-0.067,0 -0.134,-0.002 -0.201,-0.006l-2.418,6.507c0.287,0.218 0.536,0.483 0.738,0.783l7.116,-2.17l0,-0.005c0,-1.807 1.467,-3.274 3.274,-3.274c1.806,0 3.273,1.467 3.273,3.274c0,1.807 -1.467,3.274 -3.273,3.274c-1.133,0 -2.132,-0.577 -2.72,-1.452l-7.116,2.17l0,0.005c0,0.468 -0.099,0.914 -0.276,1.317l3.295,2.824c0.509,-0.325 1.113,-0.514 1.761,-0.514c1.806,0 3.273,1.467 3.273,3.274c0,1.807 -1.467,3.274 -3.273,3.274c-1.807,0 -3.274,-1.467 -3.274,-3.274c0,-0.469 0.099,-0.914 0.276,-1.317l-3.295,-2.824c-0.509,0.325 -1.113,0.514 -1.761,0.514c-0.691,0 -1.332,-0.215 -1.861,-0.581l-3.093,2.457c0.148,0.373 0.229,0.78 0.229,1.206c0,1.806 -1.467,3.273 -3.273,3.273c-1.807,0 -3.274,-1.467 -3.274,-3.273c0,-1.604 1.155,-2.94 2.678,-3.22l1.091,-9.734c-1.164,-0.501 -1.98,-1.66 -1.98,-3.008c0,-1.806 1.467,-3.273 3.274,-3.273c1.806,0 3.273,1.467 3.273,3.273c0,1.604 -1.155,2.94 -2.678,3.22l-1.091,9.734c0.2,0.086 0.391,0.192 0.568,0.315l3.093,-2.458c-0.148,-0.373 -0.229,-0.78 -0.229,-1.205c0,-1.807 1.467,-3.274 3.273,-3.274c0.068,0 0.135,0.002 0.201,0.006l2.418,-6.506Zm5.46,14.652c1.142,0 2.069,0.927 2.069,2.069c0,1.142 -0.927,2.069 -2.069,2.069c-1.142,0 -2.069,-0.927 -2.069,-2.069c0,-1.142 0.927,-2.069 2.069,-2.069Zm-16.118,-0.557c1.142,0 2.069,0.927 2.069,2.069c0,1.142 -0.927,2.069 -2.069,2.069c-1.142,0 -2.069,-0.927 -2.069,-2.069c0,-1.142 0.927,-2.069 2.069,-2.069Zm21.137,-10.368c1.142,0 2.069,0.927 2.069,2.069c0,1.142 -0.927,2.069 -2.069,2.069c-1.142,0 -2.069,-0.927 -2.069,-2.069c0,-1.142 0.927,-2.069 2.069,-2.069Zm-19.35,-5.6c1.142,0 2.069,0.927 2.069,2.069c0,1.142 -0.927,2.069 -2.069,2.069c-1.141,0 -2.069,-0.927 -2.069,-2.069c0,-1.142 0.928,-2.069 2.069,-2.069Zm10.834,-2.805c1.142,0 2.069,0.928 2.069,2.07c0,1.141 -0.927,2.069 -2.069,2.069c-1.142,0 -2.069,-0.928 -2.069,-2.069c0,-1.142 0.927,-2.07 2.069,-2.07Z" style="fill:#5f5f5f;"/></svg>