<?xml version="1.0" encoding="UTF-8" standalone="no"?>
<!DOCTYPE svg PUBLIC "-//W3C//DTD SVG 1.1//EN" "http://www.w3.org/Graphics/SVG/1.1/DTD/svg11.dtd">
<svg width="100%" height="100%" viewBox="0 0 1613 1224" version="1.1" xmlns="http://www.w3.org/2000/svg" xmlns:xlink="http://www.w3.org/1999/xlink" xml:space="preserve" xmlns:serif="http://www.serif.com/" style="fill-rule:evenodd;clip-rule:evenodd;stroke-linecap:round;stroke-linejoin:round;stroke-miterlimit:1.5;">
    <g transform="matrix(1,0,0,1,-31080,-24479)">
        <g id="Artboard1" transform="matrix(20.4718,0,0,18.5702,29333.6,1346.86)">
            <rect x="-43.649" y="-48.726" width="1430.07" height="1768.11" style="fill:none;"/>
            <g id="Cells" transform="matrix(0.654788,0,0,0.464723,-15.068,-26.4387)">
                <g transform="matrix(0.0805068,0,0,0.125048,-664.923,2105.67)">
                    <rect x="10001.1" y="4412.99" width="1815.12" height="2123.71" style="fill:none;stroke:black;stroke-width:21.31px;"/>
                </g>
            </g>
            <g id="Labels">
            </g>
            <g id="Layer-1" serif:id="Layer 1">
            </g>
            <g transform="matrix(0.0488477,0,0,0.0538496,-1431.09,-74.8848)">
                <path d="M31850.6,24801.6C31813.4,24773.3 31789.4,24728.5 31789.4,24678.2C31789.4,24592.6 31858.9,24523.2 31944.5,24523.2C32030.1,24523.2 32099.5,24592.6 32099.5,24678.2C32099.5,24763.8 32030.1,24833.3 31944.5,24833.3C31941.3,24833.3 31938.1,24833.2 31935,24833L31820.4,25141.1C31834,25151.5 31845.8,25164 31855.4,25178.2L32192.4,25075.4L32192.4,25075.2C32192.4,24989.6 32261.9,24920.2 32347.5,24920.2C32433,24920.2 32502.5,24989.6 32502.5,25075.2C32502.5,25160.8 32433,25230.3 32347.5,25230.3C32293.8,25230.3 32246.5,25203 32218.7,25161.5L31881.6,25264.3L31881.6,25264.5C31881.6,25286.7 31877,25307.8 31868.5,25326.9L32024.6,25460.7C32048.7,25445.3 32077.3,25436.3 32108,25436.3C32193.6,25436.3 32263,25505.8 32263,25591.4C32263,25676.9 32193.6,25746.4 32108,25746.4C32022.4,25746.4 31953,25676.9 31953,25591.4C31953,25569.2 31957.6,25548.1 31966,25529L31810,25395.2C31785.9,25410.6 31757.3,25419.6 31726.6,25419.6C31693.8,25419.6 31663.5,25409.4 31638.4,25392L31491.9,25508.5C31498.9,25526.1 31502.8,25545.4 31502.8,25565.5C31502.8,25651.1 31433.3,25720.6 31347.7,25720.6C31262.2,25720.6 31192.7,25651.1 31192.7,25565.5C31192.7,25489.6 31247.4,25426.3 31319.6,25413.1L31371.2,24952C31316.1,24928.3 31277.4,24873.4 31277.4,24809.6C31277.4,24724 31346.9,24654.5 31432.5,24654.5C31518,24654.5 31587.5,24724 31587.5,24809.6C31587.5,24885.5 31532.8,24948.8 31460.7,24962.1L31409,25423.1C31418.5,25427.2 31427.5,25432.2 31435.9,25438L31582.4,25321.6C31575.4,25303.9 31571.5,25284.7 31571.5,25264.5C31571.5,25178.9 31641,25109.5 31726.6,25109.5C31729.8,25109.5 31732.9,25109.6 31736.1,25109.8L31850.6,24801.6ZM32109.2,25495.5C32163.3,25495.5 32207.2,25539.4 32207.2,25593.5C32207.2,25647.6 32163.3,25691.5 32109.2,25691.5C32055.1,25691.5 32011.2,25647.6 32011.2,25593.5C32011.2,25539.4 32055.1,25495.5 32109.2,25495.5ZM31345.8,25469.2C31399.9,25469.2 31443.8,25513.1 31443.8,25567.2C31443.8,25621.3 31399.9,25665.2 31345.8,25665.2C31291.7,25665.2 31247.8,25621.3 31247.8,25567.2C31247.8,25513.1 31291.7,25469.2 31345.8,25469.2ZM32346.9,24978.1C32401,24978.1 32444.9,25022 32444.9,25076.1C32444.9,25130.2 32401,25174.1 32346.9,25174.1C32292.8,25174.1 32248.9,25130.2 32248.9,25076.1C32248.9,25022 32292.8,24978.1 32346.9,24978.1ZM31430.5,24712.9C31484.6,24712.9 31528.5,24756.8 31528.5,24810.9C31528.5,24865 31484.6,24908.9 31430.5,24908.9C31376.4,24908.9 31332.5,24865 31332.5,24810.9C31332.5,24756.8 31376.4,24712.9 31430.5,24712.9ZM31943.6,24580.1C31997.6,24580.1 32041.6,24624 32041.6,24678.1C32041.6,24732.1 31997.6,24776.1 31943.6,24776.1C31889.5,24776.1 31845.6,24732.1 31845.6,24678.1C31845.6,24624 31889.5,24580.1 31943.6,24580.1Z" style="fill:white;"/>
            </g>
        </g>
    </g>
</svg>
