<?xml version="1.0" encoding="UTF-8" standalone="no"?>
<!DOCTYPE svg PUBLIC "-//W3C//DTD SVG 1.1//EN" "http://www.w3.org/Graphics/SVG/1.1/DTD/svg11.dtd">
<svg width="100%" height="100%" viewBox="0 0 5488 5155" version="1.1" xmlns="http://www.w3.org/2000/svg" xmlns:xlink="http://www.w3.org/1999/xlink" xml:space="preserve" xmlns:serif="http://www.serif.com/" style="fill-rule:evenodd;clip-rule:evenodd;stroke-linejoin:round;stroke-miterlimit:2;">
    <g id="Artboard3" transform="matrix(1,0,0,0.939302,1817.95,10218)">
        <rect x="-1817.95" y="-10878.3" width="5487.11" height="5487.11" style="fill:none;"/>
        <clipPath id="_clip1">
            <rect x="-1817.95" y="-10878.3" width="5487.11" height="5487.11"/>
        </clipPath>
        <g clip-path="url(#_clip1)">
            <g transform="matrix(2.39954,0,0,2.5546,-14110.6,-22895.2)">
                <path d="M5254.61,6851.89C5181.48,6849.27 5122.91,6789.06 5122.91,6715.29C5122.91,6698.87 5125.81,6683.13 5131.13,6668.55L5130.58,6668.55L5243.24,6212.24C5233.57,6145.43 5205.26,6101.07 5218.62,6056.79C5231.6,6013.79 5271.22,5999.05 5304.88,5962.59L5334.81,5841.38C5336.64,5746.4 5290.83,5692.23 5307.15,5638.16C5323.16,5585.14 5379.67,5575.09 5415.57,5514.29L5454.39,5357.05C5450.88,5272.72 5411.64,5221.97 5426.93,5171.31C5441.88,5121.77 5492.21,5109.75 5528.03,5058.78L5580.21,4847.41C5598.28,4774.24 5663.93,4722.83 5739.29,4722.83L7044.2,4722.83C7103.26,4722.83 7159.04,4749.99 7195.46,4796.48C7231.89,4842.96 7244.92,4903.62 7230.8,4960.96C7131.86,5362.7 6934.66,6163.42 6853.65,6492.33C6832.51,6578.2 6755.49,6638.55 6667.06,6638.55L5284.84,6638.55C5260.94,6638.55 5239.85,6650.65 5227.35,6669.06L5226.8,6669.87L5226.12,6670.93L5225.46,6671.99L5224.82,6673.07L5224.27,6674.03L5223.65,6675.15L5223.06,6676.29L5222.48,6677.43L5222.05,6678.31L5221.7,6679.07L5221.15,6680.3L5220.64,6681.49L5220.16,6682.69L5219.7,6683.9L5219.26,6685.13L5218.74,6686.67L5218.35,6687.91L5217.98,6689.17L5217.64,6690.44L5217.32,6691.71L5216.96,6693.32L5216.69,6694.61L5216.45,6695.91L5216.34,6696.56L5216.18,6697.55L5215.99,6698.88L5215.83,6700.2L5215.7,6701.54L5215.64,6702.21L5215.56,6703.22L5215.48,6704.58L5215.43,6705.94L5215.4,6707.3L5215.4,6707.99C5215.4,6746.31 5246.52,6777.43 5284.84,6777.43L5381.36,6777.43C5381.27,6777.61 5381.18,6777.79 5381.09,6777.97L5410.37,6777.43L6759.06,6777.43C6847.45,6777.43 6924.45,6717.13 6945.63,6631.32C7027.98,6297.78 7230.45,5477.74 7331.13,5069.95C7342.74,5022.93 7336.09,4973.68 7313.25,4931.83C7334.42,4944 7353.34,4960.24 7368.78,4979.95C7405.2,5026.46 7418.21,5087.14 7404.05,5144.5C7303.36,5552.29 7100.9,6372.33 7018.55,6705.87C6997.36,6791.68 6920.37,6851.98 6831.98,6851.98L5254.6,6851.98L5254.61,6851.89ZM6781.18,5229.85C6783.94,5213.32 6766.06,5196.11 6747.44,5196.11L5826.01,5196.11C5807.39,5196.11 5796.73,5207.11 5792.27,5229.85L5766.64,5324.2C5761.62,5342.42 5781.76,5357.95 5800.39,5357.95L6721.49,5357.95C6740.12,5357.95 6750.27,5344.1 6755.55,5324.2L6781.18,5229.85ZM6859.63,4997.76C6862.39,4981.24 6844.51,4964.02 6825.88,4964.02L5904.46,4964.02C5885.84,4964.02 5875.18,4975.02 5870.72,4997.76L5845.09,5092.11C5840.06,5110.33 5860.21,5125.86 5878.83,5125.86L6799.94,5125.86C6818.56,5125.86 6828.71,5112.02 6834,5092.11L6859.63,4997.76Z" style="fill:white;"/>
            </g>
        </g>
    </g>
</svg>
