<svg xmlns="http://www.w3.org/2000/svg" width="20" height="20" viewBox="0 0 20 20">
	<g>
		<g clip-path="url(#clip-5F65D77B-CD7E-C65D-CEBF-72F293ACA41B)">
			<path d="M8.454 8.463l3.055 3.06-5.394 2.343zm-.49-.52l-.004.01-.01.005.005.006-3.103 7.155 7.156-3.103.007.007.004-.011.011-.005 3.113-7.177zm2.084-5.858c1.279.01 2.55.331 3.656.92a7.912 7.912 0 0 1 1.955 1.466 7.96 7.96 0 0 1 1.938 3.305l.005.014a7.089 7.089 0 0 1 .08.297 7.554 7.554 0 0 1 .142.708 8.017 8.017 0 0 1-.035 2.628 7.957 7.957 0 0 1-.738 2.184 7.932 7.932 0 0 1-1.905 2.415 8.003 8.003 0 0 1-2.739 1.532 7.892 7.892 0 0 1-2.217.371 7.903 7.903 0 0 1-2.278-.275 7.989 7.989 0 0 1-2.318-1.061 8.003 8.003 0 0 1-2.536-2.767 7.603 7.603 0 0 1-.63-1.484l-.017-.056a8.07 8.07 0 0 1-.214-.908A8.088 8.088 0 0 1 2.08 9.98v-.036a7.959 7.959 0 0 1 .495-2.7 7.96 7.96 0 0 1 4.377-4.55 8.043 8.043 0 0 1 1.644-.485 7.975 7.975 0 0 1 1.452-.123zM9.949 0A10.006 10.006 0 0 0 5.91.872 10.146 10.146 0 0 0 .53 6.766a10.092 10.092 0 0 0 .452 7.57 10.139 10.139 0 0 0 5.194 4.909c2.12.878 4.522.992 6.707.334 2.66-.801 4.944-2.764 6.144-5.271a10.06 10.06 0 0 0 .93-5.25c-.281-2.995-1.972-5.762-4.443-7.4A10.066 10.066 0 0 0 9.949 0z"></path>
		</g>
	</g>
</svg>