<svg xmlns="http://www.w3.org/2000/svg" width="16" height="18" viewBox="0 0 16 18">
	<g>
		<g clip-path="url(#clip-9DF4AA07-63CC-4209-B40A-22C39B9CC3BC)">
			<path d="M8.002 0L.235 6.907c-.023.023-.047.045-.068.07a.749.749 0 0 0-.067.845.675.675 0 0 0 .845.271c.029-.013.056-.031.085-.047l.077-.06 6.895-6.131 6.894 6.131c.026.02.05.042.078.06.219.144.514.14.729-.009.308-.212.384-.673.192-.98a.936.936 0 0 0-.127-.15L8.002 0zM5.42 11.567c0-.437.338-.793.756-.793h3.652c.417 0 .755.356.755.793V18h2.943c.997 0 1.806-.72 1.806-1.606V9.768l-7.33-6.576-7.33 6.576v6.626C.671 17.28 1.48 18 2.476 18H5.42z"></path>
		</g>
	</g>
</svg>