<svg xmlns="http://www.w3.org/2000/svg" width="68" height="68" viewBox="0 0 68 68"><path fill="#fff" d="M29.24 28L40 38.76 21 47zm-2.653-1.413l-.017.037-.037.016.021.021L16 51l24.339-10.554.021.02.016-.036.037-.017C43.943 32.276 47.471 24.138 51 16zM34.169 7c4.362.037 8.697 1.131 12.47 3.14a26.978 26.978 0 0 1 4.015 2.615 26.681 26.681 0 0 1 2.65 2.379 27.13 27.13 0 0 1 5.029 7.161c.401.84.767 1.71 1.088 2.593.183.506.343 1.004.492 1.512l.014.048a24.255 24.255 0 0 1 .378 1.447 27.316 27.316 0 0 1 .263 10.934 27.113 27.113 0 0 1-1.147 4.283 27.462 27.462 0 0 1-1.372 3.163 27.008 27.008 0 0 1-2.174 3.542 27.043 27.043 0 0 1-4.32 4.687c-.543.47-1.116.92-1.705 1.348a27.292 27.292 0 0 1-7.633 3.873 26.917 26.917 0 0 1-7.563 1.267 26.955 26.955 0 0 1-7.767-.94 27.245 27.245 0 0 1-7.902-3.615 27.29 27.29 0 0 1-4.498-3.785 25.861 25.861 0 0 1-2.308-2.757 28.844 28.844 0 0 1-1.842-2.89 25.91 25.91 0 0 1-1.46-3.1 27.959 27.959 0 0 1-.688-1.958 27.495 27.495 0 0 1-.788-3.284A27.557 27.557 0 0 1 7 33.91v-.125a27.113 27.113 0 0 1 .643-5.672 26.161 26.161 0 0 1 1.045-3.529 28.146 28.146 0 0 1 1.306-2.946 27.128 27.128 0 0 1 4.913-6.719 27.923 27.923 0 0 1 2.7-2.367 26.969 26.969 0 0 1 6.006-3.48 27.43 27.43 0 0 1 5.607-1.65A27.201 27.201 0 0 1 33.954 7h.215zm-.342-7a34.02 34.02 0 0 0-13.732 2.963c-8.514 3.82-15.288 11.263-18.292 20.04-2.867 8.378-2.286 17.814 1.534 25.736 3.594 7.451 10.008 13.524 17.66 16.693 7.21 2.986 15.376 3.372 22.804 1.136 9.048-2.724 16.81-9.396 20.89-17.922 2.635-5.508 3.733-11.751 3.162-17.85-.955-10.183-6.705-19.59-15.107-25.156C47.251 1.998 40.661.016 34.046 0h-.22z"/></svg>