<svg xmlns="http://www.w3.org/2000/svg" width="71" height="71" viewBox="0 0 71 71"><g clip-path="url(#clip-B550B86D-9FF5-4A1F-AA32-DC5B718F41B5)"><path fill="#fff" d="M37.24 2.795c1.581.752 2.512 2.537 2.287 4.22-.23 1.727-1.624 3.148-3.282 3.456-1.686.312-3.44-.534-4.268-1.975a4.13 4.13 0 0 1-.137-3.787c.659-1.369 2.134-2.297 3.648-2.304a4.069 4.069 0 0 1 1.751.39zM8.211 31.83c1.584.75 2.515 2.534 2.29 4.214-.23 1.725-1.626 3.144-3.286 3.452-1.688.312-3.443-.533-4.273-1.973a4.115 4.115 0 0 1-.138-3.782c.66-1.367 2.138-2.294 3.653-2.301a4.081 4.081 0 0 1 1.754.39zm58.062 0c1.582.75 2.512 2.534 2.288 4.214-.231 1.725-1.624 3.144-3.283 3.452-1.685.312-3.439-.533-4.267-1.973a4.12 4.12 0 0 1-.138-3.782c.66-1.367 2.135-2.294 3.648-2.301a4.07 4.07 0 0 1 1.752.39zm-30.746-4.45c3.017.015 5.873 1.805 7.217 4.447 1.372 2.698 1.07 6.04-.664 8.433-1.514 2.088-4.033 3.361-6.58 3.361-2.575 0-5.082-1.298-6.578-3.361-1.521-2.098-1.942-4.92-1.115-7.362 1.1-3.248 4.312-5.502 7.668-5.518h.052zm1.712 33.483c1.582.751 2.513 2.534 2.288 4.214-.23 1.725-1.624 3.145-3.282 3.452-1.686.312-3.44-.533-4.268-1.973a4.12 4.12 0 0 1-.137-3.781c.659-1.368 2.134-2.295 3.648-2.302a4.072 4.072 0 0 1 1.751.39zm20.91-24.35c.393 2.466 2.273 4.542 4.617 5.209 2.578.732 5.398-.276 6.95-2.351.084-.113.18-.252.18-.252a6.57 6.57 0 0 0 1-2.437c-.002 0 .031-.186.05-.323a6.778 6.778 0 0 0-.004-1.738s-.01-.08-.02-.143l-.036-.199a6.484 6.484 0 0 0-.276-1 6.506 6.506 0 0 0-4.853-4.129c-.09-.017-.217-.038-.217-.038a6.532 6.532 0 0 0-1.045-.078 6.511 6.511 0 0 0-3.64 1.15 6.565 6.565 0 0 0-2.632 3.924H45.93a10.753 10.753 0 0 0-2.277-5.249l10.361-10.362a4.067 4.067 0 0 0 4.89-.654 4.065 4.065 0 0 0 0-5.745 4.065 4.065 0 0 0-5.745 0 4.066 4.066 0 0 0-.786 4.64L41.937 27.174a10.582 10.582 0 0 0-5.234-2.127v-12.23c.477-.089.944-.23 1.389-.425a6.567 6.567 0 0 0 3.63-4.156 8.19 8.19 0 0 0 .202-1.014l.022-.228a6.625 6.625 0 0 0-.11-1.828c-.03-.15-.082-.351-.082-.351a6.452 6.452 0 0 0-.767-1.772C39.823 1.183 37.707.017 35.541 0a6.524 6.524 0 0 0-2.187.366c-2.136.751-3.781 2.674-4.204 4.879-.017.09-.038.217-.038.217a6.219 6.219 0 0 0-.068.651c-.012.218-.004.627-.004.627.01.265.038.528.081.789.327 1.97 1.625 3.755 3.4 4.678a6.41 6.41 0 0 0 1.777.607v12.234a10.657 10.657 0 0 0-5.684 2.496L18.328 17.258a4.066 4.066 0 0 0-.485-5.16 4.065 4.065 0 0 0-5.745 0 4.064 4.064 0 0 0 0 5.745 4.065 4.065 0 0 0 4.333.919l10.554 10.554a10.468 10.468 0 0 0-.721 1.138 10.474 10.474 0 0 0-1.197 3.654H12.782a6.45 6.45 0 0 0-.577-1.589 6.527 6.527 0 0 0-4.517-3.369c-.09-.017-.217-.038-.217-.038a6.533 6.533 0 0 0-3.23.316c-2.355.865-4.003 3.13-4.214 5.478-.05.55-.031 1.11.06 1.657a6.462 6.462 0 0 0 .485 1.599 6.487 6.487 0 0 0 .907 1.454c1.39 1.683 3.626 2.563 5.764 2.305a6.548 6.548 0 0 0 4.403-2.55c.085-.113.18-.252.18-.252.142-.21.287-.466.287-.466a6.459 6.459 0 0 0 .74-2.13v-.01h12.172c.08.828.26 1.646.526 2.425l.02.058a10.528 10.528 0 0 0 1.605 2.94L16.738 52.372a4.066 4.066 0 0 0-4.64.786 4.064 4.064 0 0 0 0 5.744 4.064 4.064 0 0 0 5.745 0 4.066 4.066 0 0 0 .654-4.889L28.853 43.66c.147.12.298.237.453.35a10.64 10.64 0 0 0 4.992 1.944v12.23c-.252.049-.449.1-.449.1a6.418 6.418 0 0 0-1.363.53c-.148.079-.306.173-.306.173a6.476 6.476 0 0 0-1.815 1.62s-.133.177-.224.31c-.083.124-.19.299-.19.299a6.466 6.466 0 0 0-.626 1.4l-.023.077a6.495 6.495 0 0 0-.12.463c-.038.175-.07.376-.07.376a6.283 6.283 0 0 0-.072 1.277 6.49 6.49 0 0 0 .275 1.613l.035.113.026.078s.06.17.108.294l.06.148c.164.385.408.801.408.801a6.51 6.51 0 0 0 2.96 2.606c.222.097.48.188.48.188.13.045.188.062.188.062a6.468 6.468 0 0 0 1.532.279c.307.018.662.006.662.006a6.482 6.482 0 0 0 1.615-.275l.223-.073a6.422 6.422 0 0 0 1.507-.754 6.513 6.513 0 0 0 .956-.79c.203-.203.413-.453.413-.453a6.453 6.453 0 0 0 1.028-1.74c.125-.315.238-.724.238-.724.11-.414.17-.897.17-.897l.022-.228a6.55 6.55 0 0 0-.183-2.144l-.02-.074a6.458 6.458 0 0 0-.432-1.147c-.11-.229-.261-.482-.261-.482a6.513 6.513 0 0 0-2.229-2.23 6.574 6.574 0 0 0-1.477-.65l-.191-.053a6.496 6.496 0 0 0-.45-.102V45.957a10.677 10.677 0 0 0 4.976-1.948L52.24 54.571a4.065 4.065 0 0 0 .92 4.332 4.064 4.064 0 0 0 5.744 0 4.064 4.064 0 0 0 0-5.744 4.066 4.066 0 0 0-5.16-.485L43.457 42.387a10.837 10.837 0 0 0 1.873-3.118l.022-.058a10.57 10.57 0 0 0 .625-2.698z"/></g></svg>