<svg xmlns="http://www.w3.org/2000/svg" width="69" height="60" viewBox="0 0 69 60"><g clip-path="url(#clip-80B0D561-C595-49A5-9239-D12ED1BF2096)"><path fill="#fff" d="M65.862 5.653c0-.972-.066-1.77-.199-2.394-.132-.624-.452-.936-.96-.936-.345 0-.603.175-.775.523-.172.35-.278.751-.318 1.206-.04.454-.06.988-.06 1.601 0 1.042.066 1.852.195 2.43.13.58.45.869.958.869.513 0 .835-.29.964-.868.13-.58.195-1.39.195-2.43zm-19.335 0c0-.972-.066-1.77-.199-2.394-.132-.624-.453-.936-.961-.936-.344 0-.602.175-.774.523a3.34 3.34 0 0 0-.318 1.206 18.7 18.7 0 0 0-.06 1.601c0 1.042.065 1.852.195 2.43.13.58.449.869.957.869.514 0 .835-.29.965-.868.13-.58.195-1.39.195-2.43zm-19.336 0c0-.972-.066-1.77-.198-2.394-.133-.624-.453-.936-.961-.936-.345 0-.603.175-.775.523-.172.35-.278.751-.318 1.206a18.7 18.7 0 0 0-.06 1.601c0 1.042.066 1.852.195 2.43.13.58.45.869.958.869.513 0 .835-.29.965-.868.13-.58.194-1.39.194-2.43zm29.345 5.487h-3.01V.15h3.01zm-19.335 0H34.19V.15h3.01zm-19.326 0h-3.02V.15h3.02zM69 5.653c0 .952-.114 1.787-.341 2.506-.228.719-.542 1.307-.942 1.764-.4.457-.856.798-1.37 1.023a4.056 4.056 0 0 1-1.644.337 4.04 4.04 0 0 1-1.637-.337A3.82 3.82 0 0 1 61.7 9.92c-.397-.46-.71-1.046-.941-1.76-.23-.714-.345-1.549-.345-2.506 0-.962.115-1.8.345-2.513.23-.714.543-1.303.937-1.769.395-.465.85-.81 1.367-1.034A4.066 4.066 0 0 1 64.702 0c.583 0 1.13.11 1.64.333a3.8 3.8 0 0 1 1.371 1.034c.403.468.718 1.062.946 1.78.227.72.341 1.555.341 2.506zm-19.345 0c0 .952-.114 1.787-.342 2.506-.227.719-.54 1.307-.94 1.764-.4.457-.855.798-1.368 1.023a4.05 4.05 0 0 1-1.643.337 4.03 4.03 0 0 1-1.634-.337 3.816 3.816 0 0 1-1.365-1.027c-.397-.46-.71-1.046-.94-1.76-.23-.714-.346-1.549-.346-2.506 0-.962.115-1.8.346-2.513.23-.714.542-1.303.936-1.769.394-.465.849-.81 1.365-1.034A4.06 4.06 0 0 1 45.362 0c.582 0 1.128.11 1.639.333.51.222.966.567 1.368 1.034.402.468.717 1.062.944 1.78.228.72.342 1.555.342 2.506zm-19.326 0c0 .952-.114 1.787-.341 2.506-.228.719-.542 1.307-.942 1.764-.4.457-.856.798-1.37 1.023a4.06 4.06 0 0 1-1.644.337 4.04 4.04 0 0 1-1.637-.337A3.82 3.82 0 0 1 23.03 9.92c-.397-.46-.711-1.046-.941-1.76-.23-.714-.346-1.549-.346-2.506 0-.962.115-1.8.346-2.513.23-.714.542-1.303.937-1.769A3.73 3.73 0 0 1 24.392.338 4.068 4.068 0 0 1 26.031 0c.583 0 1.13.11 1.641.333.511.222.968.567 1.37 1.034.403.468.718 1.062.946 1.78.227.72.341 1.555.341 2.506zm25.865 16.24c0-.973-.066-1.772-.198-2.395-.132-.624-.453-.936-.961-.936-.345 0-.603.174-.775.523-.172.35-.278.751-.318 1.206a18.7 18.7 0 0 0-.06 1.601c0 1.042.066 1.852.195 2.43.13.58.45.869.958.869.513 0 .835-.29.965-.868.13-.58.195-1.39.195-2.43zm-19.335 0c0-.973-.066-1.772-.198-2.395-.133-.624-.453-.936-.962-.936-.344 0-.602.174-.774.523-.172.35-.278.751-.318 1.206a18.7 18.7 0 0 0-.06 1.601c0 1.042.065 1.852.195 2.43.13.58.449.869.957.869.514 0 .836-.29.966-.868.13-.58.194-1.39.194-2.43zm29.345 5.486h-3.01V16.39h3.01zm-19.336 0h-3.01V16.39h3.01zm12.455-5.487c0 .952-.115 1.787-.342 2.506-.227.719-.54 1.307-.94 1.764-.4.457-.856.798-1.369 1.023a4.05 4.05 0 0 1-1.642.337 4.03 4.03 0 0 1-1.635-.337 3.816 3.816 0 0 1-1.365-1.027c-.396-.46-.71-1.046-.94-1.76-.23-.714-.345-1.549-.345-2.506 0-.962.115-1.8.345-2.513.23-.714.542-1.303.936-1.768.395-.466.85-.81 1.365-1.035a4.058 4.058 0 0 1 1.639-.337c.582 0 1.128.11 1.638.333.51.222.967.567 1.369 1.035.402.467.717 1.06.944 1.78.227.719.342 1.554.342 2.505zm-19.326 0c0 .952-.114 1.787-.342 2.506-.227.719-.541 1.307-.941 1.764a3.89 3.89 0 0 1-1.37 1.023 4.059 4.059 0 0 1-1.645.337 4.04 4.04 0 0 1-1.636-.337 3.82 3.82 0 0 1-1.366-1.027c-.398-.46-.711-1.046-.942-1.76-.23-.714-.345-1.549-.345-2.506 0-.962.115-1.8.345-2.513.23-.714.543-1.303.938-1.768a3.74 3.74 0 0 1 1.366-1.035 4.066 4.066 0 0 1 1.64-.337c.583 0 1.13.11 1.64.333.512.222.969.567 1.371 1.035.403.467.718 1.06.945 1.78.228.719.342 1.554.342 2.505zm-19.62-2.377l-4.541-4.537 2.604-2.602 8.986 8.979-8.986 8.978-2.604-2.601 4.542-4.538H0v-3.679zm45.485 18.616c0-.972-.066-1.77-.199-2.394-.132-.624-.452-.936-.96-.936-.345 0-.603.174-.775.523-.172.35-.278.751-.318 1.206-.04.454-.06.988-.06 1.601 0 1.042.066 1.852.195 2.43.13.58.45.869.958.869.513 0 .835-.29.964-.868.13-.58.195-1.39.195-2.43zm3.138 0c0 .952-.114 1.787-.341 2.506-.228.719-.542 1.307-.942 1.764-.4.457-.856.798-1.37 1.023a4.056 4.056 0 0 1-1.644.337 4.038 4.038 0 0 1-1.637-.337 3.821 3.821 0 0 1-1.367-1.027c-.397-.46-.71-1.046-.941-1.76-.23-.714-.345-1.549-.345-2.506 0-.962.115-1.8.345-2.513.23-.714.543-1.303.937-1.768.395-.466.85-.81 1.367-1.035a4.066 4.066 0 0 1 1.64-.337c.583 0 1.13.11 1.64.333.512.222.969.567 1.371 1.035.403.467.718 1.06.946 1.78.227.719.341 1.554.341 2.505zm-18.326-1.785l-4.602-4.6 2.604-2.603 8.987 8.984-8.987 8.983-2.604-2.603 4.482-4.48H0v-3.68zm5.52 18.024c0-.972-.066-1.77-.198-2.394-.132-.624-.453-.936-.961-.936-.345 0-.603.174-.775.523-.172.35-.278.751-.318 1.206-.04.454-.06.988-.06 1.601 0 1.042.066 1.852.195 2.43.13.58.45.869.958.869.513 0 .835-.29.965-.868.13-.58.195-1.39.195-2.43zm-19.335 0c0-.972-.066-1.77-.198-2.394-.133-.624-.453-.936-.962-.936-.344 0-.602.174-.774.523-.172.35-.278.751-.318 1.206-.04.454-.06.988-.06 1.601 0 1.042.065 1.852.195 2.43.13.58.449.869.957.869.514 0 .836-.29.966-.868.13-.58.194-1.39.194-2.43zm-19.335 0c0-.972-.066-1.77-.199-2.394-.132-.624-.453-.936-.961-.936-.344 0-.602.174-.775.523a3.36 3.36 0 0 0-.317 1.206c-.04.454-.06.988-.06 1.601 0 1.042.065 1.852.195 2.43.13.58.449.869.957.869.514 0 .835-.29.965-.868.13-.58.195-1.39.195-2.43zm48.68 5.487h-3.01v-10.99h3.01zm-19.336 0h-3.01v-10.99h3.01zm-19.335 0h-3.01v-10.99h3.01zm31.79-5.487c0 .952-.115 1.787-.342 2.506-.227.719-.54 1.307-.94 1.764-.4.457-.856.798-1.369 1.023A4.05 4.05 0 0 1 55.03 60a4.03 4.03 0 0 1-1.635-.337 3.816 3.816 0 0 1-1.365-1.027c-.396-.46-.71-1.046-.94-1.76-.23-.714-.345-1.549-.345-2.506 0-.962.115-1.8.345-2.513.23-.714.542-1.303.936-1.768.395-.466.85-.81 1.365-1.035a4.059 4.059 0 0 1 1.639-.337c.582 0 1.128.11 1.638.333.51.222.967.567 1.369 1.035.402.467.717 1.06.944 1.78.227.719.342 1.554.342 2.505zm-19.326 0c0 .952-.114 1.787-.342 2.506-.227.719-.541 1.307-.941 1.764a3.89 3.89 0 0 1-1.37 1.023 4.059 4.059 0 0 1-1.645.337 4.04 4.04 0 0 1-1.636-.337 3.82 3.82 0 0 1-1.366-1.027c-.398-.46-.711-1.046-.942-1.76-.23-.714-.345-1.549-.345-2.506 0-.962.115-1.8.345-2.513.23-.714.543-1.303.938-1.768a3.74 3.74 0 0 1 1.366-1.035 4.067 4.067 0 0 1 1.64-.337c.583 0 1.13.11 1.64.333.512.222.969.567 1.371 1.035.403.467.718 1.06.945 1.78.228.719.342 1.554.342 2.505zm-19.335 0c0 .952-.114 1.787-.342 2.506-.228.719-.542 1.307-.941 1.764a3.89 3.89 0 0 1-1.37 1.023 4.059 4.059 0 0 1-1.645.337 4.04 4.04 0 0 1-1.636-.337 3.82 3.82 0 0 1-1.367-1.027c-.397-.46-.71-1.046-.941-1.76-.23-.714-.346-1.549-.346-2.506 0-.962.115-1.8.346-2.513.23-.714.543-1.303.937-1.768a3.74 3.74 0 0 1 1.367-1.035 4.067 4.067 0 0 1 1.64-.337c.583 0 1.13.11 1.64.333.511.222.968.567 1.37 1.035.403.467.718 1.06.946 1.78.228.719.342 1.554.342 2.505z"/></g></svg>