<svg xmlns="http://www.w3.org/2000/svg" width="62" height="62" viewBox="0 0 62 62"><g clip-path="url(#clip-FF1D9812-073A-469B-A2B4-D30B71D6D0C3)"><path fill="#fff" d="M53.058 0H35.175v23.028h-8.941l17.883 18.164L62 23.028h-8.942zM38.552 46.504c.196.054.394.107.59.163-1.603.575-3.312.852-5.004 1.107-4.953.746-9.99.907-15.01.761-3.605-.104-7.217-.367-10.771-1.033-1.153-.216-2.305-.454-3.399-.84 1.165-.356 2.367-.596 3.564-.812.266-.048.833-.133.833-.133 4.5.7 9.072.923 13.622.882 3.974-.036 7.941-.268 11.854-.891a37.46 37.46 0 0 1 3.721.796zm3.081 10.074c-.684.452-1.474.717-2.257.963-2.453.769-5.012 1.153-7.564 1.441-6.119.691-12.292.71-18.405.117-2.97-.289-5.957-.683-8.806-1.6-.74-.239-1.48-.49-2.13-.924l.006-8.864c.06-.04.122-.078.185-.115.674.421 1.449.687 2.217.924 1.955.604 3.993.942 6.035 1.207 5.36.695 10.719.8 16.05.539 3.736-.183 7.52-.513 11.168-1.438 1.124-.286 2.247-.608 3.241-1.19.025-.014.203.035.266.076zm-19.65-45.073h-.337a92.457 92.457 0 0 0-8.594.415c-1.558.153-3.114.339-4.652.616-1.613.276-3.21.64-4.763 1.16-1.01.338-2.017.722-2.836 1.38-.375.302-.773.748-.782 1.27-.036 3.337-.012 6.674 0 10.011.003.322.153.618.35.86.576.702 1.422 1.081 2.248 1.421.365.15 1.056.445 1.02.457-1.01.338-2.017.722-2.836 1.38-.375.302-.773.748-.782 1.27-.036 3.337-.012 6.674 0 10.011.003.322.153.618.35.86.576.702 1.422 1.081 2.248 1.421.365.15 1.053.44 1.02.451-1.01.339-2.017.722-2.836 1.381-.375.301-.773.747-.782 1.27-.036 3.337-.012 6.674 0 10.01.003.323.153.619.35.86.57.696 1.4 1.07 2.217 1.409 2.112.875 4.36 1.31 6.608 1.668 4.547.722 9.177.951 13.783.91 4.428-.041 8.848-.325 13.193-1.125 1.723-.317 3.437-.705 5.066-1.338.756-.294 1.506-.63 2.127-1.149.354-.296.72-.73.728-1.227.036-3.338.033-6.678 0-10.016-.005-.306-.142-.59-.327-.824-.56-.71-1.385-1.08-2.191-1.418-.393-.164-.622-.648-.337-.759.262-.102.522-.209.777-.326-.086-.074-.167-.154-.251-.23l-1.65-1.677c-1.534.566-3.153.906-4.769 1.19-4.587.804-9.251 1.045-13.912 1.016-3.412-.022-6.822-.207-10.204-.644-2.254-.292-4.505-.668-6.66-1.367-.73-.236-1.458-.487-2.096-.913l.006-8.872c.06-.04.122-.078.185-.114.674.421 1.449.687 2.217.925 1.955.604 3.993.943 6.035 1.207 5.36.696 10.719.802 16.05.54 1.92-.095 3.852-.227 5.771-.46l-1.617-1.643c-4.005.42-8.074.498-12.114.376-3.573-.109-7.144-.374-10.647-1.033-1.151-.217-2.303-.454-3.398-.843 1.16-.356 2.365-.598 3.563-.815.272-.05.543-.096.815-.141l-.089-.014.107.017c4.5.702 9.072.925 13.622.884 2.12-.02 4.236-.094 6.345-.255L27 28.59c-5.262.275-10.536.158-15.772-.52-2.255-.292-4.506-.668-6.66-1.367-.73-.236-1.46-.487-2.097-.913l.006-8.872c.06-.04.122-.078.185-.114.674.421 1.449.687 2.217.925 1.955.604 3.993.943 6.035 1.208 5.36.695 10.719.8 16.05.539a87.156 87.156 0 0 0 4.881-.36v-1.823c-4.146.479-8.314.577-12.467.467-3.701-.099-7.4-.363-11.021-1.044-1.15-.216-2.298-.454-3.391-.84a28.707 28.707 0 0 1 2.43-.6c4.798-1.001 9.708-1.275 14.59-1.28h.208c3.237.006 6.453.155 9.651.52v-2.529c-3.206-.358-6.455-.478-9.697-.482h-.022z"/></g></svg>