<svg xmlns="http://www.w3.org/2000/svg" width="20" height="19" viewBox="0 0 20 19"><path d="M18.659 4.85a9.83 9.83 0 0 0-3.64-3.544C13.487.436 11.814 0 10 0 8.187 0 6.513.435 4.98 1.306A9.829 9.829 0 0 0 1.341 4.85 9.335 9.335 0 0 0 0 9.738c0 2.122.636 4.03 1.908 5.725a9.782 9.782 0 0 0 4.928 3.518c.234.043.408.013.52-.088a.49.49 0 0 0 .17-.38l-.007-.685c-.004-.431-.006-.808-.006-1.129l-.3.05c-.19.035-.432.05-.723.045a5.649 5.649 0 0 1-.904-.088 2.049 2.049 0 0 1-.873-.38 1.611 1.611 0 0 1-.573-.78l-.13-.292a3.155 3.155 0 0 0-.41-.647c-.187-.236-.375-.397-.566-.481l-.091-.064a.947.947 0 0 1-.17-.152.694.694 0 0 1-.117-.178c-.026-.06-.004-.108.065-.146.07-.038.195-.057.378-.057l.26.038c.174.034.389.135.645.305.256.169.466.388.631.659.2.346.44.61.723.792.282.182.566.273.853.273a3.8 3.8 0 0 0 .742-.063c.208-.043.403-.106.586-.19.078-.567.29-1.002.638-1.307a9.132 9.132 0 0 1-1.335-.228 5.394 5.394 0 0 1-1.224-.495 3.485 3.485 0 0 1-1.048-.85c-.278-.337-.506-.781-.684-1.33-.177-.55-.266-1.184-.266-1.903 0-1.023.343-1.893 1.028-2.612-.32-.769-.29-1.631.091-2.586.252-.076.625-.02 1.12.17.495.191.857.354 1.087.49.23.134.415.249.554.341a9.46 9.46 0 0 1 2.5-.33c.86 0 1.693.11 2.5.33l.495-.304a7.091 7.091 0 0 1 1.197-.558c.46-.169.812-.215 1.056-.14.39.956.425 1.818.103 2.587.686.719 1.03 1.59 1.03 2.613 0 .718-.09 1.354-.268 1.908-.178.554-.407.997-.69 1.331a3.621 3.621 0 0 1-1.054.843 5.41 5.41 0 0 1-1.224.495 9.1 9.1 0 0 1-1.335.228c.451.38.677.98.677 1.8v2.676c0 .152.054.279.163.38.108.102.28.131.514.089a9.78 9.78 0 0 0 4.929-3.519C19.364 13.768 20 11.86 20 9.737a9.342 9.342 0 0 0-1.341-4.887z" opacity=".47"/></svg>