<svg xmlns="http://www.w3.org/2000/svg" width="68" height="20" viewBox="0 0 68 20"><path fill="#fff" d="M2.951 13.348c0-.65-.252-1.146-.755-1.49-.503-.343-1.235-.514-2.196-.514V8.667c.968 0 1.702-.164 2.202-.492.5-.329.749-.8.749-1.411v-3.65c0-1.143.373-1.948 1.118-2.414C4.815.233 6.125 0 8 0v2.52c-.76.022-1.285.164-1.573.425-.289.261-.433.646-.433 1.154v3.348C5.948 8.85 5.05 9.679 3.297 9.933v.134c1.798.261 2.697 1.053 2.697 2.374v3.449c0 .508.142.892.427 1.154.284.261.81.403 1.579.425V20c-1.875 0-3.185-.233-3.93-.7-.746-.466-1.119-1.275-1.119-2.424zm10.234-2.871V17H10V0h4.377c2.04 0 3.551.42 4.53 1.262.98.84 1.47 2.118 1.47 3.831 0 1-.243 1.89-.73 2.669-.486.779-1.174 1.39-2.065 1.831 2.26 3.822 3.733 6.29 4.418 7.407h-3.534l-3.586-6.523zm0-2.92h1.027c1.007 0 1.75-.19 2.23-.572.48-.38.719-.978.719-1.794 0-.808-.245-1.383-.735-1.725-.49-.342-1.248-.513-2.275-.513h-.966zM33 17h-9V0h9v2.953h-5.686v3.733h5.29V9.64h-5.29v4.383H33zm13-4.818c0 1.493-.498 2.669-1.495 3.529-.997.86-2.384 1.289-4.16 1.289-1.638 0-3.086-.332-4.345-.995v-3.258c1.035.498 1.911.848 2.629 1.052.717.204 1.372.305 1.967.305.713 0 1.261-.147 1.642-.44.381-.295.572-.732.572-1.313 0-.324-.084-.612-.252-.865-.168-.253-.414-.496-.74-.73-.325-.233-.988-.607-1.988-1.12-.937-.474-1.64-.93-2.11-1.368a5.096 5.096 0 0 1-1.122-1.527c-.28-.58-.42-1.26-.42-2.036 0-1.463.46-2.612 1.38-3.45C38.478.42 39.75 0 41.373 0c.797 0 1.558.102 2.282.305.724.204 1.48.49 2.271.86l-1.049 2.726c-.818-.362-1.495-.615-2.03-.758a6.087 6.087 0 0 0-1.58-.215c-.615 0-1.087.155-1.416.464-.329.31-.493.712-.493 1.21 0 .31.066.579.2.809.132.23.344.452.634.667.29.215.977.602 2.062 1.16 1.434.739 2.417 1.48 2.949 2.222.531.743.797 1.653.797 2.732zM55.045 17h-3.09V3H48V0h11v3h-3.955zm10.004-.124c0 .836-.157 1.467-.472 1.892-.316.426-.836.737-1.562.935-.727.198-1.732.297-3.015.297v-2.53c.761-.016 1.285-.15 1.573-.404.289-.254.433-.646.433-1.176v-3.47c0-.642.226-1.163.68-1.562.453-.4 1.122-.663 2.006-.79v-.134c-1.745-.254-2.64-1.083-2.686-2.486V4.099c0-.523-.142-.911-.427-1.165-.284-.254-.81-.392-1.579-.414V0c1.283 0 2.29.099 3.02.297.73.198 1.251.511 1.562.94.311.43.467 1.055.467 1.876v3.673c0 .627.236 1.098.709 1.411.472.314 1.22.47 2.242.47v2.677c-.96 0-1.693.153-2.196.459-.503.306-.755.821-.755 1.545z"/></svg>