<?xml version="1.0" encoding="UTF-8" standalone="no"?><!DOCTYPE svg PUBLIC "-//W3C//DTD SVG 1.1//EN" "http://www.w3.org/Graphics/SVG/1.1/DTD/svg11.dtd"><svg width="100%" height="100%" viewBox="0 0 1089 703" version="1.1" xmlns="http://www.w3.org/2000/svg" xmlns:xlink="http://www.w3.org/1999/xlink" xml:space="preserve" xmlns:serif="http://www.serif.com/" style="fill-rule:evenodd;clip-rule:evenodd;stroke-linejoin:round;stroke-miterlimit:2;"><path d="M1020.81,317.142c27.806,0.261 54.134,18.597 63.65,45.069c2.598,7.227 3.919,14.885 3.997,22.569c0.284,83.338 0.002,166.676 0.002,250.013c-0.096,27.989 -18.929,54.838 -45.464,64.193c-7.11,2.507 -14.633,3.787 -22.185,3.858c-31.932,0.109 -63.864,0.001 -95.797,0.001c-28.193,-0.096 -54.877,-19.052 -64.192,-45.459c-2.509,-7.114 -3.781,-14.637 -3.859,-22.198c-0.142,-83.463 -0.142,-166.927 0,-250.39c0.287,-28.03 19.1,-54.869 46.25,-64.07c6.88,-2.332 14.133,-3.517 21.397,-3.586c32.067,-0.109 64.135,-0.109 96.201,0Zm-877.321,-184.116c26.306,0.001 47.662,21.357 47.662,47.662l0,454.071c0,26.304 -21.356,47.661 -47.662,47.661l-95.323,0c-26.306,0 -47.662,-21.356 -47.662,-47.661l0,-454.071c0,-26.305 21.356,-47.661 47.662,-47.662l95.323,0Zm584.589,0c26.305,0.001 47.661,21.357 47.661,47.662l0,454.071c0,26.304 -21.356,47.661 -47.661,47.661l-95.324,0c-26.305,0 -47.662,-21.356 -47.662,-47.661l0,-454.071c0,-26.305 21.356,-47.661 47.662,-47.662l95.324,0Zm-292.295,204.54c26.306,0 47.662,21.357 47.662,47.662l0,249.53c0,26.305 -21.356,47.662 -47.662,47.662l-95.323,0c-26.305,0 -47.662,-21.356 -47.662,-47.662l0,-249.53c0,-26.305 21.356,-47.662 47.662,-47.662l95.323,0Zm489.3,20.425c-14.187,0.048 -27.119,12.239 -27.271,27.051c-0.142,83.357 -0.852,166.718 0.002,250.07c0.214,13.939 12.187,26.655 26.871,26.881c32.015,0.3 64.034,0.3 96.049,0c13.905,-0.214 26.648,-12.279 26.872,-26.881c0.853,-83.346 0.286,-166.702 0.002,-250.053c-0.145,-14.112 -12.133,-26.927 -27.059,-27.067c-31.822,-0.109 -63.644,-0.001 -95.466,-0.001Zm-762.306,-282.965c-7.299,23.201 -28.993,40.046 -54.591,40.046c-31.579,0 -57.217,-25.638 -57.217,-57.216c0,-31.579 25.638,-57.217 57.217,-57.217c19.326,0 36.427,9.602 46.788,24.292c20.43,-2.484 40.981,-4.028 61.544,-4.105c0.646,-0.001 1.292,-0.001 1.937,0c38.244,0.139 77.58,5.7 110.94,24.703c27.484,15.656 48.94,40.902 62.302,70.164l0.132,-0.264c17.446,-34.727 47.113,-62.724 84.025,-77.581c30.285,-12.19 63.486,-16.129 95.687,-16.229c0.756,0 1.512,0.001 2.268,0.003c17.707,0.1 35.371,1.313 52.943,3.329c10.361,-14.688 27.461,-24.288 46.785,-24.288c29.113,0 53.176,21.789 56.757,49.934c-0.167,-2.734 0.27,-5.537 1.439,-8.226c2.279,-5.243 6.979,-9.3 12.499,-10.787c2.883,-0.777 5.883,-0.712 8.886,-0.8c5.185,-0.153 10.367,-0.22 15.567,-0.211c6.351,0.026 12.698,0.177 19.037,0.468c0,0 2.737,0.173 4.626,0.702c13.317,3.726 19.091,24.314 6.002,33.754c-5.925,4.272 -13.943,3.411 -21.441,3.236c-8.854,-0.206 -17.723,-0.108 -26.588,0.217c0,0 -2.733,0.064 -4.65,-0.296c-7.787,-1.463 -13.913,-8.37 -15.173,-16.215c0.169,1.791 0.256,3.606 0.256,5.44c0,31.579 -25.638,57.217 -57.217,57.217c-25.685,0 -47.44,-16.962 -54.666,-40.286c-33.942,-4.088 -68.145,-4.717 -102.076,3.235c-23.229,5.443 -45.708,16.315 -61.82,33.915c-25.397,27.743 -34.251,67.593 -38.267,105.552c15.802,10.187 26.274,27.942 26.274,48.124c0,31.579 -25.638,57.217 -57.217,57.217c-31.579,0 -57.217,-25.638 -57.217,-57.217c0,-23.257 13.907,-43.292 33.851,-52.236c-1.34,-19.558 -4.237,-38.904 -9.805,-57.529c-7.838,-26.224 -22.421,-50.787 -46.502,-65.201c-23.17,-13.869 -50.776,-17.96 -77.082,-18.908c-22.085,-0.796 -44.226,0.615 -66.233,3.264Zm792.598,107.885c-0.631,-0.344 -1.253,-0.733 -1.863,-1.168c-2.327,-1.66 -4.25,-3.823 -5.626,-6.328c-1.734,-3.157 -2.367,-6.641 -3.466,-9.998c-2.793,-8.53 -6.371,-16.798 -10.767,-24.622l-0.132,-0.233c-1.476,-3.453 -2.178,-4.291 -2.436,-8.109c-0.476,-7.053 3.354,-14.288 9.592,-17.829c3.328,-1.889 4.414,-1.765 8.109,-2.436c1.419,0.064 2.837,0.128 4.256,0.191c1.369,0.378 2.789,0.605 4.107,1.133c2.653,1.064 5.032,2.712 6.961,4.822c2.81,3.073 4.41,6.795 6.236,10.404c5.227,10.327 9.342,21.189 12.511,32.296l0.703,4.202c-0.083,1.418 -0.008,2.854 -0.25,4.253c-0.761,4.415 -3.317,8.297 -6.814,11.082c29.552,2.223 52.872,26.937 52.872,57.054c0,31.579 -25.638,57.217 -57.217,57.217c-31.579,0 -57.217,-25.638 -57.217,-57.217c0,-25.742 17.037,-47.537 40.441,-54.714Zm-87.442,-138.17c13.284,4.346 26.199,9.939 38.31,16.881l3.436,2.519c0.93,1.073 1.985,2.049 2.789,3.22c7.132,10.39 1.106,27.432 -12.791,29.571c-2.825,0.435 -5.712,0.228 -8.446,-0.606c-3.81,-1.162 -6.988,-3.473 -10.476,-5.255c-7.828,-4 -15.989,-7.298 -24.357,-10.067c0,0 -2.545,-0.891 -4.171,-1.867c-10.805,-6.485 -12.409,-24.49 -0.659,-32.212c2.388,-1.57 5.1,-2.582 7.933,-2.96c2.804,-0.374 5.639,0.198 8.432,0.776Z" style="fill:url(#_Linear1);"/><defs><linearGradient id="_Linear1" x1="0" y1="0" x2="1" y2="0" gradientUnits="userSpaceOnUse" gradientTransform="matrix(4.29755e-14,701.843,-701.843,4.29755e-14,775.736,-39.6249)"><stop offset="0" style="stop-color:#43bfdd;stop-opacity:1"/><stop offset="1" style="stop-color:#b461fe;stop-opacity:1"/></linearGradient></defs></svg>