<?xml version="1.0" encoding="UTF-8" standalone="no"?>
<!DOCTYPE svg PUBLIC "-//W3C//DTD SVG 1.1//EN" "http://www.w3.org/Graphics/SVG/1.1/DTD/svg11.dtd">
<svg width="100%" height="100%" viewBox="0 0 1185 1103" version="1.1" xmlns="http://www.w3.org/2000/svg" xmlns:xlink="http://www.w3.org/1999/xlink" xml:space="preserve" xmlns:serif="http://www.serif.com/" style="fill-rule:evenodd;clip-rule:evenodd;stroke-linejoin:round;stroke-miterlimit:2;">
    <g transform="matrix(1,0,0,1,-55171,-1618)">
        <g id="Artboard1" transform="matrix(20.4718,0,0,18.5702,29333.6,1346.86)">
            <rect x="-43.649" y="-48.726" width="1430.07" height="1768.11" style="fill:none;"/>
            <g id="Cells">
            </g>
            <g id="Labels">
            </g>
            <g id="Layer-1" serif:id="Layer 1">
            </g>
            <g transform="matrix(8.69792e-19,0.0156593,-0.0260544,1.75874e-18,1354.9,-832.861)">
                <path d="M54355.1,2213.87L54355.1,1639.18L55641.7,1639.18L55641.7,1351.84L56695.8,1926.53L55641.7,2501.22L55641.7,2213.87L54355.1,2213.87Z" style="fill:url(#_Linear1);"/>
            </g>
            <g transform="matrix(0.0488477,0,0,0.0538496,-1432.88,-72.528)">
                <path d="M55613.9,1719.64L55614,1719.64L55614.4,1719.64C55693.3,1719.73 55772.5,1723.3 55849.9,1734.89L55849.9,1783.45C55839.5,1781.92 55829,1780.54 55818.5,1779.25C55751.2,1770.95 55683.5,1767.63 55615.3,1767.51C55613.9,1767.51 55612.6,1767.51 55611.2,1767.51C55516,1767.61 55420.1,1772.86 55326.5,1792.12C55310.6,1795.4 55294.6,1799 55279.1,1803.63C55300.4,1811.06 55322.8,1815.62 55345.2,1819.77C55415.9,1832.86 55488.1,1837.94 55560.4,1839.83C55656.4,1842.34 55752.8,1839.23 55848.4,1825.01L55849.9,1824.79L55849.9,1860.12C55803,1867.08 55755.5,1870.53 55708.4,1872.8C55604.3,1877.84 55499.8,1875.81 55395.1,1862.44C55355.3,1857.35 55315.5,1850.85 55277.4,1839.24C55262.4,1834.67 55247.2,1829.56 55234.1,1821.46C55232.9,1822.16 55231.7,1822.9 55230.5,1823.66C55230.5,1823.66 55230.4,1994.13 55230.4,1994.13C55242.8,2002.32 55257,2007.14 55271.3,2011.69C55313.3,2025.11 55357.3,2032.33 55401.3,2037.95C55504.5,2051.11 55608.6,2053.27 55712.3,2047.77C55716.8,2047.53 55721.3,2047.28 55725.8,2047.01L55708.4,2089.15L55714.9,2095.72C55686.9,2097.15 55658.7,2097.9 55630.6,2098.15C55541.8,2098.94 55452.5,2094.65 55364.7,2081.16L55364.4,2081.1C55359.1,2081.97 55353.8,2082.87 55348.5,2083.82C55325.1,2087.98 55301.6,2092.64 55278.9,2099.48C55300.3,2106.94 55322.8,2111.51 55345.2,2115.67C55413.6,2128.33 55483.3,2133.44 55553.1,2135.52C55619,2137.49 55685.3,2136.75 55751,2131.75L55783,2163.79C55758.1,2165.98 55733.2,2167.5 55708.4,2168.7C55604.3,2173.73 55499.8,2171.71 55395.1,2158.34C55355.3,2153.25 55315.5,2146.75 55277.4,2135.13C55262.4,2130.57 55247.2,2125.46 55234.1,2117.36C55232.9,2118.06 55231.7,2118.8 55230.5,2119.56C55230.5,2119.56 55230.4,2290.03 55230.4,2290.03C55242.8,2298.22 55257,2303.04 55271.3,2307.59C55313.3,2321.01 55357.3,2328.24 55401.3,2333.84C55467.3,2342.25 55533.8,2345.81 55600.4,2346.22C55691.4,2346.78 55782.4,2342.14 55871.9,2326.69C55892.4,2323.15 55913,2319.16 55933,2313.8L56042.9,2423.63C56043.3,2481.38 56043.3,2539.13 56042.7,2596.88C56042.5,2606.43 56035.4,2614.76 56028.5,2620.45C56016.3,2630.4 56001.7,2636.88 55987,2642.53C55955.2,2654.7 55921.7,2662.14 55888.1,2668.23C55803.3,2683.62 55717,2689.07 55630.6,2689.84C55540.7,2690.64 55450.3,2686.24 55361.6,2672.36C55317.7,2665.5 55273.8,2657.13 55232.6,2640.31C55216.7,2633.81 55200.5,2626.62 55189.3,2613.23C55185.5,2608.6 55182.6,2602.92 55182.5,2596.73C55182.3,2532.61 55181.8,2468.49 55182.5,2404.37C55182.7,2394.33 55190.4,2385.75 55197.8,2379.96C55213.8,2367.31 55233.4,2359.93 55253.1,2353.43C55253.8,2353.22 55240.3,2347.65 55233.2,2344.76C55217.1,2338.24 55200.6,2330.94 55189.3,2317.44C55185.5,2312.81 55182.6,2307.12 55182.5,2300.93C55182.3,2236.82 55181.8,2172.7 55182.5,2108.58C55182.7,2098.53 55190.4,2089.96 55197.8,2084.17C55213.8,2071.51 55233.4,2064.14 55253.1,2057.64C55253.8,2057.41 55240.3,2051.75 55233.2,2048.87C55217.1,2042.34 55200.6,2035.05 55189.3,2021.54C55185.5,2016.91 55182.6,2011.23 55182.5,2005.04C55182.3,1940.92 55181.8,1876.8 55182.5,1812.68C55182.7,1802.64 55190.4,1794.06 55197.8,1788.27C55213.8,1775.62 55233.4,1768.24 55253.1,1761.75C55283.4,1751.75 55314.6,1744.76 55346.1,1739.46C55376.1,1734.13 55406.5,1730.55 55436.9,1727.62C55492.6,1722.25 55549.2,1719.88 55604.6,1719.66L55605.1,1719.66L55605.4,1719.66L55605.7,1719.65L55606.5,1719.65C55608.1,1719.65 55609.6,1719.64 55611.2,1719.64L55613.6,1719.64L55613.9,1719.64L55613.9,1719.64ZM55994.8,2415.42C55993.6,2414.62 55990.1,2413.68 55989.6,2413.96C55970.2,2425.15 55948.3,2431.35 55926.4,2436.83C55855.2,2454.64 55781.3,2460.97 55708.4,2464.49C55604.3,2469.53 55499.8,2467.5 55395.1,2454.13C55355.3,2449.04 55315.5,2442.54 55277.4,2430.93C55262.4,2426.36 55247.2,2421.25 55234.1,2413.15C55232.9,2413.86 55231.7,2414.59 55230.5,2415.35C55230.5,2415.35 55230.4,2585.83 55230.4,2585.83C55243.1,2594.18 55257.5,2599.01 55271.9,2603.59C55327.5,2621.23 55385.8,2628.82 55443.8,2634.36C55563.1,2645.78 55683.6,2645.41 55803,2632.13C55852.8,2626.59 55902.8,2619.19 55950.7,2604.4C55965.9,2599.68 55981.4,2594.59 55994.7,2585.89C55994.7,2585.89 55994.8,2415.42 55994.8,2415.42ZM55862,2376.87C55785.6,2388.89 55708.2,2393.35 55630.6,2394.05C55541.8,2394.84 55452.5,2390.55 55364.7,2377.05C55364.7,2377.05 55353.6,2378.68 55348.5,2379.61C55325.1,2383.77 55301.6,2388.39 55278.9,2395.26C55300.3,2402.7 55322.7,2407.3 55345.2,2411.46C55414.6,2424.31 55485.1,2429.37 55555.5,2431.39C55653.4,2434.19 55751.8,2431.09 55848.4,2416.7C55881.5,2411.78 55914.8,2406.45 55946.1,2395.37C55942.3,2394.29 55938.4,2393.25 55934.6,2392.23C55910.7,2385.83 55886.4,2380.85 55862,2376.87ZM56196.5,2060.87L56349.7,2060.87L56043.2,2367.39L55736.7,2060.87L55889.9,2060.87L55889.9,1686.74L56196.5,1686.74L56196.5,2060.87Z" style="fill:white;"/>
            </g>
        </g>
    </g>
    <defs>
        <linearGradient id="_Linear1" x1="0" y1="0" x2="1" y2="0" gradientUnits="userSpaceOnUse" gradientTransform="matrix(2.53511e-13,1149.38,-4140.15,7.03791e-14,55525.4,1351.84)"><stop offset="0" style="stop-color:rgb(67,191,221);stop-opacity:1"/><stop offset="1" style="stop-color:rgb(180,97,254);stop-opacity:1"/></linearGradient>
    </defs>
</svg>
