<?xml version="1.0" encoding="UTF-8" standalone="no"?><!DOCTYPE svg PUBLIC "-//W3C//DTD SVG 1.1//EN" "http://www.w3.org/Graphics/SVG/1.1/DTD/svg11.dtd"><svg width="100%" height="100%" viewBox="0 0 1185 1103" version="1.1" xmlns="http://www.w3.org/2000/svg" xmlns:xlink="http://www.w3.org/1999/xlink" xml:space="preserve" xmlns:serif="http://www.serif.com/" style="fill-rule:evenodd;clip-rule:evenodd;stroke-linejoin:round;stroke-miterlimit:2;"><rect id="Artboard1" x="-26731" y="-1176" width="29276.1" height="32834.1" style="fill:none;"/><g id="Cells"></g><g id="Labels"></g><g id="Layer-1" serif:id="Layer 1"></g><path d="M718.926,68.738l306.528,0l0,374.129l153.264,0l-306.528,306.528l-306.528,-306.528l153.264,0l0,-374.129Z" style="fill:url(#_Linear1);"/><path d="M442.94,101.642l0.044,0l0.426,0c78.909,0.089 158.06,3.66 235.516,15.247l0,48.562c-10.459,-1.532 -20.941,-2.914 -31.428,-4.206c-67.306,-8.29 -135.006,-11.614 -203.192,-11.734c-1.357,-0.001 -2.713,-0.002 -4.069,-0.001c-95.279,0.1 -191.105,5.353 -284.743,24.612c-15.936,3.278 -31.871,6.879 -47.441,11.509c21.337,7.425 43.735,11.985 66.18,16.142c70.675,13.087 142.875,18.167 215.12,20.055c96.014,2.51 192.439,-0.594 288.068,-14.818l1.505,-0.224l0,35.335c-46.917,6.956 -94.404,10.406 -141.504,12.683c-104.072,5.032 -208.653,3.006 -313.285,-10.361c-39.847,-5.09 -79.623,-11.589 -117.782,-23.208c-14.99,-4.564 -30.107,-9.674 -43.279,-17.773c-1.22,0.703 -2.422,1.435 -3.604,2.202c0,0 -0.106,170.471 -0.106,170.471c12.437,8.189 26.66,13.008 40.906,17.554c42.048,13.417 85.981,20.644 129.997,26.257c103.272,13.168 207.298,15.323 311.06,9.822c4.502,-0.239 9.004,-0.492 13.503,-0.761l-17.456,42.144l6.571,6.571c-28.073,1.426 -56.208,2.174 -84.361,2.426c-88.8,0.795 -178.037,-3.494 -265.878,-16.993l-0.336,-0.052c-5.309,0.866 -10.611,1.769 -15.907,2.712c-23.394,4.164 -46.895,8.826 -69.555,15.669c21.389,7.46 43.855,12.026 66.323,16.186c68.38,12.663 138.075,17.769 207.82,19.852c65.935,1.969 132.261,1.229 197.919,-3.775l32.042,32.041c-24.878,2.191 -49.789,3.715 -74.592,4.914c-104.072,5.032 -208.653,3.006 -313.285,-10.361c-39.847,-5.09 -79.623,-11.589 -117.782,-23.208c-14.99,-4.564 -30.107,-9.674 -43.279,-17.773c-1.22,0.703 -2.422,1.435 -3.604,2.203c0,0 -0.106,170.47 -0.106,170.47c12.437,8.189 26.66,13.009 40.906,17.554c42.062,13.421 85.982,20.65 129.991,26.256c65.997,8.408 132.564,11.966 199.151,12.378c90.97,0.562 181.996,-4.077 271.531,-19.532c20.499,-3.539 41.016,-7.534 61.087,-12.885l109.828,109.828c0.471,57.747 0.459,115.501 -0.174,173.246c-0.174,9.549 -7.298,17.887 -14.219,23.572c-12.117,9.954 -26.742,16.434 -41.507,22.083c-31.796,12.164 -65.253,19.607 -98.866,25.701c-84.822,15.381 -171.081,20.831 -257.508,21.604c-89.905,0.805 -180.268,-3.603 -269.003,-17.477c-43.881,-6.861 -87.767,-15.231 -128.99,-32.054c-15.921,-6.497 -32.122,-13.686 -43.253,-27.073c-3.853,-4.634 -6.773,-10.317 -6.841,-16.507c-0.234,-64.118 -0.701,-128.241 0.002,-192.355c0.183,-10.046 7.94,-18.618 15.255,-24.408c15.994,-12.658 35.648,-20.031 55.363,-26.529c0.648,-0.213 -12.791,-5.785 -19.914,-8.67c-16.117,-6.53 -32.639,-13.822 -43.865,-27.323c-3.853,-4.634 -6.773,-10.317 -6.841,-16.507c-0.234,-64.118 -0.701,-128.24 0.002,-192.355c0.183,-10.046 7.94,-18.618 15.255,-24.408c15.994,-12.658 35.648,-20.031 55.363,-26.529c0.702,-0.231 -12.791,-5.891 -19.914,-8.777c-16.117,-6.529 -32.639,-13.821 -43.865,-27.322c-3.853,-4.634 -6.773,-10.317 -6.841,-16.507c-0.234,-64.118 -0.701,-128.241 0.002,-192.355c0.183,-10.046 7.94,-18.618 15.255,-24.408c15.994,-12.658 35.648,-20.031 55.363,-26.529c30.323,-9.994 61.477,-16.981 92.963,-22.284c30.015,-5.332 60.39,-8.912 90.784,-11.841c55.764,-5.374 112.301,-7.742 167.75,-7.961l0.518,-0.003l0.246,0l0.278,-0.002l0.873,-0.002c1.558,-0.006 3.115,-0.009 4.672,-0.01l2.425,0l0.252,-0.001l0.06,0.001Zm380.88,695.782c-1.217,-0.8 -4.688,-1.743 -5.179,-1.46c-19.404,11.188 -41.322,17.385 -63.265,22.87c-71.21,17.801 -145.047,24.135 -217.954,27.66c-104.072,5.032 -208.653,3.006 -313.285,-10.361c-39.847,-5.09 -79.623,-11.59 -117.782,-23.208c-14.99,-4.564 -30.107,-9.674 -43.279,-17.773c-1.22,0.703 -2.422,1.435 -3.604,2.202c0,0 -0.106,170.471 -0.106,170.471c12.692,8.356 27.128,13.182 41.562,17.762c55.607,17.645 113.919,25.23 171.875,30.777c119.314,11.42 239.804,11.048 359.229,-2.238c49.805,-5.541 99.749,-12.934 147.626,-27.724c15.288,-4.723 30.707,-9.816 44.057,-18.507c0,0 0.105,-170.471 0.105,-170.471Zm-132.864,-38.558c-76.377,12.026 -153.806,16.486 -231.37,17.18c-88.8,0.795 -178.037,-3.494 -265.878,-16.993c0,0 -11.059,1.631 -16.243,2.553c-23.374,4.161 -46.836,8.789 -69.558,15.657c21.349,7.436 43.829,12.034 66.326,16.199c69.376,12.847 139.879,17.909 210.247,19.923c97.966,2.802 196.275,-0.294 292.936,-14.684c33.038,-4.918 66.391,-10.25 97.689,-21.33c-3.842,-1.081 -7.693,-2.119 -11.526,-3.145c-23.878,-6.395 -48.136,-11.376 -72.623,-15.36l0,0Zm334.498,-315.999l153.264,0l-306.528,306.528l-306.528,-306.528l153.264,0l0,-374.129l306.528,0l0,374.129Z" style="fill:url(#_Linear2);"/><defs><linearGradient id="_Linear1" x1="0" y1="0" x2="1" y2="0" gradientUnits="userSpaceOnUse" gradientTransform="matrix(-613.056,1.11259e-13,-1.11259e-13,-1203.94,1178.72,409.066)"><stop offset="0" style="stop-color:#43bfdd;stop-opacity:1"/><stop offset="1" style="stop-color:#b461fe;stop-opacity:1"/></linearGradient><linearGradient id="_Linear2" x1="0" y1="0" x2="1" y2="0" gradientUnits="userSpaceOnUse" gradientTransform="matrix(5.65117e-14,922.906,-922.906,5.65117e-14,565.662,118.938)"><stop offset="0" style="stop-color:#43bfdd;stop-opacity:1"/><stop offset="1" style="stop-color:#b461fe;stop-opacity:1"/></linearGradient></defs></svg>