<svg xmlns="http://www.w3.org/2000/svg" width="22" height="22" viewBox="0 0 22 22">
	<g>
		<g clip-path="url(#clip-A5F24EE0-B59F-34D4-C283-F5C9DB8299D8)">
			<path d="M18.827 0h-6.345v8.171H9.309l6.345 6.446L22 8.17h-3.173zM13.68 16.503c.07.018.14.038.21.058-.57.204-1.176.303-1.777.393-1.757.266-3.544.323-5.325.272-1.28-.038-2.561-.131-3.823-.368a8.096 8.096 0 0 1-1.206-.3c.414-.126.84-.212 1.265-.289.094-.017.295-.047.295-.047 1.597.25 3.22.329 4.834.314 1.41-.013 2.818-.095 4.206-.317.446.073.887.165 1.32.284zm1.083 3.568c-.242.16-.523.254-.8.341-.87.273-1.777.409-2.682.511a31.28 31.28 0 0 1-6.526.041c-1.053-.102-2.113-.242-3.123-.567-.262-.084-.524-.173-.755-.327l.002-3.14c.021-.015.043-.028.065-.041.24.15.514.243.787.327.693.214 1.415.334 2.14.428 1.9.246 3.8.284 5.69.19 1.325-.064 2.667-.18 3.96-.509.4-.1.797-.215 1.15-.421.009-.005.072.012.094.027zM7.801 4.082H7.68a32.81 32.81 0 0 0-3.05.148 20.6 20.6 0 0 0-1.65.218c-.573.098-1.14.227-1.69.412-.359.12-.716.256-1.007.49-.133.107-.274.265-.277.45-.013 1.184-.005 2.369 0 3.553.001.114.054.219.124.304.204.25.505.384.798.505.13.053.374.158.362.162-.359.12-.716.256-1.007.49-.133.107-.274.265-.277.45-.013 1.185-.005 2.369 0 3.553.001.114.054.219.124.305.204.249.505.384.798.504.13.053.373.156.362.16-.359.12-.716.256-1.007.49-.133.107-.274.265-.277.45-.013 1.185-.005 2.369 0 3.553.001.114.054.22.124.305.202.247.497.38.786.5.75.31 1.548.465 2.346.592 1.613.256 3.256.337 4.89.322 1.571-.014 3.14-.115 4.682-.399.61-.112 1.219-.25 1.797-.474.269-.105.534-.224.755-.408.126-.105.255-.259.258-.435.013-1.185.012-2.37 0-3.555a.493.493 0 0 0-.116-.292c-.199-.252-.491-.383-.777-.503-.14-.058-.22-.23-.12-.27.093-.035.185-.073.276-.115l-.09-.082-.585-.595c-.544.201-1.118.322-1.692.422-1.628.286-3.283.371-4.936.361a29.661 29.661 0 0 1-3.621-.229c-.8-.103-1.599-.237-2.363-.484-.26-.084-.518-.173-.744-.325l.002-3.148.065-.04c.24.15.515.244.787.328.694.215 1.417.335 2.142.429 1.902.246 3.803.284 5.695.19a28.77 28.77 0 0 0 2.048-.162l-.574-.583a32.054 32.054 0 0 1-4.298.133c-1.268-.038-2.536-.133-3.779-.366a8.066 8.066 0 0 1-1.205-.3c.411-.126.839-.212 1.264-.289l.29-.05.005.001c1.597.25 3.22.329 4.834.314a33.647 33.647 0 0 0 2.251-.09l-.823-.837c-1.867.097-3.739.056-5.597-.185-.8-.103-1.599-.237-2.363-.485-.26-.084-.518-.173-.744-.324l.002-3.148.065-.04c.24.15.515.244.787.328.694.214 1.417.334 2.142.428 1.902.247 3.803.285 5.695.192a30.932 30.932 0 0 0 1.732-.128v-.647c-1.471.17-2.95.205-4.424.166-1.313-.035-2.626-.129-3.91-.37a8.085 8.085 0 0 1-1.204-.299c.283-.085.573-.152.863-.212 1.702-.356 3.444-.453 5.176-.455h.074a30.64 30.64 0 0 1 3.425.185v-.898a31.353 31.353 0 0 0-3.441-.17h-.008z"></path>
		</g>
	</g>
</svg>