<?xml version="1.0" encoding="UTF-8" standalone="no"?>
<!DOCTYPE svg PUBLIC "-//W3C//DTD SVG 1.1//EN" "http://www.w3.org/Graphics/SVG/1.1/DTD/svg11.dtd">
<svg width="100%" height="100%" viewBox="0 0 21 16" version="1.1" xmlns="http://www.w3.org/2000/svg" xmlns:xlink="http://www.w3.org/1999/xlink" xml:space="preserve" xmlns:serif="http://www.serif.com/" style="fill-rule:evenodd;clip-rule:evenodd;stroke-linejoin:round;stroke-miterlimit:2;">
    <g id="Artboard2" transform="matrix(0.952032,0,0,1.01462,1.02954,0.239188)">
        <rect x="-1.081" y="-0.236" width="21.638" height="15.236" style="fill:none;"/>
        <g transform="matrix(1.05038,0,0,0.985589,-1.08141,-0.235741)">
            <path d="M2.421,3.545C2.357,3.661 2.358,3.642 2.431,3.526L0.391,6.762C0.383,6.775 0.376,6.788 0.37,6.802C0.325,6.897 0.31,6.921 0.295,7.028C0.295,7.029 0.295,7.03 0.295,7.031C0.269,7.222 0.334,7.423 0.463,7.565C0.537,7.646 0.565,7.659 0.661,7.712C0.672,7.718 0.684,7.724 0.696,7.729L2.329,8.416C2.329,8.416 2.329,11.336 2.329,11.336C2.329,11.347 2.33,11.357 2.331,11.368C2.334,11.407 2.337,11.446 2.347,11.484L2.342,11.462C2.38,11.662 2.518,11.833 2.702,11.933C2.713,11.939 2.724,11.944 2.736,11.949L10.046,15.024C10.056,15.029 10.067,15.033 10.078,15.036C10.105,15.046 10.134,15.054 10.161,15.061C10.201,15.071 10.246,15.077 10.304,15.077C10.364,15.077 10.403,15.071 10.445,15.061C10.474,15.055 10.503,15.046 10.532,15.035C10.542,15.032 10.552,15.029 10.562,15.024L17.872,11.949C17.882,11.945 17.892,11.94 17.901,11.935C17.93,11.92 17.959,11.906 17.985,11.888C17.986,11.888 17.986,11.887 17.987,11.887C18.154,11.774 18.256,11.581 18.276,11.373C18.278,11.361 18.278,11.349 18.278,11.336L18.278,8.35C18.278,8.35 19.911,7.663 19.911,7.663C19.924,7.658 19.936,7.652 19.949,7.645C20.042,7.593 20.068,7.582 20.143,7.501C20.145,7.499 20.147,7.498 20.148,7.496C20.277,7.353 20.338,7.152 20.313,6.963C20.313,6.962 20.313,6.961 20.313,6.96C20.297,6.849 20.282,6.823 20.232,6.725C20.226,6.714 20.22,6.702 20.213,6.691L18.173,3.521L18.173,3.521C18.162,3.504 18.144,3.479 18.116,3.451C18.086,3.42 17.974,3.332 17.949,3.313L17.947,3.312C17.919,3.29 17.888,3.273 17.853,3.259L10.543,0.45L10.543,0.452C10.514,0.438 10.362,0.405 10.3,0.407C10.236,0.408 10.173,0.418 10.098,0.439C10.087,0.442 10.076,0.446 10.066,0.45L2.756,3.259C2.744,3.264 2.634,3.282 2.559,3.349C2.468,3.431 2.442,3.507 2.421,3.545ZM10.545,15.031L10.558,15.025C10.551,15.028 10.543,15.032 10.534,15.035L10.545,15.031ZM10.044,15.023L10.031,15.017C10.035,15.018 10.039,15.02 10.044,15.023ZM9.639,9.229L9.639,13.411C9.639,13.411 3.659,10.895 3.659,10.895C3.659,10.895 3.659,8.975 3.659,8.975C3.659,8.975 8.006,10.805 8.006,10.805C8.018,10.81 8.031,10.814 8.044,10.818C8.074,10.827 8.104,10.838 8.134,10.844C8.31,10.879 8.5,10.839 8.647,10.736C8.648,10.735 8.649,10.735 8.65,10.734C8.733,10.675 8.746,10.652 8.808,10.572C8.815,10.562 8.822,10.552 8.829,10.541L9.639,9.229ZM11.865,10.586C11.987,10.714 12.161,10.79 12.34,10.791C12.34,10.791 12.34,10.791 12.34,10.791C12.445,10.791 12.471,10.781 12.567,10.751C12.579,10.748 12.59,10.744 12.601,10.739L16.949,8.91C16.949,8.91 16.949,10.895 16.949,10.895C16.949,10.895 10.968,13.411 10.968,13.411L10.968,9.164L11.779,10.475C11.787,10.489 11.796,10.502 11.806,10.514C11.826,10.538 11.843,10.563 11.865,10.586ZM11.86,10.581L11.867,10.589L11.86,10.581ZM1.935,6.808C2.376,6.108 2.817,5.408 3.259,4.708C3.259,4.708 9.327,7.205 9.327,7.205C9.327,7.205 7.998,9.359 7.998,9.359L1.935,6.808ZM11.284,7.144C13.308,6.33 15.33,5.516 17.353,4.702C17.353,4.702 18.667,6.745 18.667,6.745C18.667,6.745 12.611,9.293 12.611,9.293L11.284,7.144ZM4.809,3.894C6.641,3.19 8.473,2.486 10.304,1.782C10.304,1.782 15.799,3.894 15.799,3.894C15.799,3.894 10.304,6.106 10.304,6.106L4.809,3.894Z"/>
        </g>
    </g>
</svg>
