<?xml version="1.0" encoding="UTF-8" standalone="no"?>
<!DOCTYPE svg PUBLIC "-//W3C//DTD SVG 1.1//EN" "http://www.w3.org/Graphics/SVG/1.1/DTD/svg11.dtd">
<svg width="100%" height="100%" viewBox="0 0 21 16" version="1.1" xmlns="http://www.w3.org/2000/svg" xmlns:xlink="http://www.w3.org/1999/xlink" xml:space="preserve" xmlns:serif="http://www.serif.com/" style="fill-rule:evenodd;clip-rule:evenodd;stroke-linejoin:round;stroke-miterlimit:2;">
    <g id="Artboard2" transform="matrix(0.815028,0,0,0.773711,3.16438,2.26546)">
        <rect x="-3.883" y="-2.928" width="25.483" height="19.948" style="fill:none;"/>
        <g id="Artboard1" transform="matrix(1.2221,0,0,1.20537,196.15,-20.878)">
            <g transform="matrix(0.0160451,0,0,0.0160341,-160.935,14.729)">
                <rect x="-163.559" y="14.969" width="1247.89" height="983.18" style="fill:none;"/>
            </g>
            <g transform="matrix(0.0157148,0,0,0.0167838,-1036.11,-92.7583)">
                <path d="M55699.9,6656.58C55700.5,6655.49 55701.3,6654.47 55702.2,6653.53C55704.7,6650.94 55705.7,6650.75 55708.9,6649.13L56175.9,6469.63C56179.1,6468.72 56179.2,6468.71 56182.5,6468.4C56183.6,6468.51 56184.8,6468.61 56185.9,6468.71L56189.2,6469.63L56656.2,6649.13C56656.8,6649.43 56657.3,6649.68 56657.7,6649.9C56658.1,6650.08 56658.5,6650.28 56658.9,6650.49C56660.2,6651.19 56661.2,6651.87 56662.8,6653.53C56663.7,6654.39 56664.4,6655.33 56665,6656.33L56665.1,6656.44L56795.4,6858.99C56797,6862.16 56797.7,6862.91 56798.2,6866.49C56798.9,6871.8 56797.2,6877.41 56793.6,6881.42C56791.1,6884.1 56790.1,6884.32 56787,6886.05L56668,6936.11L56668,7142.79C56667.4,7148.91 56664.8,7154.8 56659.9,7158.13C56658.9,7158.8 56657.8,7159.27 56656.7,7159.85L56189.7,7356.32C56189.5,7356.38 56189.3,7356.43 56189.2,7356.48C56188.2,7356.87 56187.2,7357.18 56186.2,7357.39C56185.1,7357.66 56184.1,7357.8 56182.5,7357.78C56181,7357.8 56179.9,7357.66 56178.9,7357.39C56177.9,7357.18 56176.8,7356.87 56175.8,7356.47C56175.7,7356.42 56175.5,7356.37 56175.3,7356.32L55708.3,7159.85C55702.9,7156.92 55698.5,7152.21 55697.4,7146.39C55697.1,7145.2 55697.1,7143.99 55697,7142.79L55697,6940.31L55578,6890.25C55574.9,6888.54 55573.9,6888.32 55571.5,6885.66C55567.9,6881.74 55566.1,6876.14 55566.8,6870.83C55567.3,6867.26 55568,6866.51 55569.5,6863.34L55699.8,6656.59L55699.9,6656.58ZM56201,6919.58L56201,7311.42L56631,7130.51L56631,6951.68L56320,7082.53C56316.9,7083.49 56316.1,7083.99 56312.7,7083.97C56307.7,7083.94 56302.8,7081.8 56299.4,7078.16C56298.5,7077.25 56297.9,7076.18 56297.1,7075.19L56201,6919.58ZM56164,6923.79L56067.9,7079.4C56065.9,7082.01 56065.6,7082.88 56062.9,7084.81C56058.8,7087.69 56053.5,7088.8 56048.6,7087.82C56047.4,7087.58 56046.2,7087.09 56045,7086.73L55734,6955.88L55734,7130.51L56164,7311.42L56164,6923.79ZM55612.5,6864.61L56044.8,7046.48L56155.3,6867.43L55722.9,6689.48C55686.1,6747.86 55649.3,6806.23 55612.5,6864.61ZM56209.8,6863.37L56320.3,7042.28L56752.4,6860.48L56642.3,6689.32C56498.1,6747.34 56354,6805.36 56209.8,6863.37ZM55766,6666.79L56182.5,6834.46L56599,6666.79L56182.5,6506.72C56043.7,6560.08 55904.9,6613.44 55766,6666.79Z" style="fill:white;stroke:white;stroke-width:63.89px;"/>
            </g>
        </g>
    </g>
</svg>
