<?xml version="1.0" encoding="UTF-8" standalone="no"?>
<!DOCTYPE svg PUBLIC "-//W3C//DTD SVG 1.1//EN" "http://www.w3.org/Graphics/SVG/1.1/DTD/svg11.dtd">
<svg width="100%" height="100%" viewBox="0 0 945 1065" version="1.1" xmlns="http://www.w3.org/2000/svg" xmlns:xlink="http://www.w3.org/1999/xlink" xml:space="preserve" xmlns:serif="http://www.serif.com/" style="fill-rule:evenodd;clip-rule:evenodd;stroke-linejoin:round;stroke-miterlimit:2;">
    <g transform="matrix(1,0,0,0.999998,-31248.8,-27128.8)">
        <g>
            <g>
                <path d="M31609.7,27473.5L31610.1,27473.5C31621.4,27473.5 31632.8,27474.1 31644.2,27475.2L31655.6,27531C31656.3,27531.1 31657,27531.2 31657.7,27531.3C31679.2,27534.8 31700.2,27540.5 31720.5,27548.4L31758.3,27505.8C31779.5,27515.4 31799.7,27527.1 31818.6,27540.6L31800.6,27594.6C31818.1,27608.7 31834,27624.6 31848.1,27642.1L31902.1,27624.1C31915.7,27643.1 31927.3,27663.2 31936.9,27684.4L31894.3,27722.3C31902.5,27743.2 31908.3,27764.9 31911.7,27787.1L31967.5,27798.6C31969.7,27821.4 31969.8,27844.3 31967.6,27867.1L31967.5,27868.2L31911.7,27879.6C31908.3,27901.8 31902.5,27923.6 31894.3,27944.5L31936.9,27982.3C31927.3,28003.5 31915.7,28023.7 31902.1,28042.6L31848.1,28024.6C31834,28042.1 31818.1,28058.1 31800.6,28072.1L31818.6,28126.2C31799.7,28139.7 31779.5,28151.3 31758.3,28161L31720.5,28118.4C31699.5,28126.5 31677.8,28132.3 31655.6,28135.7L31644.2,28191.6C31621,28193.8 31597.7,28193.8 31574.5,28191.6L31563.1,28135.7C31540.9,28132.3 31519.1,28126.5 31498.2,28118.4L31460.4,28161C31439.2,28151.3 31419,28139.7 31400.1,28126.2L31418.1,28072.1C31400.6,28058.1 31384.7,28042.1 31370.6,28024.6L31316.6,28042.6C31303,28023.7 31291.4,28003.5 31281.7,27982.3L31324.4,27944.5C31316.2,27923.6 31310.4,27901.8 31307,27879.6L31251.2,27868.2C31248.9,27845 31248.9,27821.7 31251.2,27798.6L31307,27787.1C31310.4,27764.9 31316.2,27743.2 31324.4,27722.3L31281.7,27684.4C31291.4,27663.2 31303,27643.1 31316.6,27624.1L31370.6,27642.1C31384.7,27624.6 31400.6,27608.7 31418.1,27594.6L31400.1,27540.6C31419,27527.1 31439.2,27515.4 31460.4,27505.8L31498.2,27548.4C31519.1,27540.2 31540.9,27534.4 31563.1,27531L31574.5,27475.2C31586.2,27474 31598,27473.5 31609.7,27473.5ZM31726.6,27611C31690.9,27592.3 31651,27582.2 31610.2,27582L31608.6,27582C31540.7,27582.2 31473.2,27611.2 31426.2,27661.1L31425.5,27661.8C31375.5,27715.4 31350.7,27791.7 31359.9,27865L31359.9,27865.2L31360,27866L31360.2,27866.8L31360.2,27866.9C31370.1,27941.2 31414.9,28009.8 31479.6,28048.7L31479.7,28048.7L31480.4,28049.2C31534.2,28081.2 31600.3,28092.3 31661.7,28079.3L31662.4,28079.1C31726.1,28065.4 31783.7,28026 31819.5,27971.3L31820,27970.6L31820.1,27970.4C31864.4,27902.1 31873.3,27811.8 31840.8,27735.2L31840.7,27735.1L31840.4,27734.2L31840.1,27733.6L31840,27733.3L31839.6,27732.5L31839.6,27732.4C31818.1,27683.6 31780.9,27642 31734.8,27615.5L31734.6,27615.4L31734.3,27615.2L31733.7,27614.9L31732.9,27614.4L31732.6,27614.3L31732.1,27614L31731.8,27613.8L31730,27612.9L31729.4,27612.5L31728.4,27612L31727.5,27611.5L31727.4,27611.5L31726.6,27611ZM31612.4,27717.4C31653.3,27717.5 31693.1,27741.5 31712.3,27778.3C31731.4,27815 31728.4,27862.1 31703.8,27896.3C31678.9,27930.8 31633.7,27949.5 31591,27941.4C31545.5,27932.8 31507,27894.2 31500.2,27846.5C31494.2,27805 31513.1,27760.8 31548.8,27736.7C31567.1,27724.4 31588.8,27717.6 31610.9,27717.4L31612.4,27717.4ZM31611.8,27753.4C31601.9,27753.4 31592.2,27755.3 31583.1,27759C31577.4,27761.2 31571.9,27764.3 31566.9,27768C31566.9,27768 31563.6,27770.4 31561.5,27772.3C31560.4,27773.2 31559.3,27774.2 31558.2,27775.3C31557.3,27776.2 31556.4,27777.1 31555.5,27778.1C31550.1,27783.9 31545.6,27790.6 31542.2,27797.9C31542,27798.2 31541.8,27798.6 31541.7,27799C31536.9,27809.6 31534.6,27821.5 31535.1,27833.1C31535.3,27839.3 31536.2,27845.5 31538,27851.5C31539.7,27857.6 31542.2,27863.7 31545.9,27869.8C31546.1,27870.2 31546.3,27870.5 31546.5,27870.8C31546.6,27871 31546.8,27871.2 31546.9,27871.4C31547.1,27871.8 31547.4,27872.2 31547.7,27872.6C31553.4,27881.4 31561.1,27889 31569.7,27894.7C31574.2,27897.6 31579,27900.2 31584,27902.1C31592.1,27905.3 31600.7,27907 31609.3,27907.3C31616.1,27907.5 31623.1,27906.9 31629.9,27905.3C31640.8,27902.7 31651.2,27897.6 31660,27890.5C31669,27883.3 31676.5,27874.1 31681.5,27863.5C31683.2,27859.9 31684.6,27856.3 31685.8,27852.5C31686.1,27851.5 31686.4,27850.4 31686.6,27849.4C31686.7,27849.1 31686.8,27848.8 31686.9,27848.5C31689.8,27836.4 31689.7,27823.8 31686.7,27811.7C31682.7,27795.2 31673.1,27780.5 31659.7,27770C31654.3,27765.6 31648.2,27762.1 31641.6,27759.2C31632.3,27755.3 31622.1,27753.4 31611.8,27753.4ZM32058.5,27146.3C32038.4,27137.6 32017.2,27131.9 31995.4,27129.4L31975.7,27161.8C31954.6,27161.1 31933.5,27163.8 31913.3,27170L31885.9,27143.8C31865.6,27151.9 31846.6,27162.9 31829.4,27176.4L31838.4,27213.3C31823,27227.7 31810,27244.6 31800.1,27263.2L31762.2,27264C31753.5,27284.1 31747.8,27305.4 31745.3,27327.1L31777.7,27346.8C31777,27367.9 31779.8,27389 31785.9,27409.2L31759.7,27436.6C31767.8,27456.9 31778.8,27476 31792.3,27493.1L31829.2,27484.1C31843.6,27499.6 31860.5,27512.5 31879.1,27522.4L31879.9,27560.3C31900,27569 31921.3,27574.7 31943,27577.2L31962.7,27544.8C31983.8,27545.5 32004.9,27542.8 32025.1,27536.6L32052.5,27562.8C32072.8,27554.7 32091.9,27543.7 32109,27530.2L32100,27493.3C32115.5,27478.9 32128.4,27462.1 32138.3,27443.4L32176.2,27442.6C32184.9,27422.5 32190.6,27401.2 32193.1,27379.5L32160.7,27359.8C32161.5,27338.7 32158.7,27317.6 32152.5,27297.4L32178.7,27270C32170.6,27249.7 32159.7,27230.7 32146.1,27213.5L32109.3,27222.5C32094.8,27207.1 32078,27194.1 32059.3,27184.2L32058.5,27146.3ZM32006.2,27215.3C32082.4,27235.7 32127.7,27314.1 32107.3,27390.3C32086.8,27466.5 32008.4,27511.8 31932.2,27491.4C31856,27470.9 31810.8,27392.5 31831.2,27316.3C31851.6,27240.1 31930,27194.8 32006.2,27215.3ZM31967.7,27268.8C31990.6,27268.9 32013.2,27278.9 32028.7,27295.7C32046.5,27315.1 32054.3,27343.1 32049,27368.9C32042.5,27400.8 32015.6,27427.8 31982.9,27433.9C31957.9,27438.6 31930.9,27431.2 31911.8,27414C31898.7,27402.3 31889.5,27386.3 31885.9,27369.1C31879.5,27338.4 31892,27304.5 31917.6,27285.4C31931.7,27274.8 31949,27269 31966.6,27268.8L31967.7,27268.8ZM31967.3,27304.8C31953.2,27304.9 31938.6,27311.5 31929.2,27324.3C31925.6,27329.2 31923,27334.8 31921.5,27340.6C31918.5,27352.5 31920.5,27365.9 31927,27376.6C31927,27376.6 31930.3,27381.5 31933,27384.5C31939.1,27390.9 31946.9,27395.6 31955.5,27397.9C31969.8,27401.7 31985.9,27397.2 31995.7,27390C32000.9,27386.1 32005.2,27381 32008.6,27375.4C32015.1,27364.4 32016.5,27350.2 32012.4,27337.6C32006.6,27319.5 31988.5,27305.1 31968.1,27304.8L31967.3,27304.8Z" style="fill:white;"/>
            </g>
        </g>
    </g>
</svg>
