<?xml version="1.0" encoding="UTF-8" standalone="no"?>
<!DOCTYPE svg PUBLIC "-//W3C//DTD SVG 1.1//EN" "http://www.w3.org/Graphics/SVG/1.1/DTD/svg11.dtd">
<svg width="100%" height="100%" viewBox="0 0 1378 998" version="1.1" xmlns="http://www.w3.org/2000/svg" xmlns:xlink="http://www.w3.org/1999/xlink" xml:space="preserve" xmlns:serif="http://www.serif.com/" style="fill-rule:evenodd;clip-rule:evenodd;stroke-linecap:round;stroke-linejoin:round;stroke-miterlimit:1.5;">
    <g transform="matrix(1,0,0,1,-44942,-8512)">
        <g id="Artboard1" transform="matrix(20.4718,0,0,18.5702,29333.6,1346.86)">
            <rect x="-43.649" y="-48.726" width="1430.07" height="1768.11" style="fill:none;"/>
            <g id="Cells" transform="matrix(0.654788,0,0,0.464723,-15.068,-26.4387)">
                <g transform="matrix(0.0805068,0,0,0.125048,359.149,245.216)">
                    <rect x="10001.1" y="4412.99" width="1815.12" height="2123.71" style="fill:none;stroke:black;stroke-width:21.31px;"/>
                </g>
            </g>
            <g id="Labels">
            </g>
            <g id="Layer-1" serif:id="Layer 1">
            </g>
            <g transform="matrix(163.338,0,0,-180.063,656.925,414.753)">
                <path d="M0.696,0.143L0.696,0.101L1,0.101L1,0.143C0.987,0.158 0.88,0.16 0.847,0.16C0.815,0.16 0.715,0.157 0.696,0.143ZM0.696,-0.017L1,-0.017L1,0.042L0.696,0.042L0.696,-0.017ZM0.696,-0.077L0.696,-0.117C0.696,-0.124 0.772,-0.136 0.844,-0.136C0.921,-0.136 0.999,-0.124 0.999,-0.117L0.999,-0.077L0.696,-0.077Z" style="fill-rule:nonzero;"/>
            </g>
        </g>
    </g>
</svg>
