<?xml version="1.0" encoding="UTF-8" standalone="no"?><!DOCTYPE svg PUBLIC "-//W3C//DTD SVG 1.1//EN" "http://www.w3.org/Graphics/SVG/1.1/DTD/svg11.dtd"><svg width="100%" height="100%" viewBox="0 0 1083 395" version="1.1" xmlns="http://www.w3.org/2000/svg" xmlns:xlink="http://www.w3.org/1999/xlink" xml:space="preserve" xmlns:serif="http://www.serif.com/" style="fill-rule:evenodd;clip-rule:evenodd;stroke-linejoin:round;stroke-miterlimit:2;"><path d="M1047.76,394.449l-11.662,0l10.012,-22.471l-23.893,-61.781l12.117,0l17.692,46.535l18.888,-46.535l10.581,0l-33.735,84.252Zm-869.027,-106.666l11.946,0l0,53.134c0,8.457 1.565,14.611 4.694,18.46c3.129,3.85 8.106,5.774 14.933,5.774c6.675,0 11.406,-1.811 14.194,-5.432c2.787,-3.622 4.181,-9.757 4.181,-18.404l0,-53.532l10.468,0l0,53.361c0,11.492 -2.361,19.855 -7.083,25.088c-4.722,5.234 -12.241,7.851 -22.556,7.851c-10.506,0 -18.262,-2.712 -23.268,-8.135c-5.006,-5.424 -7.509,-13.805 -7.509,-25.145l0,-53.02Zm413.029,55.068c1.631,14.678 8.818,22.016 21.56,22.016c4.665,0 10.392,-1.252 17.181,-3.755l0,8.875c-7.509,2.276 -13.938,3.413 -19.285,3.413c-9.103,0 -16.527,-3.024 -22.272,-9.073c-5.746,-6.05 -8.619,-13.891 -8.619,-23.524c0,-9.368 2.531,-17.048 7.595,-23.04c5.063,-5.992 11.539,-8.988 19.427,-8.988c7.472,0 13.246,2.654 17.323,7.964c4.077,5.31 6.115,12.857 6.115,22.642l-0.057,3.47l-38.968,0Zm201.65,30.549c-5.12,0 -11.34,-1.194 -18.66,-3.584l0,-10.297c7.32,3.641 13.692,5.462 19.115,5.462c3.224,0 5.898,-0.873 8.021,-2.617c2.124,-1.745 3.186,-3.925 3.186,-6.542c0,-3.831 -2.977,-6.998 -8.931,-9.501l-6.543,-2.787c-9.671,-4.02 -14.506,-9.804 -14.506,-17.351c0,-5.386 1.906,-9.624 5.717,-12.715c3.812,-3.091 9.036,-4.637 15.673,-4.637c3.451,0 7.718,0.475 12.8,1.423l2.332,0.455l0,9.33c-6.257,-1.859 -11.226,-2.788 -14.904,-2.788c-7.206,0 -10.809,2.617 -10.809,7.851c0,3.375 2.73,6.22 8.192,8.533l5.404,2.276c6.106,2.579 10.43,5.3 12.971,8.163c2.541,2.864 3.811,6.438 3.811,10.724c0,5.423 -2.142,9.879 -6.428,13.369c-4.286,3.489 -9.766,5.233 -16.441,5.233Zm167.574,-63.203l16.157,0l0,8.419l-16.157,0l0,34.247c0,8.079 3.489,12.118 10.468,12.118c1.479,0 3.28,-0.247 5.404,-0.74l0,7.737c-3.451,0.948 -6.447,1.422 -8.988,1.422c-5.689,0 -10.127,-1.631 -13.312,-4.892c-3.186,-3.262 -4.779,-7.794 -4.779,-13.597l0,-36.295l-7.737,0l0,-8.419l7.737,0l0,-11.207l11.207,-1.081l0,12.288Zm-451.675,61.781l-11.207,0l-22.983,-61.781l11.207,0l17.977,48.071l18.944,-48.071l10.468,0l-24.406,61.781Zm-86.091,0l-11.207,0l0,-61.781l11.207,0l0,61.781Zm-111.918,0l-11.207,0l0,-61.781l11.207,0l0,11.605c5.916,-8.647 13.16,-12.971 21.731,-12.971c5.348,0 9.615,1.698 12.8,5.092c3.186,3.394 4.779,7.955 4.779,13.682l0,44.373l-11.207,0l0,-40.732c0,-4.589 -0.673,-7.86 -2.02,-9.814c-1.346,-1.953 -3.574,-2.929 -6.684,-2.929c-6.865,0 -13.331,4.494 -19.399,13.482l0,39.993Zm575.938,0l-11.207,0l0,-61.781l11.207,0l0,61.781Zm-186.291,0l-11.207,0l0,-61.781l11.207,0l0,11.605c4.438,-8.647 10.885,-12.971 19.343,-12.971c1.137,0 2.332,0.095 3.584,0.285l0,10.467c-1.935,-0.644 -3.641,-0.967 -5.12,-0.967c-7.092,0 -13.028,4.21 -17.807,12.63l0,40.732Zm-108.675,-37.547l27.249,0c0,-11.491 -4.285,-17.237 -12.857,-17.237c-8.609,0 -13.406,5.746 -14.392,17.237Zm294.966,-35.441l-11.207,0l0,-11.207l11.207,0l0,11.207Zm-464.02,0l-11.207,0l0,-11.207l11.207,0l0,11.207Zm639.521,-164.02c-26.717,-26.679 -70.038,-26.679 -96.757,0c-26.717,26.674 -26.717,69.932 0,96.605c26.627,26.569 69.677,26.688 96.439,0.32l-0.727,19.699l21.096,0l0,-67.907l-0.007,0.005c0.11,-17.621 -6.569,-35.278 -20.044,-48.722Zm-126.017,16.46l-28.666,0c-17.606,-17.559 -46.153,-17.537 -63.757,0.018c-9.128,9.114 -13.523,21.168 -13.184,33.109c0.314,11.086 4.709,22.076 13.184,30.528c17.604,17.579 46.151,17.579 63.757,0l28.684,0c-3.11,5.917 -7.178,11.5 -12.168,16.489c-26.746,26.7 -70.042,26.682 -96.784,0c-26.726,-26.681 -26.726,-69.934 0,-96.615c26.724,-26.66 70.038,-26.66 96.763,0c4.997,4.987 9.036,10.553 12.171,16.471Zm-624.223,97.605l-31.726,0l-49.237,-55.106l-29.073,33.535l0,21.564l-23.675,0.007l0,-77.395l-37.293,12.302c-1.503,0.437 -2.437,0.665 -4.721,-0.007l-68.936,-22.975c-2.955,-1.115 -5.004,-3.919 -5.129,-7.115l0,-71.963l-34.189,-11.699l0,53.236c5.002,2.764 8.394,8.092 8.394,14.207c0,8.952 -7.268,16.219 -16.219,16.219c-8.951,0 -16.218,-7.267 -16.218,-16.219c0,-6.064 3.335,-11.356 8.271,-14.138l0,-58.701l-7.699,-2.635c-1.547,-0.857 -3.132,-1.77 -4.02,-3.265c-1.37,-2.306 -1.355,-5.305 -0.055,-7.567c1.195,-2.081 1.986,-2.186 3.971,-3.324l130.299,-46.719l2.445,-0.44c0.818,0.128 1.636,0.255 2.454,0.383l133.803,44.531l2.333,1.273c1.783,2.052 3.135,4.61 2.683,7.153c-0.314,1.773 -1.256,3.374 -2.653,4.509c-0.688,0.559 -1.551,0.857 -2.327,1.285l-135.992,46.025c-2.405,0.394 -2.428,0.394 -4.832,-0.008l-55.449,-18.973l0,61.424l61.448,20.479l39.631,-13.073l0,-50.478l23.675,-8.259l0,94.239l65.732,-75.827l31.309,0l-52.35,60.385l65.345,73.13Zm90.437,0l-23.676,0l0,-66.796c0.027,-17.07 6.553,-34.17 19.601,-47.177c26.095,-26.057 68.455,-26.057 94.551,0.029c13.022,13.002 19.55,30.078 19.574,47.148l0,66.796l-23.681,0l0,-66.796l0.03,0c-0.03,-11.004 -4.234,-22.035 -12.654,-30.444c-16.863,-16.832 -44.226,-16.832 -61.087,-0.025c-8.443,8.434 -12.658,19.436 -12.658,30.469l0,66.796Zm-46.308,-0.007l-23.675,0l0,-133.514l23.675,0l0,133.514Zm432.169,0l-23.674,0l0,-133.514l23.674,0l0,133.514Zm-124.239,-26.684l0,17.69c0,3.242 -34.483,8.581 -68.567,8.581c-31.51,0 -65.155,-5.249 -65.155,-8.581l0,-17.69l133.722,0Zm42.563,-106.831l37.541,0l0,23.645l-37.541,0l0,65.206c0,16.218 12.959,23.652 37.552,23.652l0,18.704c-38.842,6.569 -61.205,-12.331 -61.205,-33.11c0,-20.779 -0.025,0 -0.025,0l0,-132.836l23.678,0l0,34.739Zm339.127,99.579c-17.609,17.579 -46.149,17.579 -63.757,0c-17.606,-17.561 -17.606,-46.061 0,-63.637c17.608,-17.561 46.148,-17.579 63.757,-0.019c17.603,17.581 17.587,46.095 0,63.656Zm-381.405,-18.819l-133.723,0l0,-26.269l133.723,0l0,26.269Zm0,-52.069l-133.723,0l0,-18.785c8.054,-5.939 52.275,-7.48 66.536,-7.48c14.265,0 61.342,1.185 67.187,7.48l0,18.785Zm-308.214,-43.703l-23.676,0l0,-19.729l23.676,0l0,19.729Zm432.166,0l-23.672,0l0,-19.729l23.672,0l0,19.729Zm-758.636,-45.611l105.44,36.079l112.407,-38.042c-53.309,-17.742 -109.916,-35.519 -109.916,-35.519c0,0 -54.56,18.346 -107.931,37.482Zm107.834,-26.499l-78.202,25.924l77.084,25.21l81.624,-25.911l-80.506,-25.223Z" style="fill:#26205f;fill-rule:nonzero;"/></svg>