<?xml version="1.0" encoding="UTF-8" standalone="no"?><!DOCTYPE svg PUBLIC "-//W3C//DTD SVG 1.1//EN" "http://www.w3.org/Graphics/SVG/1.1/DTD/svg11.dtd"><svg width="100%" height="100%" viewBox="0 0 604 868" version="1.1" xmlns="http://www.w3.org/2000/svg" xmlns:xlink="http://www.w3.org/1999/xlink" xml:space="preserve" xmlns:serif="http://www.serif.com/" style="fill-rule:evenodd;clip-rule:evenodd;stroke-linejoin:round;stroke-miterlimit:2;"><path d="M303.199,0.287c32.77,0.149 65.591,5.555 96.641,16.169c28.199,9.639 54.389,23.303 77.779,40.07c0,0 2.482,1.78 4.429,3.228c10.403,7.739 20.283,16.133 29.627,25.128l0.664,0.639c9.943,9.705 19.289,20.079 27.791,30.942l2.222,2.876c1.872,2.48 4.338,5.838 4.338,5.838c1.214,1.687 2.647,3.709 2.647,3.709c2.068,2.969 4.1,5.958 6.071,8.985c0,0 2.711,4.189 4.863,7.73c3.633,5.977 7.06,12.075 10.257,18.282l0.833,1.625l0.411,0.806c1.095,2.189 2.182,4.381 3.227,6.594c0,0 1.298,2.748 2.293,4.939c1.294,2.851 2.952,6.74 2.952,6.74c1.066,2.544 2.11,5.098 3.118,7.664l0.685,1.769c0,0 1.644,4.302 3.156,8.609l0.63,1.824c0,0 0.822,2.401 1.47,4.395c0.925,2.851 1.334,4.197 1.926,6.158c0.828,2.741 1.828,6.311 1.828,6.311l0.483,1.766c0.544,2.043 1.183,4.503 1.183,4.503c1.369,5.49 2.64,10.986 3.703,16.514c0,0 1.486,7.625 2.513,14.865c0,0 0.874,6.151 1.409,11.353c0,0 0.501,4.928 0.78,8.573c0.243,3.184 0.428,6.371 0.574,9.561l0.047,1.016c0.095,2.58 0.182,5.161 0.217,7.743c0,0 0.07,4.535 0.008,8.275c0,0 -0.121,4.201 -0.121,4.201c-0.144,2.952 -0.3,5.9 -0.554,8.842c0,0 -0.479,5.575 -1.066,10.131c0,0 -0.475,3.588 -0.475,3.588c-0.405,2.858 -0.846,5.711 -1.343,8.554c0,0 -0.464,2.733 -1.002,5.52c0,0 -0.686,3.595 -1.274,6.351c-3.733,17.487 -8.741,34.703 -14.489,51.767c-2.799,8.307 -5.824,16.577 -8.965,24.791l-0.519,1.36c-5.017,12.955 -10.328,25.768 -15.907,38.459l-0.621,1.413c-0.407,0.914 -0.813,1.828 -1.219,2.743l-0.629,1.416c-1.467,3.266 -2.937,6.528 -4.427,9.775l-0.631,1.378c-14.058,30.532 -29.342,60.487 -45.55,90.244l-0.764,1.412c-31.998,58.441 -66.534,115.49 -103.536,172.609l-1.395,2.154c-7.358,11.311 -14.751,22.587 -22.22,33.791l-1.206,1.813c-14.5,21.702 -29.113,43.284 -44.327,64.595l-0.165,0.232c-1.223,1.461 -2.333,3.023 -3.668,4.382c-13.206,13.447 -37.32,14.303 -51.368,0c-4.971,-5.061 -8.573,-11.283 -12.677,-17.162c-8.853,-12.68 -17.599,-25.435 -26.228,-38.253l-1.108,-1.639c-6.092,-9.063 -12.146,-18.123 -18.139,-27.224l-1.302,-1.971c-21.3,-32.432 -42.232,-65.231 -62.216,-98.301l-0.775,-1.272c-16.456,-27.218 -32.533,-54.713 -47.907,-82.529l-0.786,-1.415c-7.148,-13.019 -14.268,-26.154 -21.145,-39.386l-0.742,-1.418c-1.945,-3.764 -3.891,-7.52 -5.81,-11.288l-0.73,-1.426c-0.953,-1.884 -1.908,-3.765 -2.857,-5.65l-0.714,-1.415c-3.292,-6.575 -6.55,-13.151 -9.739,-19.773l-0.682,-1.408c-0.446,-0.933 -0.893,-1.865 -1.34,-2.798l-0.688,-1.435c-1.553,-3.275 -3.108,-6.548 -4.636,-9.835l-0.65,-1.391c-1.294,-2.796 -2.583,-5.593 -3.861,-8.399l-0.645,-1.415c-6.82,-15.126 -13.321,-30.255 -19.297,-45.519l-0.539,-1.374c-4.196,-10.866 -8.216,-21.759 -11.821,-32.715c0,0 -2.432,-7.31 -4.535,-14.35c0,0 -2.888,-9.851 -4.363,-15.475c-2.152,-8.207 -4.112,-16.52 -5.684,-24.984c0,0 -0.538,-2.851 -0.902,-4.985c-0.718,-4.205 -1.367,-8.419 -1.88,-12.649c0,0 -0.547,-4.478 -0.896,-8.366c-0.421,-4.703 -0.698,-9.436 -0.776,-14.153c0,0 -0.056,-6.144 0.041,-10.381c0.058,-2.548 0.149,-5.102 0.267,-7.651c0,0 0.264,-5.836 0.769,-11.573c0,0 0.278,-3.201 0.542,-5.711c0.286,-2.721 0.311,-2.854 0.418,-3.769c1.946,-16.601 5.314,-33.158 9.902,-48.826c0,0 2.99,-9.858 5.098,-15.861c1.124,-3.199 2.303,-6.379 3.543,-9.536c0,0 1.659,-4.214 3.116,-7.665c6.661,-15.78 14.689,-30.921 23.85,-45.218c0.503,-0.785 0.52,-0.809 1.017,-1.572c1.64,-2.519 3.314,-5.019 5.031,-7.492l0.508,-0.736c1.571,-2.236 3.156,-4.463 4.784,-6.658l1.084,-1.458c0,0 3.999,-5.317 7.785,-9.968c0,0 2.328,-2.824 2.328,-2.824c3.298,-3.91 6.657,-7.767 10.131,-11.516l3.089,-3.292c4.171,-4.364 8.468,-8.613 12.874,-12.724c0,0 5.364,-4.88 5.364,-4.88c3.395,-2.995 6.834,-5.924 10.343,-8.772c0,0 4.011,-3.245 7.868,-6.167c0,0 4.552,-3.435 8.783,-6.409c10.9,-7.662 22.32,-14.583 34.175,-20.771c42.241,-22.046 89.989,-33.698 138.062,-33.917c0.655,-0.001 1.309,-0.001 1.964,0Zm-4.293,156.538c4.831,0 9.651,0.259 14.465,0.802l4.782,0.598c2.137,0.327 4.275,0.658 6.401,1.076c0,0 3.696,0.761 3.696,0.761c4.575,1.029 9.117,2.239 13.562,3.733c0,0 5.434,1.893 8.057,2.947c2.673,1.074 5.311,2.246 7.903,3.471c0,0 1.315,0.633 1.315,0.633c2.607,1.303 5.197,2.639 7.723,4.097c0,0 4.212,2.502 4.212,2.502c1.408,0.884 3.236,2.067 3.236,2.067c1.949,1.305 2.591,1.741 4.063,2.784c0.906,0.643 2.032,1.469 2.032,1.469c1.42,1.065 3.294,2.508 3.294,2.508c1.097,0.875 2.563,2.064 2.563,2.064c0.656,0.549 1.311,1.097 1.961,1.654c0.633,0.541 0.786,0.673 0.786,0.673c1.781,1.563 3.538,3.158 5.244,4.805c0,0 3.504,3.37 6.115,6.274c0,0 1.998,2.226 1.998,2.226c0.952,1.111 1.623,1.888 1.623,1.888c1.378,1.667 2.764,3.338 4.073,5.065c0,0 2.209,2.954 2.209,2.954c0.522,0.731 0.648,0.869 1.673,2.361c0,0 1.241,1.812 1.241,1.812c0.765,1.171 1.799,2.753 1.799,2.753c0.634,1.01 1.489,2.392 1.489,2.392c0.497,0.826 0.989,1.657 1.477,2.488c0.342,0.584 0.219,0.383 0.777,1.358c0,0 0.802,1.427 0.802,1.427c2.951,5.444 2.367,4.501 2.63,5.032c0,0 1.796,3.745 1.796,3.745c0.91,2.022 2.143,4.908 2.143,4.908c0.723,1.776 1.627,4.117 1.627,4.117c0,0 0.636,1.739 0.636,1.739c1.254,3.433 0.973,2.766 1.153,3.319c0,0 0.671,2.064 0.671,2.064c0.361,1.173 0.839,2.759 0.839,2.759c0.504,1.764 1.162,4.233 1.162,4.233l0.527,2.11l0.564,2.437c0.231,1.073 0.53,2.503 0.53,2.503c0.519,2.659 0.854,4.638 0.854,4.638c0.393,2.434 0.652,4.329 0.652,4.329l0.237,1.853l0.206,1.846l0.073,0.657c0.102,1.068 0.233,2.509 0.233,2.509c0.373,4.737 0.34,5.017 0.379,6.266c0,0 0.068,2.202 0.068,2.202l0.034,2.208c0,1.973 -0.049,4.74 -0.049,4.74c-0.135,4.305 -0.205,4.871 -0.315,6.266c0,0 -0.173,2.192 -0.173,2.192c-0.062,0.65 -0.054,0.76 -0.244,2.466c0,0 -0.212,1.9 -0.212,1.9c-0.136,1.068 -0.326,2.507 -0.326,2.507c-0.346,2.403 -0.678,4.353 -0.678,4.353c-0.19,1.063 -0.446,2.468 -0.446,2.468c-0.951,4.835 -1.326,6.338 -2.005,8.883c0,0 -0.743,2.748 -0.743,2.748c-0.925,3.21 -1.356,4.5 -1.356,4.5c-0.332,1.023 -0.793,2.401 -0.793,2.401c-0.591,1.712 -0.842,2.385 -0.842,2.385l-0.636,1.739c-0.443,1.148 -1.047,2.693 -1.047,2.693c-1.142,2.804 -1.966,4.653 -1.966,4.653c-1.104,2.452 -0.897,1.98 -1.044,2.296c-0.331,0.71 -0.391,0.863 -1.091,2.276c0,0 -1.122,2.253 -1.122,2.253c-0.639,1.232 -1.527,2.897 -1.527,2.897c-0.471,0.861 -0.883,1.604 -0.883,1.604c-0.741,1.296 -1.439,2.511 -1.439,2.511c-0.611,1.024 -1.455,2.418 -1.455,2.418c-0.671,1.081 -1.586,2.52 -1.586,2.52c-0.601,0.92 -1.38,2.099 -1.38,2.099c-0.517,0.753 -1.014,1.491 -1.014,1.491c-1.95,2.759 -3.95,5.511 -6.089,8.156c0,0 -2.093,2.546 -2.093,2.546c-1.553,1.811 -3.825,4.34 -3.825,4.34c-0.957,1.027 -2.259,2.403 -2.259,2.403c-0.9,0.921 -2.101,2.132 -2.101,2.132c-0.453,0.442 -0.805,0.796 -0.805,0.796c-2.2,2.123 -4.438,4.213 -6.776,6.195c0,0 -1.85,1.574 -3.182,2.646c-2.791,2.249 -5.663,4.399 -8.62,6.41l-2.111,1.422c-1.868,1.209 -4.505,2.843 -4.505,2.843c-1.113,0.664 -2.56,1.51 -2.56,1.51c-0.381,0.216 -0.761,0.433 -1.144,0.648c-3.369,1.89 -6.807,3.654 -10.327,5.254c0,0 -2.303,1.03 -2.303,1.03c-1.5,0.642 -3.55,1.485 -3.55,1.485c-1.626,0.642 -3.875,1.491 -3.875,1.491c-2.499,0.904 -3.748,1.317 -3.748,1.317c-1.205,0.387 -2.751,0.886 -2.751,0.886c-3.834,1.17 -7.697,2.231 -11.619,3.066c0,0 -3.322,0.681 -3.322,0.681c0,0 -9.555,1.585 -14.654,2.007c-8.03,0.665 -16.102,0.658 -24.172,-0.111c0,0 -6.859,-0.662 -12.453,-1.716c0,0 -3.459,-0.66 -5.99,-1.246c-4.128,-0.955 -8.219,-2.081 -12.225,-3.428c0,0 -3.342,-1.126 -5.703,-2.026c-2.08,-0.793 -4.147,-1.624 -6.184,-2.531c0,0 -2.001,-0.882 -4.073,-1.861l-1.315,-0.633c-1.659,-0.829 -3.972,-2.029 -3.972,-2.029c0,0 -2.576,-1.389 -4.664,-2.593l-2.03,-1.201c-0.631,-0.39 -1.269,-0.776 -1.269,-0.776c-3.075,-1.93 -6.087,-3.926 -8.983,-6.068c0,0 -3.148,-2.304 -5.875,-4.557c0,0 -4.862,-4.116 -8.025,-7.112c-1.194,-1.131 0.017,0.065 -2.136,-2.092c-0.705,-0.706 -1.406,-1.416 -2.092,-2.137c-1.007,-1.057 -2.392,-2.556 -2.392,-2.556c-1.46,-1.624 -3.412,-3.889 -3.412,-3.889c-1.545,-1.871 -3.094,-3.747 -4.556,-5.697c0,0 -1.726,-2.323 -1.726,-2.323c-2.595,-3.632 -1.669,-2.129 -4.501,-6.598c0,0 -1.701,-2.719 -1.701,-2.719c-0.811,-1.348 -1.613,-2.706 -2.383,-4.073c-0.438,-0.778 -0.525,-0.936 -0.525,-0.936c-1.481,-2.707 -1.631,-3.012 -2.211,-4.172c0,0 -1.289,-2.591 -1.289,-2.591c-0.468,-0.989 -1.074,-2.279 -1.074,-2.279c-2.095,-4.651 -1.774,-4.016 -2.021,-4.622c0,0 -1.071,-2.546 -1.856,-4.696c0,0 -0.375,-1.006 -0.637,-1.739c-0.243,-0.681 -0.332,-0.928 -0.332,-0.928c-0.219,-0.635 -0.269,-0.731 -0.713,-2.098c0,0 -0.671,-2.064 -0.671,-2.064c-0.361,-1.172 -0.839,-2.759 -0.839,-2.759c-0.665,-2.329 -1.162,-4.233 -1.162,-4.233c-0.638,-2.552 -0.956,-3.962 -0.956,-3.962c0,0 -0.665,-3.088 -0.665,-3.088c-0.362,-1.855 -0.799,-4.297 -0.799,-4.297c-0.173,-1.072 -0.399,-2.499 -0.399,-2.499c-0.136,-0.949 -0.265,-1.831 -0.265,-1.831c-0.153,-1.2 -0.357,-2.833 -0.357,-2.833c-0.321,-2.893 -0.435,-4.371 -0.435,-4.371c-0.373,-4.738 -0.34,-5.018 -0.379,-6.267l-0.063,-1.877c-0.019,-1.197 -0.039,-2.532 -0.039,-2.532l0,-1.877c0.048,-3.129 0.113,-4.737 0.113,-4.737c0.091,-1.96 0.271,-4.716 0.271,-4.716c0.231,-2.933 0.398,-4.391 0.398,-4.391c0.287,-2.567 0.491,-4.037 0.491,-4.037c0.154,-1.058 0.365,-2.484 0.365,-2.484c0.157,-0.969 0.299,-1.846 0.299,-1.846c0.66,-3.69 0.938,-4.976 0.938,-4.976c0.54,-2.514 0.812,-3.644 0.812,-3.644c0,0 0.838,-3.371 0.838,-3.371c0.622,-2.333 1.185,-4.23 1.185,-4.23c0.35,-1.15 0.837,-2.715 0.837,-2.715c0.332,-1.023 0.793,-2.401 0.793,-2.401c0.351,-1.016 0.836,-2.385 0.836,-2.385c1.177,-3.222 1.689,-4.431 1.689,-4.431c0.66,-1.622 1.087,-2.622 1.087,-2.622c0,0 0.727,-1.695 0.727,-1.695c1.191,-2.642 1.348,-2.958 1.736,-3.773c0,0 1.673,-3.388 1.673,-3.388c0.724,-1.396 1.462,-2.787 2.227,-4.167c0.436,-0.787 0.52,-0.933 0.52,-0.933c0.637,-1.115 1.102,-1.913 1.102,-1.913c0.611,-1.024 1.455,-2.418 1.455,-2.418c0.671,-1.08 1.586,-2.52 1.586,-2.52c2.967,-4.541 2.625,-3.926 3.067,-4.554c1.736,-2.472 1.981,-2.761 2.764,-3.796c1.45,-1.915 2.939,-3.803 4.489,-5.632c0,0 1.879,-2.197 1.879,-2.197c0.921,-1.036 2.202,-2.453 2.202,-2.453c0.957,-1.027 2.259,-2.403 2.259,-2.403c0.602,-0.615 1.204,-1.23 1.812,-1.839c0.579,-0.58 0.723,-0.723 0.723,-0.723c1.6,-1.564 1.291,-1.25 1.484,-1.437c0,0 2.462,-2.319 4.101,-3.767c1.78,-1.572 3.594,-3.106 5.463,-4.577c0,0 2.656,-2.095 5.109,-3.872c0,0 4.903,-3.386 4.903,-3.386c1.62,-1.049 3.236,-2.067 3.236,-2.067c2.207,-1.337 1.706,-1.046 3.436,-2.055c1.674,-0.977 4.019,-2.247 4.019,-2.247c2.581,-1.362 5.189,-2.679 7.845,-3.886c0,0 4.633,-2.125 9.343,-3.86l2.376,-0.859c0.874,-0.301 1.757,-0.603 1.757,-0.603c1.205,-0.388 2.751,-0.887 2.751,-0.887c4.637,-1.415 9.287,-2.65 14.094,-3.58c0,0 3.735,-0.729 6.753,-1.167c0,0 3.602,-0.525 6.549,-0.806c0,0 5.707,-0.522 10.186,-0.627c1.002,-0.023 2.005,-0.043 3.007,-0.043c0.47,-0.004 0.47,-0.004 0.94,0Z" style="fill:url(#_Linear1);"/><defs><linearGradient id="_Linear1" x1="0" y1="0" x2="1" y2="0" gradientUnits="userSpaceOnUse" gradientTransform="matrix(4.87317e-14,795.849,-795.849,4.87317e-14,324.063,19.0456)"><stop offset="0" style="stop-color:#43bfdd;stop-opacity:1"/><stop offset="0.51" style="stop-color:#5ea9e5;stop-opacity:1"/><stop offset="1" style="stop-color:#b461fe;stop-opacity:1"/></linearGradient></defs></svg>