<?xml version="1.0" encoding="UTF-8" standalone="no"?>
<!DOCTYPE svg PUBLIC "-//W3C//DTD SVG 1.1//EN" "http://www.w3.org/Graphics/SVG/1.1/DTD/svg11.dtd">
<svg width="100%" height="100%" viewBox="0 0 810 868" version="1.1" xmlns="http://www.w3.org/2000/svg" xmlns:xlink="http://www.w3.org/1999/xlink" xml:space="preserve" xmlns:serif="http://www.serif.com/" style="fill-rule:evenodd;clip-rule:evenodd;stroke-linecap:round;stroke-linejoin:round;stroke-miterlimit:1.5;">
    <g transform="matrix(1,0,0,1,-43323,-24623)">
        <g id="Artboard1" transform="matrix(20.4718,0,0,18.5702,29333.6,1346.86)">
            <rect x="-43.649" y="-48.726" width="1430.07" height="1768.11" style="fill:none;"/>
            <g id="Cells" transform="matrix(0.654788,0,0,0.464723,-15.068,-26.4387)">
                <g transform="matrix(0.0805068,0,0,0.125048,212.931,2106)">
                    <rect x="10001.1" y="4412.99" width="1815.12" height="2123.71" style="fill:none;stroke:black;stroke-width:21.31px;"/>
                </g>
            </g>
            <g id="Labels">
            </g>
            <g id="Layer-1" serif:id="Layer 1">
            </g>
            <g transform="matrix(0.0488477,0,0,0.0538496,-1434.48,54.3028)">
                <path d="M43755.9,22268C43788.7,22268.2 43821.5,22273.6 43852.6,22284.2C43880.8,22293.8 43906.9,22307.5 43930.3,22324.2C43930.3,22324.2 43932.8,22326 43934.8,22327.5C43945.2,22335.2 43955,22343.6 43964.4,22352.6L43965.1,22353.2C43975,22362.9 43984.3,22373.3 43992.8,22384.2L43995.1,22387.1C43996.9,22389.5 43999.4,22392.9 43999.4,22392.9C44000.6,22394.6 44002.1,22396.6 44002.1,22396.6C44004.1,22399.6 44006.2,22402.6 44008.1,22405.6C44008.1,22405.6 44010.8,22409.8 44013,22413.3C44016.6,22419.3 44020,22425.4 44023.2,22431.6L44024.1,22433.2L44024.5,22434C44025.6,22436.2 44026.7,22438.4 44027.7,22440.6C44027.7,22440.6 44029,22443.4 44030,22445.6C44031.3,22448.4 44033,22452.3 44033,22452.3C44034,22454.9 44035.1,22457.4 44036.1,22460L44036.8,22461.7C44036.8,22461.7 44038.4,22466 44039.9,22470.4L44040.6,22472.2C44040.6,22472.2 44041.4,22474.6 44042,22476.6C44042.9,22479.4 44043.4,22480.8 44043.9,22482.7C44044.8,22485.5 44045.8,22489 44045.8,22489L44046.3,22490.8C44046.8,22492.8 44047.4,22495.3 44047.4,22495.3C44048.8,22500.8 44050.1,22506.3 44051.1,22511.8C44051.1,22511.8 44052.6,22519.4 44053.7,22526.7C44053.7,22526.7 44054.5,22532.8 44055.1,22538C44055.1,22538 44055.6,22543 44055.8,22546.6C44056.1,22549.8 44056.3,22553 44056.4,22556.2L44056.5,22557.2C44056.6,22559.8 44056.6,22562.3 44056.7,22564.9C44056.7,22564.9 44056.8,22569.5 44056.7,22573.2C44056.7,22573.2 44056.6,22577.4 44056.6,22577.4C44056.4,22580.4 44056.3,22583.3 44056,22586.2C44056,22586.2 44055.5,22591.8 44055,22596.4C44055,22596.4 44054.5,22600 44054.5,22600C44054.1,22602.8 44053.6,22605.7 44053.1,22608.5C44053.1,22608.5 44052.7,22611.3 44052.1,22614C44052.1,22614 44051.4,22617.6 44050.9,22620.4C44047.1,22637.9 44042.1,22655.1 44036.4,22672.2C44033.6,22680.5 44030.5,22688.7 44027.4,22697L44026.9,22698.3C44021.9,22711.3 44016.6,22724.1 44011,22736.8L44010.4,22738.2C44009.9,22739.1 44009.5,22740 44009.1,22740.9L44008.5,22742.3C44007,22745.6 44005.6,22748.9 44004.1,22752.1L44003.4,22753.5C43989.4,22784 43974.1,22814 43957.9,22843.7L43957.1,22845.2C43925.1,22903.6 43890.6,22960.6 43853.6,23017.8L43852.2,23019.9C43844.8,23031.2 43837.5,23042.5 43830,23053.7L43828.8,23055.5C43814.3,23077.2 43799.7,23098.8 43784.5,23120.1L43784.3,23120.3C43783.1,23121.8 43782,23123.4 43780.6,23124.7C43767.4,23138.2 43743.3,23139 43729.2,23124.7C43724.3,23119.7 43720.7,23113.4 43716.6,23107.6C43707.7,23094.9 43699,23082.1 43690.3,23069.3L43689.2,23067.7C43683.1,23058.6 43677.1,23049.5 43671.1,23040.4L43669.8,23038.5C43648.5,23006 43627.6,22973.2 43607.6,22940.2L43606.8,22938.9C43590.3,22911.7 43574.3,22884.2 43558.9,22856.4L43558.1,22855C43551,22841.9 43543.8,22828.8 43537,22815.6L43536.2,22814.2C43534.3,22810.4 43532.3,22806.6 43530.4,22802.9L43529.7,22801.4C43528.7,22799.6 43527.8,22797.7 43526.8,22795.8L43526.1,22794.4C43522.8,22787.8 43519.6,22781.2 43516.4,22774.6L43515.7,22773.2C43515.2,22772.3 43514.8,22771.3 43514.4,22770.4L43513.7,22769C43512.1,22765.7 43510.6,22762.4 43509,22759.1L43508.4,22757.7C43507.1,22754.9 43505.8,22752.1 43504.5,22749.3L43503.9,22747.9C43497.1,22732.8 43490.6,22717.7 43484.6,22702.4L43484,22701C43479.8,22690.2 43475.8,22679.3 43472.2,22668.3C43472.2,22668.3 43469.8,22661 43467.7,22654C43467.7,22654 43464.8,22644.1 43463.3,22638.5C43461.2,22630.3 43459.2,22622 43457.6,22613.5C43457.6,22613.5 43457.1,22610.7 43456.7,22608.5C43456,22604.3 43455.4,22600.1 43454.9,22595.9C43454.9,22595.9 43454.3,22591.4 43454,22587.5C43453.5,22582.8 43453.3,22578.1 43453.2,22573.4C43453.2,22573.4 43453.1,22567.2 43453.2,22563C43453.3,22560.4 43453.4,22557.9 43453.5,22555.3C43453.5,22555.3 43453.8,22549.5 43454.3,22543.7C43454.3,22543.7 43454.5,22540.5 43454.8,22538C43455.1,22535.3 43455.1,22535.2 43455.2,22534.3C43457.2,22517.7 43460.5,22501.1 43465.1,22485.4C43465.1,22485.4 43468.1,22475.6 43470.2,22469.6C43471.3,22466.4 43472.5,22463.2 43473.8,22460C43473.8,22460 43475.4,22455.8 43476.9,22452.4C43483.5,22436.6 43491.6,22421.5 43500.7,22407.2C43501.2,22406.4 43501.2,22406.4 43501.7,22405.6C43503.4,22403.1 43505.1,22400.6 43506.8,22398.1L43507.3,22397.4C43508.9,22395.1 43510.4,22392.9 43512.1,22390.7L43513.2,22389.2C43513.2,22389.2 43517.1,22383.9 43520.9,22379.3C43520.9,22379.3 43523.3,22376.5 43523.3,22376.5C43526.6,22372.5 43529.9,22368.7 43533.4,22364.9L43536.5,22361.6C43540.7,22357.3 43545,22353 43549.4,22348.9C43549.4,22348.9 43554.7,22344 43554.7,22344C43558.1,22341 43561.6,22338.1 43565.1,22335.3C43565.1,22335.3 43569.1,22332 43572.9,22329.1C43572.9,22329.1 43577.5,22325.7 43581.7,22322.7C43592.6,22315 43604,22308.1 43615.9,22301.9C43658.1,22279.9 43705.9,22268.2 43754,22268C43754.6,22268 43755.3,22268 43755.9,22268ZM43751.6,22424.5C43756.5,22424.5 43761.3,22424.8 43766.1,22425.3L43770.9,22425.9C43773,22426.3 43775.1,22426.6 43777.3,22427C43777.3,22427 43781,22427.8 43781,22427.8C43785.5,22428.8 43790.1,22430 43794.5,22431.5C43794.5,22431.5 43800,22433.4 43802.6,22434.5C43805.3,22435.5 43807.9,22436.7 43810.5,22437.9C43810.5,22437.9 43811.8,22438.6 43811.8,22438.6C43814.4,22439.9 43817,22441.2 43819.5,22442.7C43819.5,22442.7 43823.7,22445.2 43823.7,22445.2C43825.1,22446 43827,22447.2 43827,22447.2C43828.9,22448.5 43829.6,22449 43831,22450C43831.9,22450.7 43833.1,22451.5 43833.1,22451.5C43834.5,22452.6 43836.4,22454 43836.4,22454C43837.5,22454.9 43838.9,22456.1 43838.9,22456.1C43839.6,22456.6 43840.2,22457.2 43840.9,22457.7C43841.5,22458.3 43841.7,22458.4 43841.7,22458.4C43843.5,22459.9 43845.2,22461.5 43846.9,22463.2C43846.9,22463.2 43850.4,22466.6 43853,22469.5C43853,22469.5 43855,22471.7 43855,22471.7C43856,22472.8 43856.7,22473.6 43856.7,22473.6C43858,22475.2 43859.4,22476.9 43860.7,22478.6C43860.7,22478.6 43862.9,22481.6 43862.9,22481.6C43863.5,22482.3 43863.6,22482.5 43864.6,22484C43864.6,22484 43865.8,22485.8 43865.8,22485.8C43866.6,22486.9 43867.6,22488.5 43867.6,22488.5C43868.3,22489.5 43869.1,22490.9 43869.1,22490.9C43869.6,22491.7 43870.1,22492.6 43870.6,22493.4C43871,22494 43870.8,22493.8 43871.4,22494.8C43871.4,22494.8 43872.2,22496.2 43872.2,22496.2C43875.1,22501.6 43874.6,22500.7 43874.8,22501.2C43874.8,22501.2 43876.6,22505 43876.6,22505C43877.5,22507 43878.8,22509.9 43878.8,22509.9C43879.5,22511.6 43880.4,22514 43880.4,22514C43880.4,22514 43881,22515.7 43881,22515.7C43882.3,22519.2 43882,22518.5 43882.2,22519C43882.2,22519 43882.8,22521.1 43882.8,22521.1C43883.2,22522.3 43883.7,22523.9 43883.7,22523.9C43884.2,22525.6 43884.8,22528.1 43884.8,22528.1L43885.4,22530.2L43885.9,22532.7C43886.2,22533.7 43886.5,22535.2 43886.5,22535.2C43887,22537.8 43887.3,22539.8 43887.3,22539.8C43887.7,22542.2 43888,22544.1 43888,22544.1L43888.2,22546L43888.4,22547.8L43888.5,22548.5C43888.6,22549.5 43888.7,22551 43888.7,22551C43889.1,22555.7 43889.1,22556 43889.1,22557.3C43889.1,22557.3 43889.2,22559.5 43889.2,22559.5L43889.2,22561.7C43889.2,22563.6 43889.2,22566.4 43889.2,22566.4C43889,22570.7 43889,22571.3 43888.8,22572.7C43888.8,22572.7 43888.7,22574.9 43888.7,22574.9C43888.6,22575.5 43888.6,22575.6 43888.4,22577.3C43888.4,22577.3 43888.2,22579.2 43888.2,22579.2C43888.1,22580.3 43887.9,22581.7 43887.9,22581.7C43887.5,22584.1 43887.2,22586.1 43887.2,22586.1C43887,22587.1 43886.8,22588.6 43886.8,22588.6C43885.8,22593.4 43885.4,22594.9 43884.8,22597.4C43884.8,22597.4 43884,22600.2 43884,22600.2C43883.1,22603.4 43882.7,22604.7 43882.7,22604.7C43882.3,22605.7 43881.9,22607.1 43881.9,22607.1C43881.3,22608.8 43881,22609.5 43881,22609.5L43880.4,22611.2C43879.9,22612.4 43879.3,22613.9 43879.3,22613.9C43878.2,22616.7 43877.4,22618.6 43877.4,22618.6C43876.3,22621 43876.5,22620.5 43876.3,22620.9C43876,22621.6 43875.9,22621.7 43875.2,22623.1C43875.2,22623.1 43874.1,22625.4 43874.1,22625.4C43873.5,22626.6 43872.6,22628.3 43872.6,22628.3C43872.1,22629.1 43871.7,22629.9 43871.7,22629.9C43871,22631.2 43870.3,22632.4 43870.3,22632.4C43869.7,22633.4 43868.8,22634.8 43868.8,22634.8C43868.1,22635.9 43867.2,22637.3 43867.2,22637.3C43866.6,22638.3 43865.8,22639.4 43865.8,22639.4C43865.3,22640.2 43864.8,22640.9 43864.8,22640.9C43862.9,22643.7 43860.9,22646.4 43858.7,22649.1C43858.7,22649.1 43856.7,22651.6 43856.7,22651.6C43855.1,22653.4 43852.8,22656 43852.8,22656C43851.9,22657 43850.6,22658.4 43850.6,22658.4C43849.7,22659.3 43848.5,22660.5 43848.5,22660.5C43848,22660.9 43847.7,22661.3 43847.7,22661.3C43845.5,22663.4 43843.2,22665.5 43840.9,22667.5C43840.9,22667.5 43839,22669.1 43837.7,22670.1C43834.9,22672.4 43832,22674.5 43829.1,22676.5L43827,22678C43825.1,22679.2 43822.5,22680.8 43822.5,22680.8C43821.4,22681.5 43819.9,22682.3 43819.9,22682.3C43819.5,22682.5 43819.1,22682.8 43818.8,22683C43815.4,22684.9 43812,22686.6 43808.4,22688.2C43808.4,22688.2 43806.1,22689.3 43806.1,22689.3C43804.6,22689.9 43802.6,22690.7 43802.6,22690.7C43801,22691.4 43798.7,22692.2 43798.7,22692.2C43796.2,22693.1 43795,22693.5 43795,22693.5C43793.8,22693.9 43792.2,22694.4 43792.2,22694.4C43788.4,22695.6 43784.5,22696.7 43780.6,22697.5C43780.6,22697.5 43777.3,22698.2 43777.3,22698.2C43777.3,22698.2 43767.7,22699.8 43762.6,22700.2C43754.6,22700.9 43746.5,22700.8 43738.4,22700.1C43738.4,22700.1 43731.6,22699.4 43726,22698.4C43726,22698.4 43722.5,22697.7 43720,22697.1C43715.9,22696.2 43711.8,22695 43707.8,22693.7C43707.8,22693.7 43704.4,22692.6 43702.1,22691.7C43700,22690.9 43697.9,22690 43695.9,22689.1C43695.9,22689.1 43693.9,22688.2 43691.8,22687.3L43690.5,22686.6C43688.8,22685.8 43686.5,22684.6 43686.5,22684.6C43686.5,22684.6 43684,22683.2 43681.9,22682L43679.8,22680.8C43679.2,22680.4 43678.6,22680 43678.6,22680C43675.5,22678.1 43672.5,22676.1 43669.6,22674C43669.6,22674 43666.4,22671.7 43663.7,22669.4C43663.7,22669.4 43658.8,22665.3 43655.7,22662.3C43654.5,22661.2 43655.7,22662.4 43653.5,22660.2C43652.8,22659.5 43652.1,22658.8 43651.5,22658.1C43650.4,22657 43649.1,22655.5 43649.1,22655.5C43647.6,22653.9 43645.7,22651.6 43645.7,22651.6C43644.1,22649.8 43642.6,22647.9 43641.1,22645.9C43641.1,22645.9 43639.4,22643.6 43639.4,22643.6C43636.8,22640 43637.7,22641.5 43634.9,22637C43634.9,22637 43633.2,22634.3 43633.2,22634.3C43632.4,22632.9 43631.6,22631.6 43630.8,22630.2C43630.3,22629.4 43630.3,22629.3 43630.3,22629.3C43628.8,22626.6 43628.6,22626.3 43628,22625.1C43628,22625.1 43626.8,22622.5 43626.8,22622.5C43626.3,22621.5 43625.7,22620.2 43625.7,22620.2C43623.6,22615.6 43623.9,22616.2 43623.7,22615.6C43623.7,22615.6 43622.6,22613.1 43621.8,22610.9C43621.8,22610.9 43621.4,22609.9 43621.2,22609.2C43620.9,22608.5 43620.8,22608.2 43620.8,22608.2C43620.6,22607.6 43620.6,22607.5 43620.1,22606.2C43620.1,22606.2 43619.5,22604.1 43619.5,22604.1C43619.1,22602.9 43618.6,22601.3 43618.6,22601.3C43618,22599 43617.5,22597.1 43617.5,22597.1C43616.8,22594.5 43616.5,22593.1 43616.5,22593.1C43616.5,22593.1 43615.8,22590 43615.8,22590C43615.5,22588.2 43615,22585.7 43615,22585.7C43614.9,22584.7 43614.6,22583.2 43614.6,22583.2C43614.5,22582.3 43614.4,22581.4 43614.4,22581.4C43614.2,22580.2 43614,22578.6 43614,22578.6C43613.7,22575.7 43613.6,22574.2 43613.6,22574.2C43613.2,22569.5 43613.2,22569.2 43613.2,22567.9L43613.1,22566.1C43613.1,22564.9 43613.1,22563.5 43613.1,22563.5L43613.1,22561.7C43613.1,22558.5 43613.2,22556.9 43613.2,22556.9C43613.3,22555 43613.5,22552.2 43613.5,22552.2C43613.7,22549.3 43613.9,22547.8 43613.9,22547.8C43614.2,22545.3 43614.4,22543.8 43614.4,22543.8C43614.5,22542.7 43614.7,22541.3 43614.7,22541.3C43614.9,22540.3 43615,22539.5 43615,22539.5C43615.7,22535.8 43616,22534.5 43616,22534.5C43616.5,22532 43616.8,22530.8 43616.8,22530.8C43616.8,22530.8 43617.6,22527.5 43617.6,22527.5C43618.2,22525.1 43618.8,22523.2 43618.8,22523.2C43619.2,22522.1 43619.6,22520.5 43619.6,22520.5C43620,22519.5 43620.4,22518.1 43620.4,22518.1C43620.8,22517.1 43621.3,22515.7 43621.3,22515.7C43622.5,22512.5 43623,22511.3 43623,22511.3C43623.6,22509.7 43624,22508.7 43624,22508.7C43624,22508.7 43624.8,22507 43624.8,22507C43626,22504.3 43626.1,22504 43626.5,22503.2C43626.5,22503.2 43628.2,22499.8 43628.2,22499.8C43628.9,22498.4 43629.6,22497 43630.4,22495.7C43630.8,22494.9 43630.9,22494.7 43630.9,22494.7C43631.6,22493.6 43632,22492.8 43632,22492.8C43632.6,22491.8 43633.5,22490.4 43633.5,22490.4C43634.2,22489.3 43635.1,22487.9 43635.1,22487.9C43638,22483.3 43637.7,22483.9 43638.1,22483.3C43639.9,22480.8 43640.1,22480.6 43640.9,22479.5C43642.4,22477.6 43643.8,22475.7 43645.4,22473.9C43645.4,22473.9 43647.3,22471.7 43647.3,22471.7C43648.2,22470.7 43649.5,22469.2 43649.5,22469.2C43650.4,22468.2 43651.7,22466.8 43651.7,22466.8C43652.3,22466.2 43652.9,22465.6 43653.5,22465C43654.1,22464.4 43654.3,22464.3 43654.3,22464.3C43655.9,22462.7 43655.6,22463 43655.8,22462.8C43655.8,22462.8 43658.2,22460.5 43659.9,22459.1C43661.6,22457.5 43663.4,22456 43665.3,22454.5C43665.3,22454.5 43668,22452.4 43670.4,22450.6C43670.4,22450.6 43675.3,22447.2 43675.3,22447.2C43677,22446.2 43678.6,22445.2 43678.6,22445.2C43680.8,22443.8 43680.3,22444.1 43682,22443.1C43683.7,22442.1 43686,22440.9 43686,22440.9C43688.6,22439.5 43691.2,22438.2 43693.9,22437C43693.9,22437 43698.5,22434.9 43703.2,22433.1L43705.6,22432.3C43706.5,22432 43707.3,22431.7 43707.3,22431.7C43708.5,22431.3 43710.1,22430.8 43710.1,22430.8C43714.7,22429.4 43719.4,22428.1 43724.2,22427.2C43724.2,22427.2 43727.9,22426.5 43730.9,22426C43730.9,22426 43734.5,22425.5 43737.5,22425.2C43737.5,22425.2 43743.2,22424.7 43747.7,22424.6C43748.7,22424.6 43749.7,22424.5 43750.7,22424.5C43751.2,22424.5 43751.2,22424.5 43751.6,22424.5Z" style="fill:white;"/>
            </g>
        </g>
    </g>
</svg>
