<svg xmlns="http://www.w3.org/2000/svg" width="15" height="22" viewBox="0 0 15 22">
	<g>
		<g clip-path="url(#clip-5CCBD88F-0AA1-0AA3-ABE3-EC559B729906)">
			<path d="M7.423 3.972c.12 0 .24.006.36.02l.119.015.159.027.092.02a3.354 3.354 0 0 1 .735.257l.032.016c.065.033.13.067.193.104l.104.064a8.42 8.42 0 0 1 .182.123l.05.037.083.064.063.052.05.042.019.017a3.772 3.772 0 0 1 .283.281l.05.057.04.048c.034.042.069.084.101.128l.055.075.042.06.03.046a351.8 351.8 0 0 1 .082.13l.037.064.02.034.02.036c.073.138.058.114.065.128l.045.095a8.744 8.744 0 0 1 .093.229l.016.044c.032.087.025.07.029.084l.017.053.02.07.03.107.013.053.014.062.013.064.021.117.016.11.006.047.005.047.002.017.006.063c.01.12.008.128.01.16l.001.055v.176c-.004.11-.005.124-.008.16l-.004.055-.007.063-.005.048-.008.064-.017.11-.01.063a2.88 2.88 0 0 1-.05.225l-.02.07c-.022.081-.033.114-.033.114l-.02.06-.02.061-.017.044a4.31 4.31 0 0 1-.075.186l-.026.059-.027.058-.028.057-.038.073-.022.041-.035.064-.037.061c-.016.028-.04.064-.04.064l-.033.053-.026.038a4 4 0 0 1-.151.207l-.052.065-.096.11-.056.06-.052.055-.02.02c-.055.054-.11.107-.169.157l-.079.067c-.07.057-.14.112-.214.163l-.053.036-.112.072-.064.039-.028.016a3.38 3.38 0 0 1-.257.133l-.058.026-.088.038-.096.038-.094.033-.068.023c-.096.03-.192.056-.29.078l-.082.017s-.238.04-.365.05c-.2.018-.4.017-.601-.002 0 0-.171-.017-.31-.044 0 0-.086-.016-.15-.031a3.218 3.218 0 0 1-.304-.087s-.083-.029-.142-.052a2.977 2.977 0 0 1-.154-.064s-.05-.022-.101-.047l-.033-.016a9.148 9.148 0 0 1-.099-.051l-.116-.066-.05-.03-.032-.02a3.538 3.538 0 0 1-.223-.154s-.079-.059-.147-.116c0 0-.12-.104-.2-.18l-.052-.054a3.165 3.165 0 0 1-.197-.217 3.928 3.928 0 0 1-.113-.145l-.043-.059c-.065-.092-.042-.054-.112-.167l-.043-.07a4.103 4.103 0 0 1-.072-.126c-.037-.069-.04-.077-.055-.106l-.032-.066a51.61 51.61 0 0 1-.027-.058c-.052-.118-.044-.101-.05-.117 0 0-.027-.064-.046-.119l-.016-.044-.009-.024-.017-.053-.017-.052-.02-.07-.03-.108-.024-.1-.016-.079a8.778 8.778 0 0 1-.02-.109l-.01-.063-.007-.046-.008-.072-.011-.111c-.01-.12-.009-.127-.01-.16l-.001-.047-.001-.064V7.45l.003-.12.006-.12.01-.11.012-.103a21.457 21.457 0 0 1 .017-.11c.016-.094.023-.126.023-.126l.02-.093.021-.085.03-.108.02-.069.02-.06.021-.061.042-.112.027-.067.018-.043.044-.096.041-.086.056-.105.013-.024.027-.049.036-.06.04-.065c.074-.115.065-.1.076-.115.043-.063.05-.07.069-.097.036-.048.073-.096.112-.143l.046-.055.055-.063.056-.06.046-.047L5 4.979l.036-.036.103-.096c.044-.04.089-.078.136-.116 0 0 .066-.053.127-.098l.122-.086.08-.052.086-.052c.041-.025.1-.057.1-.057.064-.035.129-.068.195-.099 0 0 .115-.054.233-.098l.059-.022.043-.015.069-.023c.115-.035.231-.067.35-.09 0 0 .094-.019.169-.03 0 0 .09-.013.163-.02 0 0 .142-.014.253-.016l.075-.001h.024zM7.475 0a7.394 7.394 0 0 0-4.28 1.388c-.105.075-.218.162-.218.162-.096.074-.196.157-.196.157a8.173 8.173 0 0 0-.257.222l-.133.124a7.96 7.96 0 0 0-.32.323l-.077.083c-.086.095-.17.193-.252.292l-.058.072c-.094.118-.193.253-.193.253l-.027.037-.119.169-.013.019a7.708 7.708 0 0 0-.125.19l-.025.04a7.687 7.687 0 0 0-.758 1.583c-.053.152-.127.403-.127.403a7.718 7.718 0 0 0-.246 1.238l-.01.096-.014.145c-.012.145-.019.294-.019.294l-.007.194a5.04 5.04 0 0 0 .018.622l.023.212c.013.108.029.215.047.321l.022.127c.04.214.088.425.141.634a14.502 14.502 0 0 0 .221.757c.09.277.19.554.294.83l.014.034c.148.387.31.771.48 1.155l.015.036.096.213.016.035.116.25.017.036c.01.024.022.048.033.071l.017.036c.08.168.16.335.242.502l.018.036.07.143.019.036.144.286.019.036c.17.336.348.67.525 1l.02.036c.382.705.781 1.403 1.19 2.093l.02.033a78.992 78.992 0 0 0 1.546 2.494l.032.05.451.69.028.042c.214.325.431.649.651.97.102.15.192.308.316.436a.904.904 0 0 0 1.276 0c.033-.035.061-.074.091-.111l.004-.006c.379-.54.742-1.088 1.102-1.639l.03-.046c.186-.284.37-.57.552-.857l.035-.055a69.25 69.25 0 0 0 2.573-4.38l.02-.035c.402-.755.782-1.515 1.131-2.29l.016-.035.11-.248.015-.036.03-.07.016-.035c.139-.322.27-.647.396-.976l.012-.034c.079-.209.154-.418.223-.63a12.094 12.094 0 0 0 .392-1.474l.025-.14c.012-.072.023-.144.033-.217l.012-.09c.015-.116.027-.258.027-.258.006-.074.01-.15.013-.224L15 7.743c.002-.095 0-.21 0-.21a8.75 8.75 0 0 0-.005-.196l-.001-.026a8.112 8.112 0 0 0-.034-.46c-.013-.132-.035-.288-.035-.288a7.993 7.993 0 0 0-.155-.796l-.029-.114-.012-.045-.045-.16a6.838 6.838 0 0 0-.048-.157l-.037-.111-.015-.046c-.038-.11-.079-.219-.079-.219l-.017-.045a9.498 9.498 0 0 0-.077-.194l-.074-.171c-.024-.056-.057-.125-.057-.125a8.254 8.254 0 0 0-.08-.168l-.01-.02-.02-.041a7.58 7.58 0 0 0-.256-.464 8.928 8.928 0 0 0-.272-.424l-.065-.094-.108-.149-.055-.072a7.875 7.875 0 0 0-.691-.785l-.017-.017a7.665 7.665 0 0 0-.736-.637l-.11-.082A7.411 7.411 0 0 0 9.926.41 7.41 7.41 0 0 0 7.476 0z"></path>
		</g>
	</g>
</svg>