<svg xmlns="http://www.w3.org/2000/svg" width="113" height="21" viewBox="0 0 113 21"><path fill="#271957" d="M110.057 12.535c0 3.033-2.535 5.575-5.56 5.575-3.025 0-5.641-2.624-5.641-5.657.081-3.034 2.616-5.575 5.723-5.575 3.107.082 5.56 2.541 5.478 5.657zM113 11.387c-.082-.246-.164-.492-.245-.82-.9-3.69-4.17-6.395-7.93-6.559a8.402 8.402 0 0 0-8.34 5.657c-1.227 3.526-.082 7.461 2.943 9.675 2.943 2.213 7.031 2.213 10.056 0 .246-.164.573-.328.981-.656v2.296H113v-9.593zM2.931 0v13.7l8.374-9.352h4.02a467.116 467.116 0 0 0-6.616 7.547C11.39 14.848 14.07 17.8 17 21h-3.852s-4.439-4.758-6.365-6.89a523.149 523.149 0 0 1-3.768 4.1V21H0V0h2.931zm63.112 0v4.375H71v2.89h-4.87c0 3.054-.087 5.943 0 8.75.087 1.32 1.305 2.146 3.044 2.394.609.082 1.217.082 1.826.165v2.229c-2 .33-3.913.33-5.652-.66-1.565-.826-2.348-2.147-2.348-3.88V0h3.043zM22 0v2h-3V0zm6.013 21h-3.004s-.083-6.257.25-9.266c.501-3.96 4.339-6.812 8.427-6.732 4.255.158 7.842 3.01 8.176 7.128.25 2.93.084 8.87.084 8.87h-2.837v-7.762c-.084-2.692-1.836-4.752-4.422-5.306-2.586-.475-5.09.713-6.09 2.93-.334.792-.5 1.743-.5 2.614-.168 2.614-.084 7.524-.084 7.524zM95 16.552c-1.333 3.133-5.583 5.03-9.166 4.287-4.083-.907-6.916-4.452-6.832-8.574.083-4.04 3.083-7.42 7.332-8.162 3.25-.577 7.5 1.32 8.666 4.37h-3.583s-.5-.495-1-.825c-2.25-1.566-5.416-.907-7.249 1.237-1.75 2.061-1.833 5.111-.083 7.173 1.75 2.143 4.75 2.72 7.249 1.319.833-.495 1.166-.825 1.166-.825H95zM22 5v16h-2.914L19 5zm54-5v2h-3V0zm0 5v16h-2.914L73 5zm-32 6h17v3H44zm17-3H44V5.846S44.757 5 52.5 5s8.5.846 8.5.846zM44 18h17v2.154s-.757.846-8.5.846-8.5-.846-8.5-.846V18z"/></svg>