<?xml version="1.0" encoding="UTF-8" standalone="no"?>
<!DOCTYPE svg PUBLIC "-//W3C//DTD SVG 1.1//EN" "http://www.w3.org/Graphics/SVG/1.1/DTD/svg11.dtd">
<svg width="100%" height="100%" viewBox="0 0 1089 703" version="1.1" xmlns="http://www.w3.org/2000/svg" xmlns:xlink="http://www.w3.org/1999/xlink" xml:space="preserve" xmlns:serif="http://www.serif.com/" style="fill-rule:evenodd;clip-rule:evenodd;stroke-linejoin:round;stroke-miterlimit:2;">
    <path d="M1020.81,317.142C1048.62,317.403 1074.94,335.739 1084.46,362.211C1087.06,369.438 1088.38,377.096 1088.46,384.78C1088.74,468.118 1088.46,551.456 1088.46,634.793C1088.36,662.782 1069.53,689.631 1043,698.986C1035.88,701.493 1028.36,702.773 1020.81,702.844C988.878,702.953 956.946,702.845 925.013,702.845C896.82,702.749 870.136,683.793 860.821,657.386C858.312,650.272 857.04,642.749 856.962,635.188C856.82,551.725 856.82,468.261 856.962,384.798C857.249,356.768 876.062,329.929 903.212,320.728C910.092,318.396 917.345,317.211 924.609,317.142C956.676,317.033 988.744,317.033 1020.81,317.142ZM143.489,133.026C169.795,133.027 191.151,154.383 191.151,180.688L191.151,634.759C191.151,661.063 169.795,682.42 143.489,682.42L48.166,682.42C21.86,682.42 0.504,661.064 0.504,634.759L0.504,180.688C0.504,154.383 21.86,133.027 48.166,133.026L143.489,133.026ZM728.078,133.026C754.383,133.027 775.739,154.383 775.739,180.688L775.739,634.759C775.739,661.063 754.383,682.42 728.078,682.42L632.754,682.42C606.449,682.42 585.092,661.064 585.092,634.759L585.092,180.688C585.092,154.383 606.448,133.027 632.754,133.026L728.078,133.026ZM435.783,337.566C462.089,337.566 483.445,358.923 483.445,385.228L483.445,634.758C483.445,661.063 462.089,682.42 435.783,682.42L340.46,682.42C314.155,682.42 292.798,661.064 292.798,634.758L292.798,385.228C292.798,358.923 314.154,337.566 340.46,337.566L435.783,337.566ZM925.083,357.991C910.896,358.039 897.964,370.23 897.812,385.042C897.67,468.399 896.96,551.76 897.814,635.112C898.028,649.051 910.001,661.767 924.685,661.993C956.7,662.293 988.719,662.293 1020.73,661.993C1034.64,661.779 1047.38,649.714 1047.61,635.112C1048.46,551.766 1047.89,468.41 1047.61,385.059C1047.46,370.947 1035.47,358.132 1020.55,357.992C988.727,357.883 956.905,357.991 925.083,357.991ZM162.777,75.026C155.478,98.227 133.784,115.072 108.186,115.072C76.607,115.072 50.969,89.434 50.969,57.856C50.969,26.277 76.607,0.639 108.186,0.639C127.512,0.639 144.613,10.241 154.974,24.931C175.404,22.447 195.955,20.903 216.518,20.826C217.164,20.825 217.81,20.825 218.455,20.826C256.699,20.965 296.035,26.526 329.395,45.529C356.879,61.185 378.335,86.431 391.697,115.693L391.829,115.429C409.275,80.702 438.942,52.705 475.854,37.848C506.139,25.658 539.34,21.719 571.541,21.619C572.297,21.619 573.053,21.62 573.809,21.622C591.516,21.722 609.18,22.935 626.752,24.951C637.113,10.263 654.213,0.663 673.537,0.663C702.65,0.663 726.713,22.452 730.294,50.597C730.127,47.863 730.564,45.06 731.733,42.371C734.012,37.128 738.712,33.071 744.232,31.584C747.115,30.807 750.115,30.872 753.118,30.784C758.303,30.631 763.485,30.564 768.685,30.573C775.036,30.599 781.383,30.75 787.722,31.041C787.722,31.041 790.459,31.214 792.348,31.743C805.665,35.469 811.439,56.057 798.35,65.497C792.425,69.769 784.407,68.908 776.909,68.733C768.055,68.527 759.186,68.625 750.321,68.95C750.321,68.95 747.588,69.014 745.671,68.654C737.884,67.191 731.758,60.284 730.498,52.439C730.667,54.23 730.754,56.045 730.754,57.879C730.754,89.458 705.116,115.096 673.537,115.096C647.852,115.096 626.097,98.134 618.871,74.81C584.929,70.722 550.726,70.093 516.795,78.045C493.566,83.488 471.087,94.36 454.975,111.96C429.578,139.703 420.724,179.553 416.708,217.512C432.51,227.699 442.982,245.454 442.982,265.636C442.982,297.215 417.344,322.853 385.765,322.853C354.186,322.853 328.548,297.215 328.548,265.636C328.548,242.379 342.455,222.344 362.399,213.4C361.059,193.842 358.162,174.496 352.594,155.871C344.756,129.647 330.173,105.084 306.092,90.67C282.922,76.801 255.316,72.71 229.01,71.762C206.925,70.966 184.784,72.377 162.777,75.026ZM955.375,182.911C954.744,182.567 954.122,182.178 953.512,181.743C951.185,180.083 949.262,177.92 947.886,175.415C946.152,172.258 945.519,168.774 944.42,165.417C941.627,156.887 938.049,148.619 933.653,140.795L933.521,140.562C932.045,137.109 931.343,136.271 931.085,132.453C930.609,125.4 934.439,118.165 940.677,114.624C944.005,112.735 945.091,112.859 948.786,112.188C950.205,112.252 951.623,112.316 953.042,112.379C954.411,112.757 955.831,112.984 957.149,113.512C959.802,114.576 962.181,116.224 964.11,118.334C966.92,121.407 968.52,125.129 970.346,128.738C975.573,139.065 979.688,149.927 982.857,161.034L983.56,165.236C983.477,166.654 983.552,168.09 983.31,169.489C982.549,173.904 979.993,177.786 976.496,180.571C1006.05,182.794 1029.37,207.508 1029.37,237.625C1029.37,269.204 1003.73,294.842 972.151,294.842C940.572,294.842 914.934,269.204 914.934,237.625C914.934,211.883 931.971,190.088 955.375,182.911ZM867.933,44.741C881.217,49.087 894.132,54.68 906.243,61.622L909.679,64.141C910.609,65.214 911.664,66.19 912.468,67.361C919.6,77.751 913.574,94.793 899.677,96.932C896.852,97.367 893.965,97.16 891.231,96.326C887.421,95.164 884.243,92.853 880.755,91.071C872.927,87.071 864.766,83.773 856.398,81.004C856.398,81.004 853.853,80.113 852.227,79.137C841.422,72.652 839.818,54.647 851.568,46.925C853.956,45.355 856.668,44.343 859.501,43.965C862.305,43.591 865.14,44.163 867.933,44.741Z" style="fill:white;"/>
</svg>
