<?xml version="1.0" encoding="UTF-8" standalone="no"?><!DOCTYPE svg PUBLIC "-//W3C//DTD SVG 1.1//EN" "http://www.w3.org/Graphics/SVG/1.1/DTD/svg11.dtd"><svg width="100%" height="100%" viewBox="0 0 1311 1224" version="1.1" xmlns="http://www.w3.org/2000/svg" xmlns:xlink="http://www.w3.org/1999/xlink" xml:space="preserve" xmlns:serif="http://www.serif.com/" style="fill-rule:evenodd;clip-rule:evenodd;stroke-linejoin:round;stroke-miterlimit:2;"><path d="M658.251,278.821c-37.176,-28.334 -61.186,-73.076 -61.186,-123.382c0,-85.573 69.475,-155.047 155.047,-155.047c85.573,0 155.047,69.474 155.047,155.047c0,85.573 -69.474,155.047 -155.047,155.047c-3.193,0 -6.363,-0.097 -9.508,-0.288l-114.531,308.172c13.573,10.345 25.391,22.877 34.926,37.069l337.052,-102.767l-0.001,-0.228c0,-85.573 69.474,-155.047 155.047,-155.047c85.573,0 155.047,69.474 155.047,155.047c0,85.572 -69.474,155.047 -155.047,155.047c-53.634,0 -100.944,-27.292 -128.787,-68.735l-337.052,102.767l0.001,0.229c0,22.189 -4.672,43.296 -13.084,62.39l156.078,133.748c24.082,-15.403 52.695,-24.335 83.378,-24.335c85.573,0 155.047,69.475 155.047,155.047c0,85.573 -69.474,155.047 -155.047,155.047c-85.573,0 -155.047,-69.474 -155.047,-155.047c0,-22.189 4.671,-43.296 13.084,-62.39l-156.078,-133.749c-24.083,15.404 -52.696,24.336 -83.378,24.336c-32.74,0 -63.123,-10.17 -88.16,-27.52l-146.499,116.408c7.011,17.671 10.865,36.933 10.865,57.089c0,85.572 -69.474,155.046 -155.046,155.046c-85.573,0 -155.047,-69.474 -155.047,-155.046c0,-75.947 54.723,-139.213 126.856,-152.486l51.672,-461.015c-55.149,-23.767 -93.797,-78.636 -93.797,-142.46c0,-85.573 69.474,-155.047 155.046,-155.047c85.573,0 155.047,69.474 155.047,155.047c0,75.946 -54.723,139.212 -126.856,152.485l-51.672,461.015c9.497,4.093 18.505,9.108 26.911,14.933l146.499,-116.407c-7.012,-17.672 -10.866,-36.934 -10.866,-57.089c0,-85.573 69.474,-155.047 155.047,-155.047c3.193,0 6.363,0.097 9.508,0.287l114.531,-308.171Zm258.564,693.947c54.085,0 97.994,43.909 97.994,97.994c0,54.084 -43.909,97.994 -97.994,97.994c-54.084,0 -97.994,-43.91 -97.994,-97.994c0,-54.085 43.91,-97.994 97.994,-97.994Zm-763.384,-26.35c54.085,0 97.994,43.91 97.994,97.994c0,54.085 -43.909,97.994 -97.994,97.994c-54.084,0 -97.994,-43.909 -97.994,-97.994c0,-54.084 43.91,-97.994 97.994,-97.994Zm1001.11,-491.073c54.084,0 97.994,43.91 97.994,97.994c0,54.085 -43.91,97.994 -97.994,97.994c-54.085,0 -97.994,-43.909 -97.994,-97.994c0,-54.084 43.909,-97.994 97.994,-97.994Zm-916.433,-265.217c54.084,0 97.994,43.91 97.994,97.994c0,54.084 -43.91,97.994 -97.994,97.994c-54.085,0 -97.994,-43.91 -97.994,-97.994c0,-54.084 43.909,-97.994 97.994,-97.994Zm513.082,-132.83c54.084,0 97.994,43.909 97.994,97.994c0,54.084 -43.91,97.994 -97.994,97.994c-54.085,0 -97.994,-43.91 -97.994,-97.994c0,-54.085 43.909,-97.994 97.994,-97.994Z" style="fill:url(#_Linear1);"/><defs><linearGradient id="_Linear1" x1="0" y1="0" x2="1" y2="0" gradientUnits="userSpaceOnUse" gradientTransform="matrix(6.80572e-14,1111.46,-1111.46,6.80572e-14,655.234,57.2978)"><stop offset="0" style="stop-color:#43bfdd;stop-opacity:1"/><stop offset="1" style="stop-color:#b461fe;stop-opacity:1"/></linearGradient></defs></svg>