<svg xmlns="http://www.w3.org/2000/svg" width="17" height="21" viewBox="0 0 17 21">
	<g>
		<g clip-path="url(#clip-E0EEBA8B-DFD1-EF18-3038-37A870564EC0)">
			<path d="M8.506 21h-.01a.483.483 0 0 1-.128-.023l-.247-.076c-1.394-.431-2.706-1.139-3.797-2.098-1.197-1.051-2.12-2.388-2.78-3.845C.706 13.102.275 11.074.098 9.03a25.779 25.779 0 0 1-.002-4.445c.027-.312.058-.623.104-.932V3.65c.014-.057.014-.073.044-.125a.368.368 0 0 1 .266-.18c.053-.007.105 0 .158.002 1.698.067 3.414-.269 4.91-1.057.917-.482 1.764-1.12 2.432-1.9.066-.077.13-.154.188-.235L8.2.153l.037-.044a.412.412 0 0 1 .201-.104C8.468 0 8.506 0 8.506 0l.058.005c.075.018.147.049.201.104.051.051.09.114.135.17.41.508.906.95 1.438 1.336a9.164 9.164 0 0 0 4.021 1.63c.683.103 1.376.132 2.068.099l.066.002c.022.005.044.008.065.015.105.035.192.12.228.225.015.042.02.087.026.132.134.965.181 1.942.187 2.92.014 2.162-.217 4.335-.83 6.396-.53 1.784-1.365 3.492-2.607 4.89a10.175 10.175 0 0 1-3.718 2.631c-.392.162-.793.3-1.201.417l-.01.005a.483.483 0 0 1-.127.023z"></path>
		</g>
	</g>
</svg>