<?xml version="1.0" encoding="UTF-8" standalone="no"?><!DOCTYPE svg PUBLIC "-//W3C//DTD SVG 1.1//EN" "http://www.w3.org/Graphics/SVG/1.1/DTD/svg11.dtd"><svg width="100%" height="100%" viewBox="0 0 849 1052" version="1.1" xmlns="http://www.w3.org/2000/svg" xmlns:xlink="http://www.w3.org/1999/xlink" xml:space="preserve" xmlns:serif="http://www.serif.com/" style="fill-rule:evenodd;clip-rule:evenodd;stroke-linejoin:round;stroke-miterlimit:2;"><path d="M424.823,1051.61l-0.541,0c-3.218,-0.289 -3.227,-0.291 -6.342,-1.148c0,0 -6.679,-2.021 -12.377,-3.792c-69.577,-21.615 -135.113,-57.02 -189.623,-105.045c-59.741,-52.634 -105.886,-119.567 -138.788,-192.517c-41.903,-92.908 -63.419,-194.406 -72.312,-296.714c-6.426,-73.934 -6.413,-148.707 -0.057,-222.522c1.343,-15.594 2.872,-31.196 5.168,-46.67l0.022,-0.141c0.699,-2.85 0.691,-3.665 2.158,-6.25c2.709,-4.773 7.753,-8.24 13.287,-8.996c2.646,-0.361 5.275,-0.049 7.917,0.06c84.774,3.393 170.498,-13.426 245.245,-52.896c45.732,-24.148 88.031,-56.075 121.424,-95.139c3.257,-3.81 6.459,-7.681 9.381,-11.73l0.124,-0.174l1.843,-2.21c2.91,-2.535 6.258,-4.598 10.061,-5.208c1.478,-0.238 3.41,-0.229 3.41,-0.229c0.956,0.076 1.912,0.152 2.869,0.229c3.749,0.912 7.366,2.455 10.061,5.208c2.535,2.59 4.439,5.722 6.738,8.57c20.501,25.401 45.247,47.494 71.815,66.866c58.98,43.006 128.667,70.762 200.808,81.592c34.101,5.119 68.698,6.577 103.256,4.916l3.312,0.145c1.076,0.249 2.18,0.4 3.229,0.746c5.262,1.738 9.595,5.996 11.418,11.241c0.738,2.123 0.975,4.377 1.284,6.619c6.662,48.327 9.046,97.224 9.358,146.161c0.691,108.266 -10.863,217.044 -41.463,320.23c-26.481,89.297 -68.186,174.807 -130.194,244.761c-50.779,57.288 -114.849,102.471 -185.712,131.768c-19.56,8.087 -39.596,15.022 -59.951,20.887l-0.486,0.234c-3.115,0.857 -3.124,0.859 -6.342,1.148Z" style="fill:url(#_Linear1);"/><defs><linearGradient id="_Linear1" x1="0" y1="0" x2="1" y2="0" gradientUnits="userSpaceOnUse" gradientTransform="matrix(5.72925e-14,935.658,-935.658,5.72925e-14,436.101,67.0628)"><stop offset="0" style="stop-color:#43bfdd;stop-opacity:1"/><stop offset="1" style="stop-color:#b461fe;stop-opacity:1"/></linearGradient></defs></svg>