<?xml version="1.0" encoding="UTF-8" standalone="no"?>
<!DOCTYPE svg PUBLIC "-//W3C//DTD SVG 1.1//EN" "http://www.w3.org/Graphics/SVG/1.1/DTD/svg11.dtd">
<svg width="100%" height="100%" viewBox="0 0 1053 1052" version="1.1" xmlns="http://www.w3.org/2000/svg" xmlns:xlink="http://www.w3.org/1999/xlink" xml:space="preserve" xmlns:serif="http://www.serif.com/" style="fill-rule:evenodd;clip-rule:evenodd;stroke-linecap:round;stroke-linejoin:round;stroke-miterlimit:1.5;">
    <g transform="matrix(1,0,0,1,-48987,-24530)">
        <g id="Artboard1" transform="matrix(20.4718,0,0,18.5702,29333.6,1346.86)">
            <rect x="-43.649" y="-48.726" width="1430.07" height="1768.11" style="fill:none;"/>
            <g id="Cells" transform="matrix(0.654788,0,0,0.464723,-15.068,-26.4387)">
                <g transform="matrix(0.0805068,0,0,0.125048,650.235,2106)">
                    <rect x="10001.1" y="4412.99" width="1815.12" height="2123.71" style="fill:none;stroke:black;stroke-width:21.31px;"/>
                </g>
            </g>
            <g id="Labels">
            </g>
            <g transform="matrix(0.0382022,0,0,0.042114,779.292,1106.57)">
                <path d="M5404.61,4712.46L5403.92,4712.46C5399.81,4712.09 5399.8,4712.09 5395.81,4710.99C5395.81,4710.99 5387.27,4708.41 5379.99,4706.14C5291.02,4678.51 5207.22,4633.23 5137.52,4571.83C5061.13,4504.53 5002.13,4418.94 4960.06,4325.66C4906.48,4206.86 4878.97,4077.08 4867.6,3946.26C4859.38,3851.73 4859.4,3756.12 4867.52,3661.73C4869.24,3641.79 4871.2,3621.84 4874.13,3602.06L4874.16,3601.88C4875.05,3598.23 4875.04,3597.19 4876.92,3593.89C4880.38,3587.78 4886.83,3583.35 4893.91,3582.38C4897.29,3581.92 4900.65,3582.32 4904.03,3582.46C5012.43,3586.8 5122.04,3565.29 5217.62,3514.83C5276.09,3483.95 5330.18,3443.12 5372.88,3393.17C5377.04,3388.3 5381.14,3383.35 5384.87,3378.18L5385.03,3377.95L5387.39,3375.13C5391.11,3371.89 5395.39,3369.25 5400.25,3368.47C5402.14,3368.16 5404.61,3368.17 5404.61,3368.17C5405.84,3368.27 5407.06,3368.37 5408.28,3368.47C5413.07,3369.63 5417.7,3371.61 5421.15,3375.13C5424.39,3378.44 5426.82,3382.44 5429.76,3386.08C5455.98,3418.56 5487.62,3446.81 5521.59,3471.58C5597.01,3526.57 5686.11,3562.06 5778.36,3575.91C5821.96,3582.46 5866.2,3584.32 5910.38,3582.2L5914.62,3582.38C5916,3582.7 5917.41,3582.89 5918.75,3583.34C5925.48,3585.56 5931.02,3591 5933.35,3597.71C5934.29,3600.43 5934.6,3603.31 5934.99,3606.18C5943.51,3667.97 5946.56,3730.49 5946.96,3793.07C5947.84,3931.5 5933.07,4070.59 5893.94,4202.53C5860.08,4316.71 5806.75,4426.05 5727.47,4515.5C5662.53,4588.75 5580.61,4646.52 5490,4683.99C5464.99,4694.33 5439.37,4703.19 5413.34,4710.69L5412.72,4710.99C5408.74,4712.09 5408.73,4712.09 5404.61,4712.46Z" style="fill:white;"/>
            </g>
            <g id="Layer-1" serif:id="Layer 1">
            </g>
        </g>
    </g>
</svg>
