<svg xmlns="http://www.w3.org/2000/svg" width="21" height="15" viewBox="0 0 21 15">
	<g>
		<g clip-path="url(#clip-69D8C5E1-6EA1-7716-2AFC-481562B76435)">
			<path d="M2.42 3.025c.025-.675.758-1.195 1.636-1.16.877.035 1.569.61 1.543 1.286-.025.675-.758 1.195-1.635 1.16-.878-.035-1.57-.61-1.544-1.286zm2.094 7.728c.831-.027 1.523.471 1.542 1.111.02.64-.64 1.181-1.471 1.208-.832.027-1.523-.47-1.543-1.11-.02-.64.64-1.182 1.472-1.21zm-.796-1.849C1.865 9.231.494 10.534.54 12.042c.052 1.702 1.891 3.026 4.104 2.955 2.212-.07 3.966-1.51 3.914-3.213-.023-.773-.415-1.468-1.043-1.99l2.51-1.201 8.16 3.032c1.077.4 2.317-.308 2.768-1.58l-7.858-2.922L21 3.34c-.56-1.226-1.89-1.803-2.97-1.286L9.91 5.94l-2.652-.986c.457-.477.735-1.064.76-1.707C8.082 1.545 6.338.092 4.126.004 1.914-.083.066 1.227.002 2.93c-.06 1.573 1.425 2.933 3.395 3.2l3.444 1.28z"></path>
		</g>
	</g>
</svg>