<?xml version="1.0" encoding="UTF-8" standalone="no"?><!DOCTYPE svg PUBLIC "-//W3C//DTD SVG 1.1//EN" "http://www.w3.org/Graphics/SVG/1.1/DTD/svg11.dtd"><svg width="100%" height="100%" viewBox="0 0 1657 1249" version="1.1" xmlns="http://www.w3.org/2000/svg" xmlns:xlink="http://www.w3.org/1999/xlink" xml:space="preserve" xmlns:serif="http://www.serif.com/" style="fill-rule:evenodd;clip-rule:evenodd;stroke-linejoin:round;stroke-miterlimit:2;"><path d="M737.74,1248.79l-265.311,0c-4.541,-0.357 -5.76,-0.184 -10.133,-1.605c-9.813,-3.188 -17.86,-11.226 -21.054,-21.053c-1.42,-4.373 -1.247,-5.593 -1.605,-10.134l0,-254.268c53.75,24.697 113.225,36.673 172.242,34.357c55.137,-2.164 109.661,-16.774 158.653,-42.045l0,261.956c-0.358,4.541 -0.185,5.761 -1.605,10.134c-3.189,9.813 -11.226,17.86 -21.054,21.053c-4.372,1.421 -5.592,1.248 -10.133,1.605Zm885.996,-12.793l-265.312,0c-4.541,-0.357 -5.761,-0.184 -10.133,-1.605c-9.813,-3.188 -17.861,-11.226 -21.054,-21.054c-1.421,-4.372 -1.247,-5.592 -1.605,-10.133l0,-1169.89c0.358,-4.541 0.184,-5.761 1.605,-10.133c3.189,-9.813 11.226,-17.861 21.054,-21.054c4.372,-1.421 5.592,-1.247 10.133,-1.605l265.312,0c1.71,0.135 3.42,0.269 5.13,0.404c4.429,1.063 5.661,1.083 9.757,3.17c7.673,3.91 13.642,10.903 16.3,19.085c1.421,4.372 1.248,5.592 1.605,10.133l0,1169.89c-0.357,4.541 -0.184,5.761 -1.605,10.133c-3.188,9.813 -11.226,17.861 -21.054,21.054c-4.371,1.42 -5.591,1.248 -10.133,1.605Zm-436.77,0l-265.312,0c-4.541,-0.357 -5.761,-0.184 -10.133,-1.605c-9.813,-3.188 -17.861,-11.226 -21.054,-21.054c-1.421,-4.372 -1.248,-5.592 -1.605,-10.133l0,-344.191c12.042,-14.552 23.013,-30.021 32.792,-46.288l0,150.541l0,0l265.311,0l0,-208.144l-237.063,0c4.156,-10.703 7.838,-21.642 11.018,-32.791l226.045,0l0,-208.143l-226.353,0c-3.217,-11.151 -6.935,-22.091 -11.129,-32.792l237.482,0l0,-208.144l-265.311,0l0,0l0,151.615c-9.779,-16.266 -20.75,-31.736 -32.792,-46.288l0,-345.265c0.357,-4.541 0.184,-5.761 1.605,-10.133c3.188,-9.813 11.226,-17.861 21.054,-21.054c4.372,-1.421 5.592,-1.247 10.133,-1.605l265.312,0c1.71,0.135 3.42,0.269 5.13,0.404c4.429,1.063 5.661,1.083 9.757,3.17c7.614,3.879 13.635,10.883 16.3,19.085c1.421,4.372 1.247,5.592 1.605,10.133l0,1169.89c-0.358,4.541 -0.184,5.761 -1.605,10.133c-3.189,9.813 -11.226,17.861 -21.054,21.054c-4.372,1.42 -5.592,1.248 -10.133,1.605Zm-886.565,-357.974c1.731,0.357 3.486,0.615 5.194,1.072c18.691,5.008 33.207,22.948 33.783,42.726c0.309,10.614 -3.227,21.284 -9.813,29.613c-1.096,1.387 -2.35,2.641 -3.526,3.962l-247.496,247.497c-3.514,3.127 -4.283,4.086 -8.307,6.567c-16.469,10.159 -39.48,8.407 -54.261,-4.747c-9.266,-8.247 -14.908,-20.372 -15.268,-32.742c-0.308,-10.614 3.227,-21.284 9.813,-29.613c1.097,-1.387 2.351,-2.641 3.526,-3.962l247.497,-247.497c1.32,-1.175 2.575,-2.429 3.962,-3.526c5.556,-4.393 12.127,-7.457 19.064,-8.89c4.63,-0.956 5.847,-0.786 10.549,-0.922c1.761,0.154 3.522,0.308 5.283,0.462Zm1058.02,117.943l0,207.239l265.312,0l0,-207.146l-264.279,0c-0.343,-0.039 -0.688,-0.067 -1.033,-0.093Zm-436.77,0.093l0,207.146l265.311,0l0,-207.146l-265.311,0l0,0Zm-323.766,-725.609c85.943,0.112 171.476,33.062 235.724,92.165c74.426,68.467 117.418,169.644 112.479,273.787c-4.642,97.867 -52.473,192.438 -129.118,254.556c-61.603,49.928 -140.399,77.725 -219.085,77.795c-66.876,0.061 -133.615,-19.481 -189.614,-55.634c-75.19,-48.542 -130.88,-127.14 -151.137,-214.721c-14.247,-61.595 -11.274,-127.375 8.227,-187.158c23.526,-72.126 70.974,-135.369 132.873,-178.428c53.222,-37.025 117.229,-58.664 181.178,-61.91c6.151,-0.312 12.298,-0.461 18.473,-0.452Zm760.536,484.581l0,208.328c0.345,-0.026 0.69,-0.054 1.033,-0.092l264.279,0l0,-208.144l-264.279,0c-0.343,-0.038 -0.688,-0.066 -1.033,-0.092Zm-761.518,-393.369c-58.535,0.076 -116.667,20.774 -162.073,57.687c-26.11,21.226 -48.038,47.564 -64.128,77.054c-0.431,0.79 -0.859,1.582 -1.282,2.378c-29.228,55.042 -38.484,121.578 -21.699,186.06c14.569,55.969 48.745,106.47 95.054,141.219c44.293,33.237 99.58,51.527 154.991,51.481c49.255,-0.04 98.323,-14.334 140.464,-41.899c53.747,-35.158 93.712,-90.987 109.317,-153.143c15.554,-61.957 7.146,-129.993 -23.765,-186.437c-29.016,-52.983 -76.818,-95.158 -133.398,-117.089c-29.43,-11.408 -61.005,-17.27 -92.618,-17.311c-0.288,-0.001 -0.575,-0.001 -0.863,0Zm-157.269,90.216c42.411,-39.674 99.233,-62.451 157.305,-62.602c0.705,0 1.409,0.001 2.114,0.005c26.658,0.228 53.292,5.009 78.272,14.272c35.765,13.263 67.987,35.708 93.204,64.386l0,303.174c-5.757,6.599 -11.879,12.878 -18.332,18.793c-40.998,37.583 -96.219,59.329 -151.881,60.004c-49.403,0.6 -98.86,-15.177 -138.652,-44.223c-7.739,-5.649 -15.094,-11.769 -22.03,-18.304l0,-335.505Zm918.787,62.218l0,208.328c0.345,-0.026 0.69,-0.054 1.033,-0.092l264.279,0l0,-208.143l-264.279,0c-0.343,-0.039 -0.688,-0.067 -1.033,-0.093Zm0,-240.935l0,208.328c0.345,-0.026 0.69,-0.054 1.033,-0.092l264.279,0l0,-208.144l-264.279,0c-0.343,-0.038 -0.688,-0.066 -1.033,-0.092Zm-918.787,4.326l0,-231.378c0.358,-4.541 0.185,-5.761 1.605,-10.134c3.189,-9.813 11.226,-17.86 21.054,-21.053c4.373,-1.421 5.592,-1.248 10.133,-1.605l265.311,0c1.71,0.134 3.42,0.269 5.13,0.403c4.429,1.064 5.661,1.083 9.757,3.171c7.613,3.879 13.635,10.882 16.3,19.084c1.42,4.373 1.247,5.593 1.605,10.134l0,239.488c-53.192,-27.487 -112.773,-42.636 -172.607,-42.762c-0.416,0 -0.831,0 -1.247,0.001c-2.489,0.006 -4.978,0.033 -7.466,0.085c-51.672,1.096 -102.822,13.06 -149.575,34.566Zm1184.1,-244.172l-265.312,0l0,207.239c0.345,-0.026 0.69,-0.054 1.033,-0.092l264.279,0l0,-207.147Zm-436.771,0l-265.311,0l0,207.147l0,0l265.311,0l0,-207.147Z" style="fill:url(#_Linear1);"/><defs><linearGradient id="_Linear1" x1="0" y1="0" x2="1" y2="0" gradientUnits="userSpaceOnUse" gradientTransform="matrix(7.52255e-14,1228.53,-1228.53,7.52255e-14,1069.24,-1.88998)"><stop offset="0" style="stop-color:#43bfdd;stop-opacity:1"/><stop offset="1" style="stop-color:#b461fe;stop-opacity:1"/></linearGradient></defs></svg>