<svg xmlns="http://www.w3.org/2000/svg" width="16" height="19" viewBox="0 0 16 19">
	<g>
		<g clip-path="url(#clip-6FC3312C-7279-F738-3BC2-0A2B0FA73747)">
			<path d="M1.011 2.123C1.011 2.745 4.143 3.25 8 3.25c3.857 0 6.989-.504 6.989-1.126 0-.621-3.132-1.126-6.989-1.126-3.857 0-6.989.505-6.989 1.126zM0 1.85C0 .829 3.585 0 8 0s8 .828 8 1.849v4.15c0 1.02-3.585 1.849-8 1.849s-8-.829-8-1.85zm16 9.77c-.04 1.013-3.609 1.833-8 1.833s-7.96-.82-8-1.832V7.47c0-.013 0-.026.002-.039C.092 8.434 3.64 9.241 8 9.241c4.36 0 7.909-.807 7.998-1.81A.431.431 0 0 1 16 7.47v4.15zm0 5.549C15.96 18.18 12.39 19 8 19s-7.96-.82-8-1.832v-4.15c0-.013 0-.026.002-.039.09 1.003 3.639 1.81 7.998 1.81 4.36 0 7.909-.807 7.998-1.81a.432.432 0 0 1 .002.04v4.149z"></path>
		</g>
	</g>
</svg>