<?xml version="1.0" encoding="UTF-8" standalone="no"?>
<!DOCTYPE svg PUBLIC "-//W3C//DTD SVG 1.1//EN" "http://www.w3.org/Graphics/SVG/1.1/DTD/svg11.dtd">
<svg width="100%" height="100%" viewBox="0 0 993 924" version="1.1" xmlns="http://www.w3.org/2000/svg" xmlns:xlink="http://www.w3.org/1999/xlink" xml:space="preserve" xmlns:serif="http://www.serif.com/" style="fill-rule:evenodd;clip-rule:evenodd;stroke-linecap:round;stroke-linejoin:round;stroke-miterlimit:1.5;">
    <g transform="matrix(1,0,0,1,-52934,-1736)">
        <g id="Artboard1" transform="matrix(20.4718,0,0,18.5702,29333.6,1346.86)">
            <rect x="-43.649" y="-48.726" width="1430.07" height="1768.11" style="fill:none;"/>
            <g id="Cells" transform="matrix(0.654788,0,0,0.464723,-15.068,-26.4387)">
                <g transform="matrix(0.0805068,0,0,0.125048,944.067,-551.157)">
                    <rect x="10001.1" y="4412.99" width="1815.12" height="2123.71" style="fill:none;stroke:black;stroke-width:21.31px;"/>
                </g>
            </g>
            <g id="Labels">
            </g>
            <g id="Layer-1" serif:id="Layer 1">
            </g>
            <g transform="matrix(0.0514165,0,0,0.0625476,-1554.43,-23.5023)">
                <path d="M53495.9,1429.52C53494.1,1471.88 53328.8,1506.15 53125.4,1506.15C52921.9,1506.15 52756.6,1471.88 52754.8,1429.52L52754.8,1429.52L52754.8,1255.99C52754.8,1255.45 52754.8,1254.91 52754.9,1254.37C52759,1296.29 52923.4,1330.06 53125.4,1330.06C53327.3,1330.06 53491.7,1296.29 53495.8,1254.37C53495.9,1254.91 53495.9,1255.45 53495.9,1255.99L53495.9,1429.52L53495.9,1429.52ZM53495.9,1197.5C53494.1,1239.86 53328.8,1274.12 53125.4,1274.12C52921.9,1274.12 52756.6,1239.86 52754.8,1197.5L52754.8,1197.5L52754.8,1023.97C52754.8,1023.43 52754.8,1022.88 52754.9,1022.34C52759,1064.27 52923.4,1098.04 53125.4,1098.04C53327.3,1098.04 53491.7,1064.27 53495.8,1022.34C53495.9,1022.88 53495.9,1023.43 53495.9,1023.97L53495.9,1197.5L53495.9,1197.5ZM52754.8,788.906C52754.8,746.229 52920.8,711.581 53125.4,711.581C53329.9,711.581 53495.9,746.229 53495.9,788.906L53495.9,962.435C53495.9,1005.11 53329.9,1039.76 53125.4,1039.76C52920.8,1039.76 52754.8,1005.11 52754.8,962.435L52754.8,788.906ZM53125.4,753.288C53304,753.288 53449.1,774.386 53449.1,800.373C53449.1,826.361 53304,847.459 53125.4,847.459C52946.7,847.459 52801.6,826.361 52801.6,800.373C52801.6,774.386 52946.7,753.288 53125.4,753.288Z" style="fill:white;"/>
            </g>
        </g>
    </g>
</svg>
