<svg aria-labelledby="chart-title-mermaid-1695917010824" aria-roledescription="er" role="graphics-document document" viewBox="0 -62 1029.96875 527" style="max-width: 1029.97px; background-color: rgb(255, 255, 255);" xmlns:xlink="http://www.w3.org/1999/xlink" xmlns="http://www.w3.org/2000/svg" width="100%" id="mermaid-1695917010824"><title id="chart-title-mermaid-1695917010824">Inferencing Context ERD</title><style>#mermaid-1695917010824{font-family:"trebuchet ms",verdana,arial,sans-serif;font-size:16px;fill:#333;}#mermaid-1695917010824 .error-icon{fill:#552222;}#mermaid-1695917010824 .error-text{fill:#552222;stroke:#552222;}#mermaid-1695917010824 .edge-thickness-normal{stroke-width:2px;}#mermaid-1695917010824 .edge-thickness-thick{stroke-width:3.5px;}#mermaid-1695917010824 .edge-pattern-solid{stroke-dasharray:0;}#mermaid-1695917010824 .edge-pattern-dashed{stroke-dasharray:3;}#mermaid-1695917010824 .edge-pattern-dotted{stroke-dasharray:2;}#mermaid-1695917010824 .marker{fill:#333333;stroke:#333333;}#mermaid-1695917010824 .marker.cross{stroke:#333333;}#mermaid-1695917010824 svg{font-family:"trebuchet ms",verdana,arial,sans-serif;font-size:16px;}#mermaid-1695917010824 .entityBox{fill:#ECECFF;stroke:#9370DB;}#mermaid-1695917010824 .attributeBoxOdd{fill:#ffffff;stroke:#9370DB;}#mermaid-1695917010824 .attributeBoxEven{fill:#f2f2f2;stroke:#9370DB;}#mermaid-1695917010824 .relationshipLabelBox{fill:hsl(80, 100%, 96.2745098039%);opacity:0.7;background-color:hsl(80, 100%, 96.2745098039%);}#mermaid-1695917010824 .relationshipLabelBox rect{opacity:0.5;}#mermaid-1695917010824 .relationshipLine{stroke:#333333;}#mermaid-1695917010824 .entityTitleText{text-anchor:middle;font-size:18px;fill:#333;}#mermaid-1695917010824 #MD_PARENT_START{fill:#f5f5f5!important;stroke:#333333!important;stroke-width:1;}#mermaid-1695917010824 #MD_PARENT_END{fill:#f5f5f5!important;stroke:#333333!important;stroke-width:1;}#mermaid-1695917010824 :root{--mermaid-font-family:"trebuchet ms",verdana,arial,sans-serif;}</style><g/><defs><marker orient="auto" markerHeight="240" markerWidth="190" refY="7" refX="0" id="MD_PARENT_START"><path d="M 18,7 L9,13 L1,7 L9,1 Z"/></marker></defs><defs><marker orient="auto" markerHeight="28" markerWidth="20" refY="7" refX="19" id="MD_PARENT_END"><path d="M 18,7 L9,13 L1,7 L9,1 Z"/></marker></defs><defs><marker orient="auto" markerHeight="18" markerWidth="18" refY="9" refX="0" id="ONLY_ONE_START"><path d="M9,0 L9,18 M15,0 L15,18" fill="none" stroke="gray"/></marker></defs><defs><marker orient="auto" markerHeight="18" markerWidth="18" refY="9" refX="18" id="ONLY_ONE_END"><path d="M3,0 L3,18 M9,0 L9,18" fill="none" stroke="gray"/></marker></defs><defs><marker orient="auto" markerHeight="18" markerWidth="30" refY="9" refX="0" id="ZERO_OR_ONE_START"><circle r="6" cy="9" cx="21" fill="white" stroke="gray"/><path d="M9,0 L9,18" fill="none" stroke="gray"/></marker></defs><defs><marker orient="auto" markerHeight="18" markerWidth="30" refY="9" refX="30" id="ZERO_OR_ONE_END"><circle r="6" cy="9" cx="9" fill="white" stroke="gray"/><path d="M21,0 L21,18" fill="none" stroke="gray"/></marker></defs><defs><marker orient="auto" markerHeight="36" markerWidth="45" refY="18" refX="18" id="ONE_OR_MORE_START"><path d="M0,18 Q 18,0 36,18 Q 18,36 0,18 M42,9 L42,27" fill="none" stroke="gray"/></marker></defs><defs><marker orient="auto" markerHeight="36" markerWidth="45" refY="18" refX="27" id="ONE_OR_MORE_END"><path d="M3,9 L3,27 M9,18 Q27,0 45,18 Q27,36 9,18" fill="none" stroke="gray"/></marker></defs><defs><marker orient="auto" markerHeight="36" markerWidth="57" refY="18" refX="18" id="ZERO_OR_MORE_START"><circle r="6" cy="18" cx="48" fill="white" stroke="gray"/><path d="M0,18 Q18,0 36,18 Q18,36 0,18" fill="none" stroke="gray"/></marker></defs><defs><marker orient="auto" markerHeight="36" markerWidth="57" refY="18" refX="39" id="ZERO_OR_MORE_END"><circle r="6" cy="18" cx="9" fill="white" stroke="gray"/><path d="M21,18 Q39,0 57,18 Q39,36 21,18" fill="none" stroke="gray"/></marker></defs><path style="stroke: gray; fill: none;" marker-start="url(#ONLY_ONE_START)" marker-end="url(#ONE_OR_MORE_END)" d="M543.302734375,82.8576840791585L517.3684895833334,93.21473673263209C491.4342447916667,103.57178938610566,439.5657552083333,124.28589469305284,413.6315104166667,142.97628067985974C387.697265625,161.66666666666666,387.697265625,178.33333333333334,387.697265625,186.66666666666666L387.697265625,195" class="er relationshipLine"/><path style="stroke: gray; fill: none;" marker-start="url(#ONLY_ONE_START)" marker-end="url(#ONLY_ONE_END)" d="M310.857421875,253.66318601262748L270.7145182291667,264.71932167718955C230.57161458333334,275.77545734175163,150.28580729166666,297.8877286708758,110.14290364583333,317.27719766877124C70,336.6666666666667,70,353.3333333333333,70,361.6666666666667L70,370" class="er relationshipLine"/><path style="stroke: gray; fill: none;" marker-start="url(#ONLY_ONE_START)" marker-end="url(#ZERO_OR_ONE_END)" d="M340.16183035714283,270L329.59840029761904,278.3333333333333C319.03497023809524,286.6666666666667,297.90811011904765,303.3333333333333,287.3446800595238,320C276.78125,336.6666666666667,276.78125,353.3333333333333,276.78125,361.6666666666667L276.78125,370" class="er relationshipLine"/><path style="stroke: gray; fill: none;" marker-start="url(#ONLY_ONE_START)" marker-end="url(#ZERO_OR_MORE_END)" d="M435.23270089285717,270L445.79613095238096,278.3333333333333C456.35956101190476,286.6666666666667,477.48642113095235,303.3333333333333,488.0498511904762,320C498.61328125,336.6666666666667,498.61328125,353.3333333333333,498.61328125,361.6666666666667L498.61328125,370" class="er relationshipLine"/><path style="stroke: gray; fill: none;" marker-start="url(#ONLY_ONE_START)" marker-end="url(#ZERO_OR_MORE_END)" d="M464.537109375,253.12629197998743L506.0582682291667,264.27190998332287C547.5794270833334,275.4175279866583,630.6217447916666,297.7087639933291,672.1429036458334,317.1877153299979C713.6640625,336.6666666666667,713.6640625,353.3333333333333,713.6640625,361.6666666666667L713.6640625,370" class="er relationshipLine"/><path style="stroke: gray; fill: none;" marker-start="url(#ONLY_ONE_START)" marker-end="url(#ZERO_OR_ONE_END)" d="M670.294921875,74.33518870325327L714.7151692708334,86.11265725271106C759.1354166666666,97.89012580216884,847.9759114583334,121.44506290108443,892.3961588541666,141.55586478387553C936.81640625,161.66666666666666,936.81640625,178.33333333333334,936.81640625,186.66666666666666L936.81640625,195" class="er relationshipLine"/><path style="stroke: gray; fill: none;" marker-start="url(#ONLY_ONE_START)" marker-end="url(#ONE_OR_MORE_END)" d="M936.81640625,270L936.81640625,278.3333333333333C936.81640625,286.6666666666667,936.81640625,303.3333333333333,936.81640625,320C936.81640625,336.6666666666667,936.81640625,353.3333333333333,936.81640625,361.6666666666667L936.81640625,370" class="er relationshipLine"/><g transform="translate(543.302734375,20 )" id="entity-InferenceContext-32430619-9912-54c4-87a1-767e661c3212"><rect height="75" width="126.9921875" y="0" x="0" class="er entityBox"/><text style="dominant-baseline: middle; text-anchor: middle; font-size: 12px;" transform="translate(63.49609375,37.5)" y="0" x="0" id="text-entity-InferenceContext-32430619-9912-54c4-87a1-767e661c3212" class="er entityLabel">Inference Context</text></g><g transform="translate(310.857421875,195 )" id="entity-TableDefinitionClause-e7553edf-ce38-599e-8279-3ee8f8b30561"><rect height="75" width="153.6796875" y="0" x="0" class="er entityBox"/><text style="dominant-baseline: middle; text-anchor: middle; font-size: 12px;" transform="translate(76.83984375,37.5)" y="0" x="0" id="text-entity-TableDefinitionClause-e7553edf-ce38-599e-8279-3ee8f8b30561" class="er entityLabel">Table Definition Clause</text></g><g transform="translate(20,370 )" id="entity-TableName-e31e85a4-811a-59cd-8ac2-201425abc700"><rect height="75" width="100" y="0" x="0" class="er entityBox"/><text style="dominant-baseline: middle; text-anchor: middle; font-size: 12px;" transform="translate(50,37.5)" y="0" x="0" id="text-entity-TableName-e31e85a4-811a-59cd-8ac2-201425abc700" class="er entityLabel">Table Name</text></g><g transform="translate(220,370 )" id="entity-TableComment-7edf37b0-1fdc-5135-bc43-a7ea87de9e3b"><rect height="75" width="113.5625" y="0" x="0" class="er entityBox"/><text style="dominant-baseline: middle; text-anchor: middle; font-size: 12px;" transform="translate(56.78125,37.5)" y="0" x="0" id="text-entity-TableComment-7edf37b0-1fdc-5135-bc43-a7ea87de9e3b" class="er entityLabel">Table Comment</text></g><g transform="translate(433.5625,370 )" id="entity-ColumnComments-1facb90a-2736-505a-9035-736fddb886c7"><rect height="75" width="130.1015625" y="0" x="0" class="er entityBox"/><text style="dominant-baseline: middle; text-anchor: middle; font-size: 12px;" transform="translate(65.05078125,37.5)" y="0" x="0" id="text-entity-ColumnComments-1facb90a-2736-505a-9035-736fddb886c7" class="er entityLabel">Column Comments</text></g><g transform="translate(663.6640625,370 )" id="entity-Rules-53af1e6a-9516-5569-ab90-3b0ab0850bc6"><rect height="75" width="100" y="0" x="0" class="er entityBox"/><text style="dominant-baseline: middle; text-anchor: middle; font-size: 12px;" transform="translate(50,37.5)" y="0" x="0" id="text-entity-Rules-53af1e6a-9516-5569-ab90-3b0ab0850bc6" class="er entityLabel">Rules</text></g><g transform="translate(874.14453125,195 )" id="entity-SampleDefinition-8c8e665d-457d-514a-8f49-033ce8286160"><rect height="75" width="125.34375" y="0" x="0" class="er entityBox"/><text style="dominant-baseline: middle; text-anchor: middle; font-size: 12px;" transform="translate(62.671875,37.5)" y="0" x="0" id="text-entity-SampleDefinition-8c8e665d-457d-514a-8f49-033ce8286160" class="er entityLabel">Sample Definition</text></g><g transform="translate(863.6640625,370 )" id="entity-QuestionAnswerPair-257bfd5b-ee86-51a9-954a-dcbe630e7a46"><rect height="75" width="146.3046875" y="0" x="0" class="er entityBox"/><text style="dominant-baseline: middle; text-anchor: middle; font-size: 12px;" transform="translate(73.15234375,37.5)" y="0" x="0" id="text-entity-QuestionAnswerPair-257bfd5b-ee86-51a9-954a-dcbe630e7a46" class="er entityLabel">Question/Answer Pair</text></g><rect height="14" width="86.8203125" y="115.69500732421875" x="405.66217041015625" class="er relationshipLabelBox"/><text style="text-anchor: middle; dominant-baseline: middle; font-size: 12px;" y="122.69500732421875" x="449.07232666015625" id="rel1" class="er relationshipLabel">has one or more</text><rect height="14" width="17.71875" y="285.72320556640625" x="166.24261474609375" class="er relationshipLabelBox"/><text style="text-anchor: middle; dominant-baseline: middle; font-size: 12px;" y="292.72320556640625" x="175.10198974609375" id="rel2" class="er relationshipLabel">has</text><rect height="14" width="17.71875" y="304.49835205078125" x="284.72003173828125" class="er relationshipLabelBox"/><text style="text-anchor: middle; dominant-baseline: middle; font-size: 12px;" y="311.49835205078125" x="293.57940673828125" id="rel3" class="er relationshipLabel">has</text><rect height="14" width="17.71875" y="304.49835205078125" x="472.95574951171875" class="er relationshipLabelBox"/><text style="text-anchor: middle; dominant-baseline: middle; font-size: 12px;" y="311.49835205078125" x="481.81512451171875" id="rel4" class="er relationshipLabel">has</text><rect height="14" width="17.71875" y="285.288818359375" x="595.4586791992188" class="er relationshipLabelBox"/><text style="text-anchor: middle; dominant-baseline: middle; font-size: 12px;" y="292.288818359375" x="604.3180541992188" id="rel5" class="er relationshipLabel">has</text><rect height="14" width="82.5546875" y="108.24674224853516" x="777.3285522460938" class="er relationshipLabelBox"/><text style="text-anchor: middle; dominant-baseline: middle; font-size: 12px;" y="115.24674224853516" x="818.6058959960938" id="rel6" class="er relationshipLabel">has zero or one</text><rect height="14" width="17.71875" y="313" x="927.95703125" class="er relationshipLabelBox"/><text style="text-anchor: middle; dominant-baseline: middle; font-size: 12px;" y="320" x="936.81640625" id="rel7" class="er relationshipLabel">has</text><text class="entityTitleText" y="-25" x="514.984375">Inferencing Context ERD</text></svg>