<svg xmlns="http://www.w3.org/2000/svg" xmlns:xlink="http://www.w3.org/1999/xlink" version="1.1" width="1000" height="1000" viewBox="0 0 1000 1000" xml:space="preserve">
<desc>Created with Fabric.js 3.5.0</desc>
<defs>
</defs>
<rect x="0" y="0" width="100%" height="100%" fill="rgba(255,255,255,0)"/>
<g transform="matrix(64.9351 0 0 64.9351 500.0002 500.0002)" id="967650">
<path style="stroke: none; stroke-width: 1; stroke-dasharray: none; stroke-linecap: butt; stroke-dashoffset: 0; stroke-linejoin: miter; stroke-miterlimit: 4; is-custom-font: none; font-file-url: none; fill: rgb(255,255,255); fill-rule: nonzero; opacity: 1;" vector-effect="non-scaling-stroke" transform=" translate(-8, -8)" d="M 2.5 15 a 0.5 0.5 0 1 1 0 -1 h 1 v -1 a 4.5 4.5 0 0 1 2.557 -4.06 c 0.29 -0.139 0.443 -0.377 0.443 -0.59 v -0.7 c 0 -0.213 -0.154 -0.451 -0.443 -0.59 A 4.5 4.5 0 0 1 3.5 3 V 2 h -1 a 0.5 0.5 0 0 1 0 -1 h 11 a 0.5 0.5 0 0 1 0 1 h -1 v 1 a 4.5 4.5 0 0 1 -2.557 4.06 c -0.29 0.139 -0.443 0.377 -0.443 0.59 v 0.7 c 0 0.213 0.154 0.451 0.443 0.59 A 4.5 4.5 0 0 1 12.5 13 v 1 h 1 a 0.5 0.5 0 0 1 0 1 h -11 z m 2 -13 v 1 c 0 0.537 0.12 1.045 0.337 1.5 h 6.326 c 0.216 -0.455 0.337 -0.963 0.337 -1.5 V 2 h -7 z m 3 6.35 c 0 0.701 -0.478 1.236 -1.011 1.492 A 3.5 3.5 0 0 0 4.5 13 s 0.866 -1.299 3 -1.48 V 8.35 z m 1 0 v 3.17 c 2.134 0.181 3 1.48 3 1.48 a 3.5 3.5 0 0 0 -1.989 -3.158 C 8.978 9.586 8.5 9.052 8.5 8.351 z" stroke-linecap="round"/>
</g>
</svg>