<?xml version="1.0" encoding="UTF-8" standalone="no"?>
<!DOCTYPE svg PUBLIC "-//W3C//DTD SVG 1.1//EN" "http://www.w3.org/Graphics/SVG/1.1/DTD/svg11.dtd">
<svg width="100%" height="100%" viewBox="0 0 1238 1238" version="1.1" xmlns="http://www.w3.org/2000/svg" xmlns:xlink="http://www.w3.org/1999/xlink" xml:space="preserve" xmlns:serif="http://www.serif.com/" style="fill-rule:evenodd;clip-rule:evenodd;stroke-linejoin:round;stroke-miterlimit:2;">
    <g transform="matrix(0.966933,0,0,0.966933,-17864.4,-12146.4)">
        <path d="M19129.9,12583.9C19250.2,12584.2 19370.1,12620.3 19470.1,12686.5C19582.4,12761 19669.6,12872.7 19713.8,13000.6C19755.5,13121.4 19758.5,13255.4 19722.2,13378.2C19692,13480 19634.9,13573.7 19558.3,13647.6C19444.9,13757.1 19289.5,13820.8 19129.9,13821.1C19010.6,13821.3 18891.7,13786.2 18791.7,13721.1C18697.4,13659.5 18620.3,13572 18571.4,13470.6C18514.3,13352.2 18496.8,13215.1 18521.3,13086.4C18545.3,12960 18610.3,12841.6 18704.3,12752.9C18807.5,12655.3 18944.8,12594.8 19087.3,12585.3C19101.5,12584.4 19115.8,12583.9 19129.9,12583.9ZM19208.4,13307.9L19047.7,13307.9C18959.6,13308.2 18873.5,13351.6 18821.1,13423.5C18795,13459.2 18777.6,13501.8 18770.8,13544.2C18768.5,13558.8 18767.3,13573.5 18767.2,13588.3L18767.2,13647.6C18771.6,13651.1 18775.9,13654.5 18780.4,13657.9C18866.1,13723.6 18971.2,13764.5 19078.4,13773.9C19214.3,13785.8 19353.4,13747.9 19464.4,13667.7C19472.7,13661.7 19480.8,13655.5 19488.8,13649C19488.9,13627.8 19489,13606.5 19488.8,13585.6C19487.8,13499.2 19445,13414.4 19373.9,13362.2C19326.5,13327.5 19268,13308.1 19208.4,13307.9ZM19533.8,13608.6C19546.4,13596.1 19558.4,13583 19569.8,13569.3C19603.1,13529.3 19630.6,13485.9 19652.6,13436.8C19686.9,13360.2 19704.1,13275.1 19702.4,13190.5C19699.5,13049.7 19642.7,12909.9 19543.5,12806.3C19477,12736.8 19393.9,12684.8 19302.8,12655.8C19247.3,12638.1 19189,12629.2 19130.8,12628.9C19129.9,12628.9 19128.9,12628.9 19128,12628.9C19012.4,12629.1 18896.1,12665.8 18802,12731.3C18732.1,12779.9 18673.1,12844 18630.5,12918.6C18582.4,13003 18556.3,13100 18555.4,13197C18554.2,13314.8 18590.4,13432.9 18658.2,13530.2C18677.4,13557.7 18698.7,13583.2 18722.2,13606.9L18722.2,13588.2C18722.6,13491.8 18766.6,13396.4 18845.4,13333.7C18899.3,13290.8 18966.6,13265.9 19035,13263.2C19039.2,13263 19043.4,13262.9 19047.6,13262.9C19101.6,13262.9 19155.5,13262.7 19209.5,13262.9C19295.1,13263.2 19380,13298.6 19441.1,13361.2C19499.6,13421.1 19533.8,13503.5 19533.8,13588.2L19533.8,13588.7L19533.8,13608.6ZM19128.7,12716.4C19179.8,12716.7 19230.7,12737.4 19267.5,12773.3C19305.3,12810.2 19327.4,12861.9 19327.7,12915.4C19327.7,12944.8 19327.7,12974.1 19327.7,13003.5C19327.4,13064.8 19297.8,13124.5 19248.9,13161.7C19199.4,13199.4 19132.1,13212.2 19071.6,13194.4C18990.9,13170.6 18928.8,13093.6 18928.4,13003.5C18928.3,12974.1 18928.3,12944.8 18928.4,12915.4C18928.6,12863.3 18950.1,12811.7 18986.9,12774.9C19023.5,12738.4 19074.3,12716.9 19126.7,12716.4C19127.4,12716.4 19128,12716.4 19128.7,12716.4ZM19127.5,12761.4C19060.6,12761.7 18996.5,12807.7 18978.4,12877C18975.1,12889.6 18973.5,12902.6 18973.4,12915.6L18973.4,13003.4C18973.6,13042.9 18989.4,13081.8 19016.8,13110.2C19061.1,13156.2 19133.7,13172.1 19195.4,13142.1C19236,13122.4 19267.2,13085 19278.3,13039.7C19281.2,13027.7 19282.6,13015.6 19282.7,13003.4C19282.8,12974.1 19282.8,12944.8 19282.7,12915.6C19282.5,12864.2 19253.9,12813.1 19211.3,12785.8C19187.5,12770.5 19159.2,12762 19131,12761.5C19130.5,12761.5 19130,12761.4 19129.5,12761.4C19128.9,12761.4 19128.2,12761.4 19127.5,12761.4Z" style="fill:white;stroke:white;stroke-width:38.27px;"/>
    </g>
</svg>
